<?xml version="1.0" encoding="UTF-8"?>
<svg id="Layer_1" data-name="Layer 1" xmlns="http://www.w3.org/2000/svg" viewBox="0 0 420.94 137.88">
  <defs>
    <style>
      .cls-1 {
        fill: #e54e43;
      }

      .cls-1, .cls-2, .cls-3, .cls-4, .cls-5, .cls-6, .cls-7, .cls-8, .cls-9, .cls-10, .cls-11 {
        stroke-miterlimit: 10;
      }

      .cls-1, .cls-2, .cls-3, .cls-4, .cls-6, .cls-7, .cls-10, .cls-11 {
        stroke: #231f20;
      }

      .cls-1, .cls-2, .cls-4, .cls-6, .cls-7, .cls-10, .cls-11 {
        stroke-width: .5px;
      }

      .cls-2 {
        fill: #676767;
      }

      .cls-3 {
        stroke-width: .47px;
      }

      .cls-3, .cls-7 {
        fill: #efe893;
      }

      .cls-4 {
        fill: #8d8e90;
      }

      .cls-5 {
        stroke-dasharray: 0 0 0 0 0 0 11.37 11.37;
      }

      .cls-5, .cls-8, .cls-9 {
        stroke: #e3cdad;
        stroke-width: 6px;
      }

      .cls-5, .cls-8, .cls-9, .cls-10 {
        fill: none;
      }

      .cls-6 {
        fill: #818285;
      }

      .cls-9 {
        stroke-dasharray: 0 0 0 0 0 0 12.2 12.2;
      }

      .cls-11 {
        fill: #e42a27;
      }
    </style>
  </defs>
  <g id="Boiling">
    <path class="cls-7" d="M235.24,37.83v43.15s1.11,2.21,2.21,0v-5.53l-.02-1.96-2.19-2.47"/>
    <ellipse class="cls-7" cx="252.94" cy="70.47" rx="17.7" ry="9.41"/>
    <ellipse class="cls-3" cx="252.94" cy="69.36" rx="17.7" ry="8.3"/>
    <path class="cls-7" d="M260.69,45.57l2.2-.54v30.04c.01,.82-.64,1.48-1.46,1.48h-.73v-30.98h-.01Z"/>
    <ellipse class="cls-7" cx="252.94" cy="37.27" rx="17.7" ry="9.41"/>
    <path class="cls-7" d="M270.65,37.83v43.15c-1.11,2.21-2.21,0-2.21,0v-5.53l2.21-3.32"/>
    <path class="cls-7" d="M254.05,80.43v10.51c-1.11,2.21-2.21,0-2.21,0v-11.07l2.15-.08,.07,.63Z"/>
    <path class="cls-11" d="M235.24,37.83c1.11,4.43,6.64,6.64,6.64,6.64l-.03,31.15s-6.61-2.38-6.61-4.59"/>
    <path class="cls-11" d="M262.9,76.55v-30.98s6.64-2.21,7.75-6.64l-.4,31.97s-2.92,4.55-7.35,5.65h0Z"/>
    <path class="cls-11" d="M260.69,76.55v-30.98c-7.75,2.21-16.6,0-16.6,0l-.18,30.95s10.14,2.25,16.77,.03Z"/>
    <path class="cls-10" d="M248.52,12.38v14.38c-1.11,1.11-2.21,4.43-2.21,4.43"/>
    <path class="cls-11" d="M258.48,12.38v13.8s5.98,2.08,8.72,6.3c1.03,1.57,.86,3.65-.27,5.16l-.15,.21c-1.52,2.02-3.64,3.53-6.06,4.27-5.96,1.81-15.13,1.91-21.05-3.16-3.97-3.41-2.21-7.45,1.11-9.96,3.14-2.38,7.75-3.32,7.75-3.32V12.39"/>
    <ellipse class="cls-1" cx="253.5" cy="11.82" rx="4.98" ry="2.77"/>
    <path class="cls-6" d="M258.48,22.33c-4.43,4.43-9.96,0-9.96,0v-3.32s4.43,4.43,9.96,0v3.32Z"/>
    <path class="cls-10" d="M269.54,65.49s-2.21,0-2.21-2.21,2.21-2.21,2.21-2.21c0,0,1.11,0,1.11,2.21s-1.11,2.21-1.11,2.21Z"/>
    <polygon class="cls-7" points="241.88 44.46 241.85 75.62 243.67 76.5 244.09 45.57 241.88 44.46"/>
    <path class="cls-7" d="M173.28,63.8v43.15s1.11,2.21,2.21,0v-5.53l-.02-1.96-2.19-2.47"/>
    <ellipse class="cls-7" cx="190.98" cy="96.44" rx="17.7" ry="9.41"/>
    <ellipse class="cls-3" cx="190.98" cy="95.33" rx="17.7" ry="8.3"/>
    <path class="cls-7" d="M198.73,71.54l2.2-.54v30.04c.01,.82-.64,1.48-1.46,1.48h-.73v-30.98h-.01Z"/>
    <ellipse class="cls-7" cx="190.98" cy="63.24" rx="17.7" ry="9.41"/>
    <polyline class="cls-6" points="246.31 64.9 246.31 46.09 245.2 46.09 245.2 63.8"/>
    <polyline class="cls-2" points="246.36 49.93 269.54 79.29 269.54 77.07 246.31 48.3"/>
    <polyline class="cls-4" points="212 84.82 246.31 64.9 245.2 63.8 245.2 63.8 237.45 60.48 208.68 75.97 208.68 85.93 212 84.82"/>
    <polyline class="cls-6" points="208.68 88.14 247.41 66.01 246.31 64.9 208.68 85.93 208.68 88.14"/>
    <line class="cls-10" x1="251.84" y1="80.39" x2="251.84" y2="90.35"/>
    <path class="cls-7" d="M208.68,63.8v43.15c-1.11,2.21-2.21,0-2.21,0v-5.53l2.21-3.32"/>
    <path class="cls-7" d="M192.09,106.4v10.51c-1.11,2.21-2.21,0-2.21,0v-11.07l2.15-.08,.07,.63Z"/>
    <path class="cls-11" d="M173.28,63.8c1.11,4.43,6.64,6.64,6.64,6.64l-.03,31.15s-6.61-2.38-6.61-4.59"/>
    <path class="cls-11" d="M200.94,102.52v-30.98s6.64-2.21,7.75-6.64l-.4,31.97s-2.92,4.55-7.35,5.65Z"/>
    <path class="cls-11" d="M198.73,102.52v-30.98c-7.75,2.21-16.6,0-16.6,0l-.18,30.95s10.14,2.25,16.77,.03Z"/>
    <path class="cls-10" d="M186.55,38.35v14.38c-1.11,1.11-2.21,4.43-2.21,4.43"/>
    <path class="cls-11" d="M196.51,38.35v14.38s5.98,1.49,8.72,5.71c1.03,1.57,.86,3.65-.27,5.16l-.15,.21c-1.52,2.02-3.64,3.53-6.06,4.27-5.96,1.81-15.13,1.91-21.05-3.16-3.97-3.41-2.21-7.45,1.11-9.96,3.14-2.38,7.75-3.32,7.75-3.32v-13.28"/>
    <ellipse class="cls-1" cx="191.53" cy="37.79" rx="4.98" ry="2.77"/>
    <path class="cls-6" d="M196.51,48.3c-4.43,4.43-9.96,0-9.96,0v-3.32s4.43,4.43,9.96,0v3.32Z"/>
    <path class="cls-6" d="M202.34,55.5l32.9-18.26s1.11,0,1.11,1.11l-32.01,18.47"/>
    <path class="cls-6" d="M208.75,66.56l14.32-8.3s2.21-1.11,2.21-5.53c0,0-1.11-3.32,0-4.43,.93-.93,8.1-4.98,10.38-6.25,.43-.24,.69-.69,.69-1.18v-.42c0-.44-.48-.73-.87-.51l-9.08,5.05s-4.43,2.21-3.32,6.64c1.11,4.43-1.11,5.53-1.11,5.53l-13.28,7.75"/>
    <polyline class="cls-6" points="245.2 47.2 208.75 68.81 208.68 70.43 245.2 48.3"/>
    <polygon class="cls-6" points="220.98 63.12 220.86 78.73 219.75 79.29 219.75 63.8 220.98 63.12"/>
    <polygon class="cls-6" points="210.9 84.82 210.57 69.32 209.74 69.8 209.79 85.37 210.9 84.82"/>
    <path class="cls-10" d="M207.58,91.46s-2.21,0-2.21-2.21,2.21-2.21,2.21-2.21c0,0,1.11,0,1.11,2.21s-1.11,2.21-1.11,2.21Z"/>
    <path class="cls-10" d="M270.65,48.3s-1.11,0-1.11,2.21,1.11,2.21,1.11,2.21c0,0,1.11,0,1.11-2.21s-1.11-2.21-1.11-2.21Z"/>
    <line class="cls-10" x1="270.65" y1="50.52" x2="270.65" y2="49.41"/>
    <path class="cls-10" d="M270.65,53.28s-1.11,0-1.11,2.21,1.11,2.21,1.11,2.21c0,0,1.11,0,1.11-2.21s-1.11-2.21-1.11-2.21Z"/>
    <line class="cls-10" x1="270.65" y1="55.5" x2="270.65" y2="54.39"/>
    <line class="cls-10" x1="233.59" y1="40.04" x2="233.59" y2="41.13"/>
    <polyline class="cls-10" points="254.05 78.18 252.94 76.07 254.06 78.69"/>
    <polygon class="cls-7" points="179.92 70.43 179.88 101.59 181.72 102.47 182.13 71.54 179.92 70.43"/>
    <polygon class="cls-2" points="270.41 84.09 265.98 82.98 245.2 64.17 245.2 68.22 265.98 86.3 270.41 87.41 270.41 84.09"/>
    <polygon class="cls-2" points="236.66 73.13 245.51 68.71 249.94 69.82 241.08 74.24 236.66 73.13"/>
    <polygon class="cls-2" points="255.16 88.14 264.01 83.71 268.44 84.82 259.58 89.25 255.16 88.14"/>
    <polygon class="cls-2" points="249.63 84.91 258.48 80.48 262.9 81.59 254.05 86.01 249.63 84.91"/>
    <polygon class="cls-2" points="244.86 81.12 253.71 76.7 258.13 77.8 249.28 82.23 244.86 81.12"/>
    <polygon class="cls-2" points="240.77 77.16 249.63 72.74 254.05 73.84 245.2 78.27 240.77 77.16"/>
    <polygon class="cls-2" points="259.58 89.25 255.16 88.14 235.24 69.33 235.24 72.65 255.16 91.46 259.58 92.56 259.58 89.25"/>
    <polygon class="cls-6" points="235.35 70.91 235.24 54.39 234.13 54.94 234.24 71.46 235.35 70.91"/>
  </g>
  <g id="Lines">
    <g>
      <line class="cls-9" x1=".62" y1="-97.1" x2=".62" y2="85.11"/>
      <line class="cls-8" x1=".62" y1="91.86" x2=".62" y2="98.5"/>
    </g>
    <g>
      <line class="cls-5" x1="-106.78" y1="44.36" x2="113.45" y2="44.36"/>
      <line class="cls-8" x1="119.73" y1="44.36" x2="126.37" y2="44.36"/>
    </g>
  </g>
</svg>