<?xml version="1.0" encoding="UTF-8"?>
<svg id="processmobile" xmlns="http://www.w3.org/2000/svg" viewBox="0 0 287 297.32">
  <defs>
    <style>
      .cls-1 {
        stroke-dasharray: 0 0 0 0 0 0 12.67 12.67;
      }

      .cls-1, .cls-2, .cls-3, .cls-4, .cls-5, .cls-6, .cls-7 {
        stroke-miterlimit: 10;
      }

      .cls-1, .cls-5 {
        stroke: #e3cdad;
        stroke-width: 6px;
      }

      .cls-1, .cls-5, .cls-7 {
        fill: none;
      }

      .cls-2 {
        fill: #503534;
      }

      .cls-2, .cls-3, .cls-4, .cls-6, .cls-7 {
        stroke: #231f20;
        stroke-width: .5px;
      }

      .cls-3 {
        fill: #674949;
      }

      .cls-4 {
        fill: #523d3c;
      }

      .cls-6 {
        fill: #575757;
      }
    </style>
  </defs>
  <g id="Line">
    <g>
      <line class="cls-5" x1="146.39" y1="14.77" x2="146.39" y2="20.77"/>
      <line class="cls-1" x1="146.39" y1="33.44" x2="146.39" y2="52.44"/>
      <line class="cls-5" x1="146.39" y1="58.77" x2="146.39" y2="64.77"/>
    </g>
  </g>
  <g id="Aging">
    <path class="cls-2" d="M147.36,106.62s7.36,22.54-1.16,43.15c0,0-1.18,6.97-12.21,7.68-5.19,.33-8.81-.5-11.19-1.48-2.25-.93-3.99-2.78-4.82-5.06-9.58-26.29,1.42-46.03,1.42-46.03"/>
    <path class="cls-4" d="M147.33,107.62c-.17,4.97-7.06,7.99-14.24,7.8s-13.89-5.54-13.76-9.37c.11-3.17,7.01-5.99,14.18-5.8,7.18,.19,13.92,4.2,13.81,7.37h.01Z"/>
    <path class="cls-3" d="M133.99,157.45c-5.19,.33-8.81-.5-11.19-1.48-2.25-.93-3.99-2.78-4.82-5.06-9.58-26.29,1.23-45.43,1.23-45.43,0,0,1,6.43,7.94,8.61"/>
    <path class="cls-6" d="M149.67,120.9c-17.74,15.75-34.72-2.31-34.72-2.31l1.21-4.78s16.52,18.44,32.91,1.63l.6,5.46h0Z"/>
    <path class="cls-6" d="M147.33,145.63c-17.74,15.75-30.99-.82-30.99-.82l-.87-5.02s15.55,17.42,32.99,.87l-1.13,4.97Z"/>
    <path class="cls-7" d="M121.06,110.43s-4.51,26.39,1.99,45.57"/>
    <path class="cls-7" d="M127.82,114.71s-1.59,34.37,.2,42.42"/>
    <path class="cls-7" d="M135.74,115.4s.36,38.94-1.72,41.89"/>
    <path class="cls-7" d="M144.41,112.37s-.13,35.19-4.36,44.08"/>
    <path class="cls-2" d="M178.17,108.36s7.36,22.54-1.16,43.15c0,0-1.18,6.97-12.21,7.68-5.19,.33-8.81-.5-11.19-1.48-2.25-.93-3.99-2.78-4.82-5.06-9.58-26.29,1.42-46.03,1.42-46.03"/>
    <path class="cls-4" d="M178.14,109.36c-.17,4.97-7.06,7.99-14.24,7.8-7.18-.19-13.89-5.54-13.76-9.37,.11-3.17,7.01-5.99,14.18-5.8s13.92,4.2,13.81,7.37h0Z"/>
    <path class="cls-3" d="M164.8,159.19c-5.19,.33-8.81-.5-11.19-1.48-2.25-.93-3.99-2.78-4.82-5.06-9.58-26.29,1.23-45.43,1.23-45.43,0,0,1,6.43,7.94,8.61"/>
    <path class="cls-6" d="M180.48,122.63c-17.74,15.75-34.72-2.31-34.72-2.31l1.21-4.78s16.52,18.44,32.91,1.63l.6,5.46h0Z"/>
    <path class="cls-6" d="M178.14,147.37c-17.74,15.75-30.99-.82-30.99-.82l-.87-5.02s15.55,17.42,32.99,.87l-1.13,4.97Z"/>
    <path class="cls-7" d="M151.87,112.17s-4.51,26.39,1.99,45.57"/>
    <path class="cls-7" d="M158.63,116.45s-1.59,34.37,.2,42.42"/>
    <path class="cls-7" d="M166.55,117.14s.36,38.94-1.72,41.89"/>
    <path class="cls-7" d="M175.22,114.1s-.13,35.19-4.36,44.08"/>
  </g>
</svg>