<?xml version="1.0" encoding="UTF-8"?>
<svg id="processmobile" xmlns="http://www.w3.org/2000/svg" xmlns:xlink="http://www.w3.org/1999/xlink" viewBox="0 0 287 297.88">
  <defs>
    <style>
      .cls-1 {
        stroke-width: 1.22px;
      }

      .cls-1, .cls-2 {
        fill: none;
        stroke: #331c1a;
        stroke-linecap: round;
        stroke-miterlimit: 10;
      }

      .cls-3 {
        fill: url(#linear-gradient-2);
      }

      .cls-4 {
        fill: url(#linear-gradient-17);
      }

      .cls-5 {
        fill: url(#linear-gradient-15);
      }

      .cls-6 {
        fill: url(#linear-gradient-18);
      }

      .cls-7 {
        fill: url(#linear-gradient-14);
      }

      .cls-8 {
        fill: url(#linear-gradient-20);
      }

      .cls-9 {
        fill: url(#linear-gradient-6);
      }

      .cls-10 {
        fill: url(#linear-gradient-11);
      }

      .cls-11 {
        fill: #684544;
      }

      .cls-12 {
        fill: #5b3c3c;
      }

      .cls-13 {
        fill: url(#linear-gradient-10);
      }

      .cls-14 {
        fill: #078944;
      }

      .cls-15 {
        fill: url(#linear-gradient-16);
      }

      .cls-16 {
        fill: url(#linear-gradient-21);
      }

      .cls-17 {
        fill: url(#linear-gradient-25);
      }

      .cls-18 {
        fill: url(#linear-gradient-5);
      }

      .cls-19 {
        fill: #0e60ac;
      }

      .cls-20 {
        fill: url(#linear-gradient-7);
      }

      .cls-21 {
        fill: url(#linear-gradient-24);
      }

      .cls-22 {
        fill: url(#linear-gradient-9);
      }

      .cls-23 {
        fill: url(#linear-gradient-22);
      }

      .cls-2 {
        stroke-width: 1.57px;
      }

      .cls-24 {
        fill: url(#linear-gradient-3);
      }

      .cls-25 {
        fill: url(#linear-gradient);
      }

      .cls-26 {
        fill: #214196;
      }

      .cls-27 {
        fill: #87c0e9;
      }

      .cls-28 {
        fill: url(#linear-gradient-23);
      }

      .cls-29 {
        fill: url(#linear-gradient-19);
      }

      .cls-30 {
        fill: url(#linear-gradient-4);
      }

      .cls-31 {
        fill: url(#linear-gradient-8);
      }

      .cls-32 {
        fill: url(#linear-gradient-12);
      }

      .cls-33 {
        fill: url(#linear-gradient-13);
      }
    </style>
    <linearGradient id="linear-gradient" x1="44" y1="1796.14" x2="60.88" y2="1796.14" gradientTransform="translate(-46.18 1981.56) rotate(2.32) scale(1 -1)" gradientUnits="userSpaceOnUse">
      <stop offset=".1" stop-color="#fcee23"/>
      <stop offset=".85" stop-color="#e1a332"/>
    </linearGradient>
    <linearGradient id="linear-gradient-2" x1="41.45" y1="1792.96" x2="48.03" y2="1792.96" xlink:href="#linear-gradient"/>
    <linearGradient id="linear-gradient-3" x1="62.41" y1="1810" x2="73.48" y2="1810" gradientTransform="translate(-35.47 1976.53) rotate(3.43) scale(.96 -.99) skewX(-2.25)" xlink:href="#linear-gradient"/>
    <linearGradient id="linear-gradient-4" x1="33.87" y1="1793.29" x2="43.02" y2="1793.29" xlink:href="#linear-gradient"/>
    <linearGradient id="linear-gradient-5" x1="38.83" y1="1789.42" x2="43.76" y2="1789.42" xlink:href="#linear-gradient"/>
    <linearGradient id="linear-gradient-6" x1="30.79" y1="1787.88" x2="38.12" y2="1787.88" xlink:href="#linear-gradient"/>
    <linearGradient id="linear-gradient-7" x1="34.52" y1="1785.77" x2="39.46" y2="1785.77" xlink:href="#linear-gradient"/>
    <linearGradient id="linear-gradient-8" x1="28.25" y1="1781.05" x2="33.55" y2="1781.05" xlink:href="#linear-gradient"/>
    <linearGradient id="linear-gradient-9" x1="32.02" y1="1781.32" x2="36.99" y2="1781.32" xlink:href="#linear-gradient"/>
    <linearGradient id="linear-gradient-10" x1="28.84" y1="1776.25" x2="33.65" y2="1776.25" xlink:href="#linear-gradient"/>
    <linearGradient id="linear-gradient-11" x1=".95" y1="1824.31" x2="22.54" y2="1824.31" gradientTransform="translate(-104.43 1991.41) rotate(5.31) scale(1 -1)" xlink:href="#linear-gradient"/>
    <linearGradient id="linear-gradient-12" x1="-2.32" y1="1820.24" x2="6.1" y2="1820.24" gradientTransform="translate(-104.43 1991.41) rotate(5.31) scale(1 -1)" xlink:href="#linear-gradient"/>
    <linearGradient id="linear-gradient-13" x1="16.21" y1="1837.88" x2="30.36" y2="1837.88" gradientTransform="translate(-93.47 1986.95) rotate(6.42) scale(.96 -.99) skewX(-2.25)" xlink:href="#linear-gradient"/>
    <linearGradient id="linear-gradient-14" x1="-12" y1="1820.67" x2="-.29" y2="1820.67" gradientTransform="translate(-104.43 1991.41) rotate(5.31) scale(1 -1)" xlink:href="#linear-gradient"/>
    <linearGradient id="linear-gradient-15" x1="-5.67" y1="1815.71" x2=".64" y2="1815.71" gradientTransform="translate(-104.43 1991.41) rotate(5.31) scale(1 -1)" xlink:href="#linear-gradient"/>
    <linearGradient id="linear-gradient-16" x1="-15.94" y1="1813.73" x2="-6.57" y2="1813.73" gradientTransform="translate(-104.43 1991.41) rotate(5.31) scale(1 -1)" xlink:href="#linear-gradient"/>
    <linearGradient id="linear-gradient-17" x1="-11.18" y1="1811.04" x2="-4.87" y2="1811.04" gradientTransform="translate(-104.43 1991.41) rotate(5.31) scale(1 -1)" xlink:href="#linear-gradient"/>
    <linearGradient id="linear-gradient-18" x1="-19.2" y1="1805.01" x2="-12.41" y2="1805.01" gradientTransform="translate(-104.43 1991.41) rotate(5.31) scale(1 -1)" xlink:href="#linear-gradient"/>
    <linearGradient id="linear-gradient-19" x1="-14.39" y1="1805.35" x2="-8.03" y2="1805.35" gradientTransform="translate(-104.43 1991.41) rotate(5.31) scale(1 -1)" xlink:href="#linear-gradient"/>
    <linearGradient id="linear-gradient-20" x1="-18.44" y1="1798.87" x2="-12.3" y2="1798.87" gradientTransform="translate(-104.43 1991.41) rotate(5.31) scale(1 -1)" xlink:href="#linear-gradient"/>
    <linearGradient id="linear-gradient-21" x1="-679.69" y1="606.82" x2="-695.27" y2="607" gradientTransform="translate(941.29 672.27) rotate(72.99)" gradientUnits="userSpaceOnUse">
      <stop offset=".22" stop-color="#86c442"/>
      <stop offset=".71" stop-color="#078944"/>
    </linearGradient>
    <linearGradient id="linear-gradient-22" x1="-372.86" y1="435.33" x2="-385.81" y2="428.71" gradientTransform="translate(728.11 154.84) rotate(45.28)" gradientUnits="userSpaceOnUse">
      <stop offset="0" stop-color="#86c442"/>
      <stop offset="1" stop-color="#078944"/>
    </linearGradient>
    <linearGradient id="linear-gradient-23" x1="-800.97" y1="749.02" x2="-817.03" y2="753.01" gradientTransform="translate(948.91 944.48) rotate(86.26)" gradientUnits="userSpaceOnUse">
      <stop offset=".03" stop-color="#86c442"/>
      <stop offset=".67" stop-color="#078944"/>
    </linearGradient>
    <linearGradient id="linear-gradient-24" x1="133.19" y1="1795" x2="128.18" y2="1808.75" gradientTransform="translate(-46.18 1981.56) rotate(2.32) scale(1 -1)" xlink:href="#linear-gradient-22"/>
    <linearGradient id="linear-gradient-25" x1="131.59" y1="1800.18" x2="126.14" y2="1815.17" gradientTransform="translate(-46.18 1981.56) rotate(2.32) scale(1 -1)" xlink:href="#linear-gradient-22"/>
  </defs>
  <g id="Raw_Material" data-name="Raw Material">
    <path class="cls-25" d="M72.16,189.03c11.95-2.9,13.43,2.23,13.43,2.23l1.76-1.62c-11.6-5.54-16.87-.68-16.87-.68"/>
    <path class="cls-3" d="M73.16,186.99s2.53,3.1,.45,6.87c-2.08,3.77-5.97,2.81-5.97,2.81,0,0-.1-4.11,1.18-6.14,1.35-2.14,4.34-3.55,4.34-3.55h0Z"/>
    <path class="cls-24" d="M74.41,188.21s-1.73-3.61-5.87-3.39c-4.14,.21-4.82,4.09-4.82,4.09,0,0,3.58,1.88,5.87,1.62,2.41-.27,4.82-2.32,4.82-2.32h0Z"/>
    <path class="cls-30" d="M69.39,191.66s-1.43-2.98-4.99-2.74c-3.56,.24-4.2,3.49-4.2,3.49,0,0,3.04,1.51,5.02,1.26,2.08-.26,4.18-2.01,4.18-2.01h-.01Z"/>
    <path class="cls-18" d="M69.23,190.81s-3.27,.51-4.07,3.98,2.12,5.03,2.12,5.03c0,0,2.33-2.47,2.66-4.43,.35-2.06-.71-4.58-.71-4.58Z"/>
    <path class="cls-9" d="M64.39,193.93s-2.86-1.67-5.67,.52-1.53,5.24-1.53,5.24c0,0,3.37-.45,4.86-1.76,1.57-1.38,2.34-4,2.34-4h0Z"/>
    <path class="cls-20" d="M64.78,194.28s-3.27,.51-4.07,3.98,2.12,5.03,2.12,5.03c0,0,2.33-2.47,2.66-4.43,.35-2.06-.71-4.58-.71-4.58Z"/>
    <path class="cls-31" d="M59.32,199.02s-3.31-.14-4.78,3.11c-1.47,3.25,1.09,5.35,1.09,5.35,0,0,2.77-1.97,3.48-3.83,.75-1.96,.2-4.63,.2-4.63h0Z"/>
    <path class="cls-22" d="M58.93,198.52s3.24,.69,3.84,4.21-2.4,4.9-2.4,4.9c0,0-2.19-2.6-2.41-4.58-.23-2.08,.97-4.53,.97-4.53Z"/>
    <path class="cls-13" d="M57.83,203.45s-3.13,1.08-3.31,4.64,2.98,4.58,2.98,4.58c0,0,1.86-2.85,1.84-4.83-.02-2.09-1.51-4.38-1.51-4.38h0Z"/>
    <path class="cls-10" d="M67.46,175.58c15.45-2.9,17,3.75,17,3.75l2.35-1.95c-14.45-7.85-21.5-2-21.5-2"/>
    <path class="cls-32" d="M68.87,173.04s3.03,4.13,.12,8.8-7.81,3.2-7.81,3.2c0,0,.15-5.25,1.92-7.76,1.87-2.64,5.78-4.24,5.78-4.24h-.01Z"/>
    <path class="cls-33" d="M70.38,174.68s-1.97-4.72-7.27-4.73c-5.3,0-6.42,4.9-6.42,4.9,0,0,4.44,2.64,7.38,2.46,3.1-.19,6.31-2.64,6.31-2.64h0Z"/>
    <path class="cls-7" d="M63.75,178.75s-1.63-3.91-6.19-3.84c-4.56,.07-5.6,4.18-5.6,4.18,0,0,3.79,2.14,6.32,1.95,2.67-.2,5.47-2.29,5.47-2.29Z"/>
    <path class="cls-5" d="M63.6,177.66s-4.21,.43-5.47,4.81c-1.26,4.38,2.37,6.57,2.37,6.57,0,0,3.14-3,3.7-5.48,.59-2.61-.6-5.9-.6-5.9h0Z"/>
    <path class="cls-15" d="M57.21,181.33s-3.54-2.32-7.28,.29-2.3,6.59-2.3,6.59c0,0,4.33-.35,6.33-1.93,2.1-1.66,3.25-4.96,3.25-4.96h0Z"/>
    <path class="cls-4" d="M57.68,181.8s-4.21,.43-5.47,4.81,2.37,6.57,2.37,6.57c0,0,3.14-3,3.7-5.48,.59-2.61-.6-5.9-.6-5.9h0Z"/>
    <path class="cls-6" d="M50.4,187.49s-4.21-.4-6.31,3.65c-2.09,4.05,1.04,6.91,1.04,6.91,0,0,3.67-2.33,4.7-4.65,1.09-2.45,.57-5.9,.57-5.9h0Z"/>
    <path class="cls-29" d="M49.93,186.82s4.09,1.1,4.63,5.63-3.39,6.1-3.39,6.1c0,0-2.62-3.47-2.77-6.01-.16-2.67,1.54-5.72,1.54-5.72h-.01Z"/>
    <path class="cls-8" d="M48.2,193.05s-4.07,1.17-4.53,5.7,3.49,6.05,3.49,6.05c0,0,2.56-3.51,2.67-6.05,.11-2.68-1.63-5.7-1.63-5.7Z"/>
    <path class="cls-14" d="M146.7,181.27s-3.06-5.24-11.35-5.58c-1.38-.06,.13-3.23,.13-3.23,0,0,6.74-1.01,10.7,4.01,3.96,5.03,.51,4.8,.51,4.8h.01Z"/>
    <path class="cls-16" d="M167.32,198.19s.84-6.61-3.33-11.32-11.46,.19-11.46,.19c0,0-1.67,6.98,3.86,9.04,2.61,.97,10.94,2.09,10.94,2.09h0Z"/>
    <path class="cls-23" d="M147.27,186.06s-4.59,5.11,5.29,8.97c2.86,1.12,5.42,.86,6.75,.27,2.57-1.13,3.8-3.45,3.8-3.45,0,0-4.33-3.73-8.14-7.57-4.47-4.51-7.7,1.78-7.7,1.78Z"/>
    <path class="cls-28" d="M143.98,178.37s-3.8,4.41-2.01,11.06c.64,2.38,2.92,3.35,4.31,3.78,2.68,.83,5.87-.09,5.87-.09,0,0-.83-5.66-1.18-11.05-.41-6.33-6.98-3.7-6.98-3.7h-.01Z"/>
    <path class="cls-21" d="M148.8,182.47s4.95-4.48,12.62-2.62c2.75,.67,3.92,3.25,4.46,4.83,1.03,3.05,.07,6.73,.07,6.73,0,0-6.51-.79-12.7-1.04-7.27-.29-4.44-7.9-4.44-7.9h-.01Z"/>
    <path class="cls-17" d="M146.44,176.23s5.39-4.89,13.76-2.86c2.99,.73,4.28,3.55,4.86,5.27,1.12,3.33,.07,7.33,.07,7.33,0,0-7.1-.86-13.84-1.13-7.92-.32-4.84-8.61-4.84-8.61h-.01Z"/>
    <path class="cls-26" d="M135.73,233.68l-6.42,21.15s-3.24,10.81,2.08,16.7c3.36,3.73,13.63,4.16,16.7-2.08,3.88-7.86-2.08-16.7-2.08-16.7l-10.29-19.08h0Z"/>
    <path class="cls-19" d="M136.73,240.14l-4.63,15.26s-2.33,7.8,1.5,12.05c2.43,2.69,9.83,3,12.05-1.5,2.8-5.67-1.5-12.05-1.5-12.05l-7.42-13.76Z"/>
    <path class="cls-27" d="M138.36,245.74l-1.43,5.69s-.72,2.91,.76,4.4c.94,.95,3.67,.93,4.4-.76,.93-2.13-.76-4.4-.76-4.4l-2.97-4.93h0Z"/>
    <path class="cls-12" d="M222.59,270.88s-6.71-.27-7.73-8.38c-1.06-8.43,7.53-19.87,7.53-19.87,0,0,2.85-3.92,5.37,.22,2.52,4.14,6.11,15.04,4.5,21.7s-9.67,6.33-9.67,6.33Z"/>
    <path class="cls-2" d="M221.98,245.05c-1.89,5-5.82,18.36-2.65,23.56"/>
    <path class="cls-2" d="M227.04,245.25c1.48,5.13,3.75,19.05,.17,23.97"/>
    <path class="cls-11" d="M235.54,269.86s-5.23-.21-6.03-6.54c-.82-6.58,5.87-15.49,5.87-15.49,0,0,2.22-3.06,4.19,.17s4.77,11.73,3.51,16.92c-1.26,5.19-7.54,4.94-7.54,4.94Z"/>
    <path class="cls-1" d="M235.06,249.72c-1.48,3.9-4.54,14.32-2.06,18.37"/>
    <path class="cls-1" d="M239.01,249.88c1.16,4,2.92,14.85,.13,18.69"/>
  </g>
</svg>