<?xml version="1.0" encoding="UTF-8"?>
<svg id="processmobile" xmlns="http://www.w3.org/2000/svg" viewBox="0 0 287 261.59">
  <defs>
    <style>
      .cls-1 {
        fill: #767679;
      }

      .cls-1, .cls-2, .cls-3, .cls-4, .cls-5, .cls-6, .cls-7, .cls-8, .cls-9, .cls-10, .cls-11 {
        stroke: #231f20;
      }

      .cls-1, .cls-12, .cls-5, .cls-6, .cls-7, .cls-8, .cls-13, .cls-9, .cls-10, .cls-11 {
        stroke-miterlimit: 10;
      }

      .cls-1, .cls-5 {
        stroke-width: .25px;
      }

      .cls-2 {
        stroke-width: .54px;
      }

      .cls-2, .cls-3, .cls-4 {
        stroke-miterlimit: 10;
      }

      .cls-2, .cls-4, .cls-7 {
        fill: #b14a4a;
      }

      .cls-3 {
        stroke-width: .65px;
      }

      .cls-3, .cls-6 {
        fill: #c82128;
      }

      .cls-4 {
        stroke-width: .39px;
      }

      .cls-12 {
        stroke-dasharray: 0 0 0 0 0 0 12.67 12.67;
      }

      .cls-12, .cls-5, .cls-8, .cls-13, .cls-10, .cls-11 {
        fill: none;
      }

      .cls-12, .cls-13 {
        stroke: #e3cdad;
        stroke-width: 6px;
      }

      .cls-6, .cls-9 {
        stroke-width: .65px;
      }

      .cls-7 {
        stroke-width: .52px;
      }

      .cls-8 {
        stroke-width: .39px;
      }

      .cls-9 {
        fill: #a51e22;
      }

      .cls-10 {
        stroke-width: .59px;
      }

      .cls-11 {
        stroke-width: .5px;
      }
    </style>
  </defs>
  <g id="Line">
    <g>
      <line class="cls-13" x1="144.88" y1="27.11" x2="144.88" y2="33.11"/>
      <line class="cls-12" x1="144.88" y1="45.78" x2="144.88" y2="64.78"/>
      <line class="cls-13" x1="144.88" y1="71.11" x2="144.88" y2="77.11"/>
    </g>
  </g>
  <g id="Mashing">
    <path class="cls-6" d="M181.11,180.4c-.03,10.47-15.03,19.03-33.44,19.5-18.46,.47-33.44-8.73-33.44-19.5s14.97-19.5,33.44-19.5,33.47,8.73,33.44,19.5Z"/>
    <path class="cls-9" d="M182.23,175.5c-.04,11.26-15.3,20.46-34.05,20.96-18.8,.5-34.05-9.39-34.05-20.96s15.24-20.96,34.05-20.96,34.08,9.39,34.05,20.96h0Z"/>
    <path class="cls-1" d="M178.58,168.21s-.35-8.72-.35-13.72c0-3-3.1-4.63-5-4-3,1-7.93,3.46-7.93,3.46l2.77,1.38,3.89-1.88s4.27-2.95,4.27,3.05c0,5-.05,7.07-.05,7.07l2.4,4.66v-.02Z"/>
    <path class="cls-1" d="M116.23,167.49v-12c0-4.2,2.72-4.97,4.36-5.05,.69-.04,1.37,.14,1.99,.46l7.65,4.59-2,1-7-4s-3-1.25-3,4.52-.05,7.48-.05,7.48l-1.95,3h0Z"/>
    <path class="cls-9" d="M181.73,172.49c-.03,10.47-15.05,19.03-33.5,19.5-18.5,.47-33.5-8.73-33.5-19.5s15-19.5,33.5-19.5,33.54,8.73,33.5,19.5Z"/>
    <ellipse class="cls-3" cx="148.74" cy="166.52" rx="15.5" ry="28" transform="translate(-21.94 310.46) rotate(-88.37)"/>
    <ellipse class="cls-2" cx="148.33" cy="163.65" rx="12.9" ry="23.31" transform="translate(-19.47 307.26) rotate(-88.37)"/>
    <ellipse class="cls-3" cx="148.57" cy="161.9" rx="11.05" ry="19.96" transform="translate(-17.49 305.8) rotate(-88.37)"/>
    <ellipse class="cls-4" cx="148.28" cy="159.85" rx="9.2" ry="16.62" transform="translate(-15.72 303.52) rotate(-88.37)"/>
    <path class="cls-6" d="M154.73,135.99s-1-3-7-3c-7,0-6,5-6,5v20c0,5,13,5,13,0v-22"/>
    <path class="cls-11" d="M138.23,152.49s0-1,2-1"/>
    <path class="cls-5" d="M143.23,172.49s-.36,3.21-.91,3.81c-1.09,1.19-1.59,4.74-1.14,5.27"/>
    <path class="cls-5" d="M124.28,173.76s.4-3.17,3.89-4.32c3.49-1.15,4.07-1.95,4.07-1.95"/>
    <path class="cls-7" d="M154.73,136.7c0,2.05-5,2.79-6,2.79s-7-.73-7-2.79,2.91-3.71,6.5-3.71,6.5,1.66,6.5,3.71Z"/>
    <ellipse class="cls-10" cx="140.23" cy="153.99" rx="2" ry="2.5"/>
    <line class="cls-8" x1="140.23" y1="151.49" x2="140.23" y2="156.49"/>
    <line class="cls-8" x1="138.23" y1="154.49" x2="142.23" y2="154.49"/>
    <path class="cls-1" d="M142.23,153.49s1.71-.52,2-1c0,0,.21-.87,0-1l-2,1v1Z"/>
  </g>
</svg>