<?xml version="1.0" encoding="UTF-8"?>
<svg id="processmobile" xmlns="http://www.w3.org/2000/svg" viewBox="0 0 287 297.88">
  <defs>
    <style>
      .cls-1, .cls-2, .cls-3, .cls-4, .cls-5, .cls-6, .cls-7, .cls-8, .cls-9, .cls-10, .cls-11, .cls-12, .cls-13, .cls-14, .cls-15, .cls-16, .cls-17, .cls-18, .cls-19 {
        stroke-miterlimit: 10;
      }

      .cls-1, .cls-2, .cls-4, .cls-5, .cls-6, .cls-7, .cls-9, .cls-10, .cls-11, .cls-13, .cls-14, .cls-15, .cls-16, .cls-17, .cls-18, .cls-19 {
        stroke: #231f20;
      }

      .cls-1, .cls-4 {
        fill: #353635;
      }

      .cls-1, .cls-15, .cls-17 {
        stroke-width: .69px;
      }

      .cls-2, .cls-4, .cls-5, .cls-7, .cls-8, .cls-9, .cls-10, .cls-11, .cls-13, .cls-18 {
        stroke-width: .68px;
      }

      .cls-2, .cls-6, .cls-16, .cls-17 {
        fill: #818285;
      }

      .cls-3 {
        stroke-dasharray: 0 0 0 0 0 0 12.67 12.67;
      }

      .cls-3, .cls-9, .cls-12 {
        fill: none;
      }

      .cls-3, .cls-12 {
        stroke: #e3cdad;
        stroke-width: 6px;
      }

      .cls-5 {
        fill: #464645;
      }

      .cls-6, .cls-19 {
        stroke-width: .59px;
      }

      .cls-7, .cls-8 {
        fill: #a57243;
      }

      .cls-8 {
        stroke: #030303;
      }

      .cls-10 {
        fill: #4e4d4d;
      }

      .cls-11 {
        fill: #7f8080;
      }

      .cls-13 {
        fill: #9a6732;
      }

      .cls-14 {
        fill: #f7d92a;
        stroke-width: .2px;
      }

      .cls-15 {
        fill: #515352;
      }

      .cls-16 {
        stroke-width: .37px;
      }

      .cls-18 {
        fill: #646363;
      }

      .cls-19 {
        fill: #454646;
      }
    </style>
  </defs>
  <g id="Line">
    <g>
      <line class="cls-12" x1="146.89" y1="20" x2="146.89" y2="26"/>
      <line class="cls-3" x1="146.89" y1="38.67" x2="146.89" y2="57.67"/>
      <line class="cls-12" x1="146.89" y1="64" x2="146.89" y2="70"/>
    </g>
  </g>
  <g id="Malting">
    <polygon class="cls-17" points="196.8 194.56 170.94 209.53 170.94 183.67 196.8 168.7 196.8 194.56"/>
    <polygon class="cls-2" points="196.8 168.7 170.94 183.67 145.81 170.81 171.67 159.92 196.8 168.7"/>
    <polygon class="cls-2" points="170.94 183.67 170.94 209.53 146.44 194.56 146.44 171.42 170.94 183.67"/>
    <path class="cls-19" d="M191.35,189.11c0,2.72-3.05,9.53-6.8,9.53-2.72,0-6.8-3.21-6.8-8.85s3.05-10.21,6.8-10.21,6.8,3.89,6.8,9.53h0Z"/>
    <path class="cls-6" d="M189.31,189.11c0,2.14-2.13,7.49-4.76,7.49-1.91,0-4.76-2.52-4.76-6.95s2.13-8.02,4.76-8.02,4.76,3.06,4.76,7.49h0Z"/>
    <path class="cls-16" d="M187.95,189.11c0,1.36-1.52,4.76-3.4,4.76-1.36,0-3.4-1.6-3.4-4.42s1.52-5.1,3.4-5.1,3.4,1.94,3.4,4.76h0Z"/>
    <polygon class="cls-15" points="196.8 199.54 170.94 214.51 170.94 209.07 196.8 194.1 196.8 199.54"/>
    <path class="cls-19" d="M192.89,196.57l-8.59-5.12c-.24-.14-.43-.38-.51-.65-.02-.07-.04-.14-.06-.21-.48-1.89,1.63-3.39,3.32-2.43l7.3,4.17,.46,.26s2.47,1.45,.6,3.58c-.63,.72-2,.43-2.51,.41h-.01Z"/>
    <polyline class="cls-4" points="167.58 215.04 168.22 170.06 150.53 160.53 140.36 147.67 140.36 165.37 137.64 165.37 137.64 146.31 134.2 141.48 168.94 161.28 207.69 140.12 201.61 146.31 201.61 202.79 200.25 202.11 200.25 149.03 189.36 159.92 170.31 170.81 170.31 216.4"/>
    <polygon class="cls-18" points="133.56 140.87 173.03 119.09 208.41 139.51 168.94 161.28 133.56 140.87"/>
    <polygon class="cls-9" points="137.64 140.87 173.03 121.82 202.97 139.51 168.94 158.56 151.01 148.42 137.64 140.87"/>
    <polygon class="cls-10" points="188.63 160.53 188.63 168.7 170.37 178.15 170.31 170.81 188.63 160.53"/>
    <path class="cls-19" d="M196.12,194.56c0,2.04-1.97,2.04-2.72,2.04s-1.36-1.59-1.36-2.72c0-1.36,1.97-1.36,2.72-1.36s1.36,.91,1.36,2.04Z"/>
    <polygon class="cls-1" points="196.8 201.59 170.94 216.56 170.94 211.11 196.8 196.14 196.8 201.59"/>
    <polygon class="cls-15" points="169.58 214.17 146.44 200 146.44 194.56 169.58 208.73 169.58 214.17"/>
    <polygon class="cls-1" points="169.58 216.22 146.44 202.61 146.44 197.16 169.58 210.77 169.58 216.22"/>
    <polygon class="cls-10" points="168.22 170.06 168.22 178.22 150.53 168.7 150.53 160.53 168.22 170.06"/>
    <polygon class="cls-5" points="173.03 121.82 172.3 136.04 151.01 148.42 137.64 140.87 173.03 121.82"/>
    <polygon class="cls-11" points="172.3 136.04 189.99 146.92 202.97 139.51 173.03 121.82 172.3 136.04"/>
    <path class="cls-13" d="M98.18,221.16s-2.72,6.8-2.72,8.17c0,0-2.72,4.08,0,4.08,0,0,3.88,1.47,5.44,4.08,2,3.33,21.77,1.36,23.14,0s4.08-1.36,4.08-1.36c0,0,1.36,1.36,1.36-1.36s-2.81-12-2.09-14.16"/>
    <path class="cls-13" d="M147.17,226.61s8.8-.75,10.16,1.97c.85,1.7,2.23,.22,3.15-1.14,.62-.92,.82-2.05,.55-3.12l-.98-3.9c2.1-5.24,1.04-10.62,0-13.61-.33-.96-1.57-7.17-1.36-8.17,.84-4.01,1.09-14.41,0-17.69,0,0-1,2.88-5.26,4.84s-8.11,4.53-17.76,1.88-11,.08-11,.08v21.77l2.7,12.79s11.63,7.01,19.8,4.29"/>
    <path class="cls-8" d="M98.81,220.41s-4.11,7.26-4.11,8.62c0,0-2.72,4.08,0,4.08,0,0,3.86,1.49,5.44,4.08,1.39,2.27,6.83,2.27,10.91,2.27"/>
    <polyline class="cls-7" points="141.67 227.29 135.56 225.86 124.67 221.09 124.67 186.39 133.04 187.04"/>
    <path class="cls-13" d="M121.31,208.91s.28,0,.74,.05c1.36,.15,4.25,.73,5.62,3.05,.28,.48,.3,1.06,.08,1.57-.28,.64-.48,1.81,.37,3.49,1.36,2.72-1.36,4.08-1.36,4.08-8.17,8.17-27.22,1.36-28.58,0s0-10.89,0-10.89c4.08-4.08,13.61-2.72,13.61-2.72l11.62,1.55"/>
    <path class="cls-9" d="M99.54,211.64s1.36,5.44,13.61,5.44c0,0,5.44,0,8.17-1.36s4.08-1.36,4.08-1.36"/>
    <path class="cls-14" d="M105.74,213.45c-.11,.32-1.75-.24-1.64-.57m3.3-.13c.03,.34,1.76,.16,1.72-.17m10.14-4.34l5.44,5.44v-.29l-.16-.8-1.2-1.63c0-1.36-2.72-1.36-2.72-1.36,.73-1.97-1.36-1.36-1.36-1.36m4.08,4.08c0-1.36-2.72-1.36-2.72-1.36m1.36,1.36l-2.72-4.08c-1.36-1.36-3.19-.33-3.19-.33-1.11-.94-1.9,.06-1.9,.06,0,0-1.71-1.09-3.07,.27h-1.36c-2.72-1.36-2.72,1.36-2.72,1.36-2-.61-1.64,.82-1.64,.82-1.35-.19-1.54,1.16-1.54,1.16l-.91-.62c-1.36,0-1.36,1.36-1.36,1.36,0,0-2.09-2.11-1.8-.15s5.15,3.49,9.24,4.85,16.33-2.72,16.33-2.72m-11.52-3.33c-1.36-1.36-2.72,0-2.72,0m5.44,4.08c-1.36-1.36-4.08,0-4.08,0m-4.08,0c-1.36-1.36-2.72,0-2.72,0m13.61-2.72c-1.36-1.36-2.72,0-2.72,0m-5.44,1.36c-1.36-1.36-2.72,0-2.72,0"/>
    <path class="cls-13" d="M141.51,165.99s-10.67-.62-16.12,4.82c0,0-2,.75-1.36,4.08,0,0,1.36,2.72,0,2.72s-2.72,5.44,0,5.44,0,2.72,0,2.72c0,0-1.36,2.72,4.08,1.36,5.44-1.36,6.8,0,6.8,0,14.97,4.08,21.77-2.72,21.77-2.72,0,0,3.36-1.4,3.36-3.47,0-4.08-2-7.42-2-7.42,1.36-5.44-4.72-5.1-4.72-5.1"/>
    <path class="cls-14" d="M152.16,170.28c0-1.36-2.72-1.36-2.72-1.36m4.08,2.72c0-2.72-2.72-1.36-2.72-1.36m-8.17-1.36c-1.36-1.36-2.72,0-2.72,0m5.44,4.08c-1.36-1.36-4.08,0-4.08,0m-4.08,0c-1.36-1.36-2.72,0-2.72,0m13.61-2.72c-1.36-1.36-2.72,0-2.72,0m-5.44,1.36c-1.36-1.36-2.72,0-2.72,0m-9.75,1.21h0l2.72-1.36c-2.72,0-2.72,2.72-2.72,2.72m4.08-4.08h2.72c-2.72-1.36-2.72,1.36-2.72,1.36m0-1.36h0l2,3.33c-2.72-1.36-2.72,0-2.72,0m.73-3.33c-2.72,0-2.72,1.36-2.72,1.36-2-.61-1.36,1.36-1.36,1.36-2-.61-2.04,2.04-2.04,2.04,0,0-2.72,2.72,17.69,4.08,0,0,9.53,0,12.25-2.72l-.68-2.04c2-2.11-.73-2.11-.73-2.11,1.36-1.36,0-1.36,0-1.36,0-1.36-1.77-1.82-1.77-1.82,0-1.36-2.72-1.36-2.72-1.36-1.77-4.54-2.31,.46-3.67-.91s-2.72,0-2.72,0c0,0-1.36-2.72-2.72,0l-3.36,.75c-2.72-1.36-2.72,1.36-2.72,1.36-2-.61-2.72,1.36-2.72,1.36m0,5.44c-4.08-1.36-4.08,1.36-4.08,1.36m6.8-1.36c-1.36-1.36-2.72,0-2.72,0m19.05-2.72c-1.36-1.36-1.36,0-1.36,0m3.36,1.97c-1.36-2.72-2.72,0-2.72,0m-11.52-.61c-2.72-1.36-2.72,1.36-2.72,1.36m2.72-1.36l2.72,1.36c-1.36-1.36-2.72,0-2.72,0m6.8,0c0-2.72-4.08-1.36-4.08-1.36m8.17,2.72c-1.36-1.36-2.72,0-2.72,0m-5.44-2.72c-1.36-1.36-2.72,0-2.72,0m-2.72,1.36c0-1.36-2.12-.52-2.12-.52"/>
  </g>
</svg>