<?xml version="1.0" encoding="UTF-8"?>
<svg id="mashing_img" data-name="Layer 1" xmlns="http://www.w3.org/2000/svg" viewBox="0 0 420.94 137.88">
  <defs>
    <style>
      .cls-1 {
        fill: #767679;
      }

      .cls-1, .cls-2, .cls-3, .cls-4, .cls-5, .cls-6, .cls-7, .cls-8, .cls-9, .cls-10, .cls-11 {
        stroke: #231f20;
      }

      .cls-1, .cls-5 {
        stroke-width: .25px;
      }

      .cls-1, .cls-5, .cls-6, .cls-7, .cls-8, .cls-12, .cls-13, .cls-9, .cls-10, .cls-14, .cls-11 {
        stroke-miterlimit: 10;
      }

      .cls-2 {
        stroke-width: .54px;
      }

      .cls-2, .cls-3, .cls-4 {
        stroke-miterlimit: 10;
      }

      .cls-2, .cls-4, .cls-7 {
        fill: #b14a4a;
      }

      .cls-3 {
        stroke-width: .65px;
      }

      .cls-3, .cls-6 {
        fill: #c82128;
      }

      .cls-4 {
        stroke-width: .39px;
      }

      .cls-5, .cls-8, .cls-12, .cls-13, .cls-10, .cls-14, .cls-11 {
        fill: none;
      }

      .cls-6, .cls-9 {
        stroke-width: .65px;
      }

      .cls-7 {
        stroke-width: .52px;
      }

      .cls-8 {
        stroke-width: .39px;
      }

      .cls-12 {
        stroke-dasharray: 0 0 0 0 0 0 11.37 11.37;
      }

      .cls-12, .cls-13, .cls-14 {
        stroke: #e3cdad;
        stroke-width: 6px;
      }

      .cls-9 {
        fill: #a51e22;
      }

      .cls-10 {
        stroke-width: .59px;
      }

      .cls-14 {
        stroke-dasharray: 0 0 0 0 0 0 12.2 12.2;
      }

      .cls-11 {
        stroke-width: .5px;
      }

            /* these are my interactive overrides */

      #mashing_img:hover #Mashing {  transition: all 0.5s ease; transform: scale(1.1); }

    </style>

            <script>
      // select elements you want to interact with first
      let beer = document.querySelector('#mashing_img');

      // functions always go in the middle
      function logMyId() {        
        console.log(this.id);
      }

      // event handling at the bottom
      beer.addEventListener('click', logMyId);
    </script>

  </defs>
  <g id="Mashing">
    <path class="cls-6" d="M256.24,102.5c-.03,11.59-16.63,21.06-37,21.58-20.43,.52-37-9.66-37-21.58s16.56-21.58,37-21.58,37.03,9.66,37,21.58Z"/>
    <path class="cls-9" d="M257.48,97.09c-.04,12.46-16.93,22.64-37.68,23.19-20.8,.55-37.68-10.39-37.68-23.19s16.86-23.19,37.68-23.19,37.71,10.39,37.68,23.19Z"/>
    <path class="cls-1" d="M253.44,89.01s-.39-9.65-.39-15.18c0-3.32-3.43-5.12-5.53-4.43-3.32,1.11-8.77,3.83-8.77,3.83l3.07,1.53,4.3-2.08s4.72-3.26,4.72,3.37c0,5.53-.06,7.82-.06,7.82l2.66,5.16v-.02Z"/>
    <path class="cls-1" d="M184.45,88.21v-13.28c0-4.65,3.01-5.5,4.82-5.59,.76-.04,1.52,.15,2.2,.51l8.46,5.08-2.21,1.11-7.75-4.43s-3.32-1.38-3.32,5-.06,8.28-.06,8.28l-2.16,3.32Z"/>
    <path class="cls-9" d="M256.92,93.74c-.03,11.59-16.65,21.06-37.07,21.58-20.47,.52-37.07-9.66-37.07-21.58s16.6-21.58,37.07-21.58,37.11,9.66,37.07,21.58Z"/>
    <ellipse class="cls-3" cx="220.4" cy="87.12" rx="17.15" ry="30.98" transform="translate(127.05 304.95) rotate(-88.37)"/>
    <ellipse class="cls-2" cx="219.95" cy="83.95" rx="14.27" ry="25.79" transform="translate(129.78 301.42) rotate(-88.37)"/>
    <ellipse class="cls-3" cx="220.22" cy="82.01" rx="12.23" ry="22.09" transform="translate(131.98 299.81) rotate(-88.37)"/>
    <ellipse class="cls-4" cx="219.91" cy="79.75" rx="10.18" ry="18.39" transform="translate(133.94 297.29) rotate(-88.37)"/>
    <path class="cls-6" d="M227.05,53.36s-1.11-3.32-7.75-3.32c-7.75,0-6.64,5.53-6.64,5.53v22.13c0,5.53,14.38,5.53,14.38,0v-24.34"/>
    <path class="cls-11" d="M208.79,71.61s0-1.11,2.21-1.11"/>
    <path class="cls-5" d="M214.32,93.74s-.4,3.55-1.01,4.22c-1.21,1.32-1.76,5.24-1.26,5.83"/>
    <path class="cls-5" d="M193.34,95.15s.44-3.51,4.3-4.78,4.5-2.16,4.5-2.16"/>
    <path class="cls-7" d="M227.05,54.14c0,2.27-5.53,3.09-6.64,3.09s-7.75-.81-7.75-3.09,3.22-4.11,7.19-4.11,7.19,1.84,7.19,4.11Z"/>
    <ellipse class="cls-10" cx="211" cy="73.27" rx="2.21" ry="2.77"/>
    <line class="cls-8" x1="211" y1="70.51" x2="211" y2="76.04"/>
    <line class="cls-8" x1="208.79" y1="73.83" x2="213.22" y2="73.83"/>
    <path class="cls-1" d="M213.22,72.72s1.89-.58,2.21-1.11c0,0,.23-.96,0-1.11l-2.21,1.11v1.11Z"/>
  </g>
  <g id="Lines">
    <g>
      <line class="cls-13" x1="421.56" y1="20.65" x2="421.56" y2="27.29"/>
      <line class="cls-14" x1="421.56" y1="40.79" x2="421.56" y2="223"/>
    </g>
    <g>
      <line class="cls-13" x1="295.62" y1="101.97" x2="302.26" y2="101.97"/>
      <line class="cls-12" x1="314.85" y1="101.97" x2="535.08" y2="101.97"/>
    </g>
  </g>
</svg>