<?xml version="1.0" encoding="UTF-8"?>
<svg id="Layer_1" data-name="Layer 1" xmlns="http://www.w3.org/2000/svg" viewBox="0 0 841.89 192.44">
  <defs>
    <style>
      .cls-1 {
        fill: #503534;
      }

      .cls-1, .cls-2, .cls-3, .cls-4, .cls-5, .cls-6 {
        stroke: #231f20;
        stroke-miterlimit: 10;
        stroke-width: .5px;
      }

      .cls-2 {
        fill: #231f20;
      }

      .cls-3 {
        fill: #674949;
      }

      .cls-4 {
        fill: #523d3c;
      }

      .cls-5 {
        fill: #575757;
      }

      .cls-6 {
        fill: none;
      }
    </style>
  </defs>
  <g id="aging">
    <path class="cls-1" d="M420.65,18.92s8.14,24.94-1.28,47.75c0,0-1.31,7.71-13.51,8.5-5.74,.37-9.75-.55-12.38-1.64-2.49-1.03-4.41-3.08-5.33-5.6-10.6-29.09,1.57-50.93,1.57-50.93"/>
    <path class="cls-4" d="M420.63,20.03c-.19,5.5-7.81,8.84-15.76,8.63-7.94-.21-15.37-6.13-15.23-10.37,.12-3.51,7.76-6.63,15.69-6.42s15.4,4.65,15.28,8.15h.01Z"/>
    <path class="cls-3" d="M405.86,75.18c-5.74,.37-9.75-.55-12.38-1.64-2.49-1.03-4.41-3.08-5.33-5.6-10.6-29.09,1.36-50.27,1.36-50.27,0,0,1.11,7.11,8.79,9.53"/>
    <path class="cls-5" d="M423.21,34.72c-19.63,17.43-38.42-2.56-38.42-2.56l1.34-5.29s18.28,20.4,36.42,1.8l.66,6.04Z"/>
    <path class="cls-5" d="M420.63,62.1c-19.63,17.43-34.29-.91-34.29-.91l-.96-5.55s17.21,19.28,36.5,.96l-1.25,5.5h0Z"/>
    <path class="cls-6" d="M391.56,23.14s-4.99,29.2,2.2,50.42"/>
    <path class="cls-6" d="M399.03,27.88s-1.76,38.03,.22,46.94"/>
    <path class="cls-6" d="M407.8,28.64s.4,43.09-1.9,46.35"/>
    <path class="cls-6" d="M417.39,25.28s-.14,38.94-4.82,48.77"/>
    <path class="cls-1" d="M454.76,20.85s8.14,24.94-1.28,47.75c0,0-1.31,7.71-13.51,8.5-5.74,.37-9.75-.55-12.38-1.64-2.49-1.03-4.41-3.08-5.33-5.6-10.6-29.09,1.57-50.93,1.57-50.93"/>
    <path class="cls-4" d="M454.72,21.95c-.19,5.5-7.81,8.84-15.76,8.63-7.94-.21-15.37-6.13-15.23-10.37,.12-3.51,7.76-6.63,15.69-6.42,7.94,.21,15.4,4.65,15.28,8.15h.01Z"/>
    <path class="cls-3" d="M439.95,77.1c-5.74,.37-9.75-.55-12.38-1.64-2.49-1.03-4.41-3.08-5.33-5.6-10.6-29.09,1.36-50.27,1.36-50.27,0,0,1.11,7.11,8.79,9.53"/>
    <path class="cls-5" d="M457.3,36.65c-19.63,17.43-38.42-2.56-38.42-2.56l1.34-5.29s18.28,20.4,36.42,1.8l.66,6.04Z"/>
    <path class="cls-5" d="M454.72,64.01c-19.63,17.43-34.29-.91-34.29-.91l-.96-5.55s17.21,19.28,36.5,.96l-1.25,5.5h0Z"/>
    <path class="cls-6" d="M425.66,25.06s-4.99,29.2,2.2,50.42"/>
    <path class="cls-6" d="M433.14,29.8s-1.76,38.03,.22,46.94"/>
    <path class="cls-6" d="M441.9,30.56s.4,43.09-1.9,46.35"/>
    <path class="cls-6" d="M451.48,27.21s-.14,38.94-4.82,48.77"/>
  </g>
  <g id="Fermentation">
    <path class="cls-2" d="M197.65-2.86s-.19,0-.41,.08c-.31,.11-.7,.38-.7,1.03V-.64s0,1.11,2.21,1.11,2.21-1.11,2.21-1.11V-1.75s.06-1.84-1.08-1.47"/>
  </g>
</svg>