<?xml version="1.0" encoding="UTF-8"?>
<svg id="Layer_1" data-name="Layer 1" xmlns="http://www.w3.org/2000/svg" xmlns:xlink="http://www.w3.org/1999/xlink" viewBox="0 0 420.94 137.88">
  <defs>
    <style>
      .cls-1 {
        fill: url(#linear-gradient-5);
      }

      .cls-1, .cls-2, .cls-3, .cls-4, .cls-5, .cls-6, .cls-7, .cls-8, .cls-9, .cls-10, .cls-11, .cls-12, .cls-13, .cls-14, .cls-15, .cls-16, .cls-17, .cls-18 {
        stroke-miterlimit: 10;
      }

      .cls-1, .cls-2, .cls-3, .cls-4, .cls-5, .cls-6, .cls-7, .cls-8, .cls-10, .cls-11, .cls-12, .cls-13, .cls-15, .cls-17, .cls-18 {
        stroke: #231f20;
      }

      .cls-1, .cls-2, .cls-4, .cls-6, .cls-11, .cls-13, .cls-15, .cls-17, .cls-18 {
        stroke-width: .5px;
      }

      .cls-2, .cls-10 {
        fill: #231f20;
      }

      .cls-3 {
        fill: #797979;
        stroke-width: .41px;
      }

      .cls-4 {
        fill: url(#linear-gradient-3);
      }

      .cls-5 {
        fill: url(#linear-gradient-2);
        stroke-width: .25px;
      }

      .cls-6 {
        fill: #97999c;
      }

      .cls-7 {
        fill: #8a8c8e;
      }

      .cls-8 {
        fill: #7f8080;
      }

      .cls-8, .cls-12 {
        stroke-width: .26px;
      }

      .cls-9 {
        stroke-dasharray: 0 0 0 0 0 0 11.37 11.37;
      }

      .cls-9, .cls-14, .cls-16 {
        stroke: #e3cdad;
        stroke-width: 6px;
      }

      .cls-9, .cls-14, .cls-16, .cls-17 {
        fill: none;
      }

      .cls-10 {
        stroke-width: .15px;
      }

      .cls-11 {
        fill: url(#linear-gradient-4);
      }

      .cls-12 {
        fill: #b4b4b4;
      }

      .cls-13 {
        fill: #090a0a;
      }

      .cls-15 {
        fill: url(#linear-gradient);
      }

      .cls-16 {
        stroke-dasharray: 0 0 0 0 0 0 12.2 12.2;
      }

      .cls-18 {
        fill: #39372f;
      }
    </style>
    <linearGradient id="linear-gradient" x1="179.94" y1="216.44" x2="217.57" y2="216.44" gradientTransform="translate(0 320.96) scale(1 -1)" gradientUnits="userSpaceOnUse">
      <stop offset=".22" stop-color="#8a8c8e"/>
      <stop offset=".71" stop-color="#474648"/>
    </linearGradient>
    <linearGradient id="linear-gradient-2" x1="176.07" y1="221.3" x2="186.03" y2="221.3" xlink:href="#linear-gradient"/>
    <linearGradient id="linear-gradient-3" x1="213.69" y1="256.75" x2="251.87" y2="256.75" xlink:href="#linear-gradient"/>
    <linearGradient id="linear-gradient-4" x1="220.05" y1="229.13" x2="231.95" y2="229.13" xlink:href="#linear-gradient"/>
    <linearGradient id="linear-gradient-5" x1="234.16" y1="230.19" x2="248.55" y2="230.19" xlink:href="#linear-gradient"/>
  </defs>
  <g id="Fermentation">
    <path class="cls-15" d="M179.94,117.32v-32.09s23.24,17.7,37.62,0v28.77c-14.38,19.92-37.62,3.32-37.62,3.32"/>
    <path class="cls-6" d="M217.57,85.23c0,5.19-9.03,8.85-18.81,8.85s-18.81-4.77-18.81-9.96,9.03-8.85,18.81-8.85,18.81,4.77,18.81,9.96Z"/>
    <path class="cls-3" d="M213.69,84.03c0,4.28-7.29,7.29-15.18,7.29s-15.18-3.93-15.18-8.2,7.29-7.29,15.18-7.29,15.18,3.93,15.18,8.2Z"/>
    <path class="cls-13" d="M187.69,116.22c-1.11,2.21-2.21,0-2.21,0l-11.07,6.64h-1.11c-1.11-1.11,0-2.21,0-2.21l12.17-6.64s0-1.11,1.11-1.11,1.11,2.21,1.11,2.21v1.11Z"/>
    <line class="cls-17" x1="179.94" y1="119.54" x2="179.94" y2="125.07"/>
    <path class="cls-18" d="M192.67,79.5v2.72c0,.35,.09,.7,.28,1,.59,.94,2.26,2.78,6.36,2.78s5.71-1.76,6.33-2.72c.21-.33,.31-.72,.31-1.11v-2.26"/>
    <path class="cls-18" d="M205.95,79.9c0,1.87-3.19,3.19-6.64,3.19s-6.64-1.72-6.64-3.59,3.19-3.19,6.64-3.19,6.64,1.72,6.64,3.59Z"/>
    <path class="cls-8" d="M195.8,77.79v1.39c0,.18,.04,.35,.14,.51,.3,.49,1.16,1.43,3.28,1.43s2.94-.91,3.25-1.39c.11-.17,.15-.37,.15-.56v-1.16"/>
    <path class="cls-12" d="M202.63,77.99c0,.96-1.64,1.64-3.42,1.64s-3.42-.89-3.42-1.85,1.64-1.64,3.42-1.64,3.42,.89,3.42,1.85Z"/>
    <line class="cls-17" x1="182.16" y1="118.43" x2="182.16" y2="123.96"/>
    <path class="cls-2" d="M179.94,123.96s-1.11,0-1.11,2.21,3.32,1.11,3.32,1.11c0,0,1.11,0,1.11-2.21s-1.11-1.11-1.11-1.11"/>
    <path class="cls-17" d="M179.94,124.73s0,.33,1.11,.33,1.29-1.15,1.29-1.15"/>
    <line class="cls-17" x1="197.65" y1="123.41" x2="197.65" y2="135.03"/>
    <line class="cls-17" x1="199.86" y1="135.03" x2="199.86" y2="123.96"/>
    <path class="cls-2" d="M197.65,135.03s-.19,0-.41,.08c-.31,.11-.7,.38-.7,1.03v1.11s0,1.11,2.21,1.11,2.21-1.11,2.21-1.11v-1.11s.06-1.84-1.08-1.47"/>
    <path class="cls-17" d="M198.75,136.13s-1.11,0-1.11-1.11"/>
    <path class="cls-17" d="M199.86,135.03s0,1.11-1.11,1.11"/>
    <path class="cls-2" d="M217.57,123.96s1.11,0,1.11,1.11v1.11s0,1.11-1.11,1.11h-2.21s-1.11,0-1.11-1.11v-1.11s0-1.11,1.11-1.11"/>
    <path class="cls-17" d="M215.35,125.07v-8.85c0,.55,2.21-1.66,2.21-1.66v10.51h-2.21Z"/>
    <path class="cls-5" d="M177.18,118.98v-29.86c0-2.04,.73-4.04,2.17-5.5,.01-.01,.03-.03,.04-.04,1.11-1.11,5.53-4.43,5.53,0h1.11c0-2.15-1.39-2.91-2.37-3.18-.53-.14-1.08-.08-1.57,.17l-2.85,1.43c-.74,.37-1.38,.92-1.83,1.62-.62,.97-1.34,2.5-1.34,4.39v30.98h1.11Z"/>
    <path class="cls-8" d="M200.41,78.04v-17.7c-1.25,.64-2.93,.35-3.32,0v17.7"/>
    <path class="cls-10" d="M176.07,96.85l-1.11-1.11s-1.11,0-1.11,1.11l2.21,2.21"/>
    <path class="cls-10" d="M175.97,99.95l-1.11-1.11s-1.11,0-1.11,1.11l2.21,2.21"/>
    <path class="cls-4" d="M251.87,75.83v-30.43c-5.53,7.75-16.6,8.85-16.6,8.85-16.6,1.11-21.58-8.3-21.58-8.3v26.56s3.87,10.51,18.26,10.51c15.49,0,19.92-8.85,19.92-8.85"/>
    <polygon class="cls-17" points="251.87 107.36 251.87 75.28 249.65 79.15 249.65 107.92 251.87 107.36"/>
    <line class="cls-17" x1="234.21" y1="109.18" x2="249.65" y2="100.73"/>
    <line class="cls-17" x1="234.16" y1="111.79" x2="249.65" y2="102.94"/>
    <line class="cls-17" x1="220.88" y1="102.94" x2="231.95" y2="109.58"/>
    <line class="cls-17" x1="220.88" y1="105.15" x2="231.95" y2="111.79"/>
    <path class="cls-11" d="M231.95,100.73c-1.11,0-2.21-1.11-2.21-1.11l-9.68-16.69s7.47,2.3,11.89,2.3"/>
    <path class="cls-1" d="M234.16,85.23c9.96,0,14.38-4.43,14.38-4.43l-7.91,12.15-4.26,6.66s-1.11,1.11-2.21,1.11"/>
    <polygon class="cls-17" points="231.95 115.11 231.95 84.68 234.16 85.23 234.16 115.11 231.95 115.11"/>
    <line class="cls-17" x1="249.65" y1="98.51" x2="240.55" y2="93.27"/>
    <line class="cls-17" x1="239.7" y1="95.19" x2="248.55" y2="100.73"/>
    <line class="cls-17" x1="226.62" y1="94.21" x2="220.88" y2="96.3"/>
    <ellipse class="cls-6" cx="233.06" cy="44.29" rx="19.36" ry="10.51"/>
    <ellipse class="cls-12" cx="198.75" cy="60.34" rx="1.66" ry="1.11"/>
    <path class="cls-2" d="M251.87,75.28c-5.53,15.49-29.88,8.85-29.88,8.85-7.47-4.51-7.75-9.96-7.75-9.96,0,0,3.32,8.85,19.92,8.85,13.32,0,18.53-10.08,17.7-7.75Z"/>
    <path class="cls-7" d="M250.74,69.7c.04,4.43-2.21,7.77-4.36,7.79,0,0-3.32,.03-3.35-3.29-.02-2.76,1.04-7.76,4.36-7.79,1.11,0,3.33,1.07,3.35,3.29Z"/>
    <line class="cls-17" x1="243.03" y1="73.1" x2="250.75" y2="70.81"/>
    <line class="cls-17" x1="246.38" y1="77.49" x2="247.39" y2="66.41"/>
    <polygon class="cls-17" points="220.88 81.91 220.88 108.47 218.67 106.26 218.67 80.81 220.88 81.91"/>
    <path class="cls-2" d="M252.2,106.51s1.11,.04,1.06,1.15l-.04,1.11s-.04,1.11-1.15,1.06l-2.21-.09s-1.11-.04-1.06-1.15l.04-1.11s.04-1.11,1.15-1.06"/>
    <path class="cls-2" d="M234.16,115.11s1.11,0,1.11,1.11v1.11s0,1.11-1.11,1.11h-2.21s-1.11,0-1.11-1.11v-1.11s0-1.11,1.11-1.11"/>
    <path class="cls-2" d="M220.88,106.26s1.11,0,1.11,1.11v1.11s0,1.11-1.11,1.11h-2.21s-1.11,0-1.11-1.11v-1.11s0-1.11,1.11-1.11"/>
    <line class="cls-17" x1="220.88" y1="94.09" x2="225.32" y2="92.26"/>
    <path class="cls-3" d="M248.55,42.78c0,4.28-7.29,7.29-15.18,7.29s-15.18-3.93-15.18-8.2,7.29-7.29,15.18-7.29,15.18,3.93,15.18,8.2Z"/>
    <path class="cls-18" d="M227.52,38.25v2.72c0,.35,.09,.7,.28,1,.59,.94,2.26,2.78,6.36,2.78s5.71-1.76,6.33-2.72c.21-.33,.31-.72,.31-1.11v-2.26"/>
    <path class="cls-18" d="M240.8,38.65c0,1.87-3.19,3.19-6.64,3.19s-6.64-1.72-6.64-3.59,3.19-3.19,6.64-3.19,6.64,1.72,6.64,3.59Z"/>
    <path class="cls-8" d="M230.66,36.54v1.39c0,.18,.04,.35,.14,.51,.3,.49,1.16,1.43,3.28,1.43s2.94-.91,3.25-1.39c.11-.17,.15-.37,.15-.56v-1.16"/>
    <path class="cls-12" d="M237.48,36.74c0,.96-1.64,1.64-3.42,1.64s-3.42-.89-3.42-1.85,1.64-1.64,3.42-1.64,3.42,.89,3.42,1.85Z"/>
    <path class="cls-8" d="M235.27,36.79V19.09c-1.25,.64-2.93,.35-3.32,0v17.7"/>
    <ellipse class="cls-12" cx="233.61" cy="19.09" rx="1.66" ry="1.11"/>
    <path class="cls-7" d="M215.02,109.67c.7,4.37-1.04,8.01-3.15,8.34,0,0-3.28,.52-3.81-2.76-.43-2.71-.13-7.82,3.15-8.34,1.1-.18,3.45,.56,3.81,2.76Z"/>
    <line class="cls-17" x1="207.89" y1="114.16" x2="215.2" y2="110.75"/>
    <line class="cls-17" x1="211.87" y1="118.01" x2="211.21" y2="106.91"/>
  </g>
  <g id="Lines">
    <g>
      <line class="cls-16" x1="421.56" y1="-97.1" x2="421.56" y2="85.11"/>
      <line class="cls-14" x1="421.56" y1="91.86" x2="421.56" y2="98.5"/>
    </g>
    <g>
      <line class="cls-14" x1="294.93" y1="44.36" x2="301.57" y2="44.36"/>
      <line class="cls-9" x1="314.16" y1="44.36" x2="534.39" y2="44.36"/>
    </g>
  </g>
</svg>