<?xml version="1.0" encoding="UTF-8"?>
<svg id="beerProcessmobile" xmlns="http://www.w3.org/2000/svg" xmlns:xlink="http://www.w3.org/1999/xlink" viewBox="0 0 285 1870">
  <defs>
    <style>
      .cls-1 {
        fill: #646262;
      }

      .cls-1, .cls-2, .cls-3, .cls-4, .cls-5, .cls-6, .cls-7, .cls-8, .cls-9, .cls-10, .cls-11, .cls-12, .cls-13, .cls-14, .cls-15, .cls-16, .cls-17, .cls-18, .cls-19, .cls-20, .cls-21, .cls-22, .cls-23, .cls-24, .cls-25, .cls-26, .cls-27, .cls-28, .cls-29, .cls-30, .cls-31, .cls-32, .cls-33, .cls-34, .cls-35, .cls-36, .cls-37, .cls-38, .cls-39, .cls-40, .cls-41, .cls-42, .cls-43, .cls-44, .cls-45, .cls-46, .cls-47, .cls-48, .cls-49, .cls-50, .cls-51, .cls-52, .cls-53, .cls-54, .cls-55, .cls-56, .cls-57, .cls-58, .cls-59 {
        stroke-miterlimit: 10;
      }

      .cls-1, .cls-2, .cls-3, .cls-4, .cls-5, .cls-6, .cls-7, .cls-8, .cls-9, .cls-11, .cls-12, .cls-13, .cls-14, .cls-15, .cls-16, .cls-17, .cls-18, .cls-19, .cls-20, .cls-21, .cls-22, .cls-23, .cls-24, .cls-25, .cls-26, .cls-27, .cls-28, .cls-29, .cls-30, .cls-31, .cls-35, .cls-36, .cls-37, .cls-38, .cls-39, .cls-40, .cls-41, .cls-42, .cls-43, .cls-44, .cls-45, .cls-47, .cls-48, .cls-49, .cls-50, .cls-51, .cls-52, .cls-53, .cls-54, .cls-55, .cls-56, .cls-57, .cls-58, .cls-59 {
        stroke: #231f20;
      }

      .cls-1, .cls-13, .cls-14, .cls-23, .cls-33, .cls-35, .cls-39, .cls-41, .cls-43, .cls-44 {
        stroke-width: .68px;
      }

      .cls-60 {
        letter-spacing: -.15em;
      }

      .cls-2 {
        fill: url(#linear-gradient-30);
      }

      .cls-2, .cls-3, .cls-12, .cls-16, .cls-17, .cls-19, .cls-20, .cls-25, .cls-27, .cls-31, .cls-36, .cls-37, .cls-45, .cls-48, .cls-50, .cls-51, .cls-52, .cls-53, .cls-56, .cls-59 {
        stroke-width: .5px;
      }

      .cls-61 {
        fill: url(#linear-gradient-2);
      }

      .cls-3 {
        fill: #38362e;
      }

      .cls-4, .cls-21 {
        stroke-width: .59px;
      }

      .cls-4, .cls-22, .cls-37, .cls-39, .cls-57 {
        fill: #808285;
      }

      .cls-5 {
        stroke-width: .52px;
      }

      .cls-5, .cls-24, .cls-58 {
        fill: #b04949;
      }

      .cls-6 {
        stroke-width: .59px;
      }

      .cls-6, .cls-10, .cls-14, .cls-15, .cls-32, .cls-34, .cls-38, .cls-46, .cls-53 {
        fill: none;
      }

      .cls-62 {
        fill: #674443;
      }

      .cls-63 {
        fill: url(#linear-gradient-17);
      }

      .cls-7 {
        fill: #787878;
        stroke-width: .41px;
      }

      .cls-64 {
        fill: #028840;
      }

      .cls-8 {
        fill: #f7d92a;
        stroke-width: .2px;
      }

      .cls-9 {
        stroke-width: .47px;
      }

      .cls-9, .cls-17 {
        fill: #efe994;
      }

      .cls-10, .cls-32 {
        stroke: #e3ccad;
        stroke-width: 6px;
      }

      .cls-11 {
        fill: #757679;
      }

      .cls-11, .cls-15, .cls-42 {
        stroke-width: .25px;
      }

      .cls-65 {
        fill: url(#linear-gradient-15);
      }

      .cls-12 {
        fill: #8c8e90;
      }

      .cls-13 {
        fill: #454544;
      }

      .cls-66 {
        fill: url(#linear-gradient-18);
      }

      .cls-16, .cls-47 {
        fill: #231f20;
      }

      .cls-18 {
        fill: #a41e21;
      }

      .cls-18, .cls-40 {
        stroke-width: .65px;
      }

      .cls-19 {
        fill: #513c3b;
      }

      .cls-67 {
        fill: url(#linear-gradient-14);
      }

      .cls-68 {
        fill: url(#linear-gradient-20);
      }

      .cls-69 {
        fill: url(#linear-gradient-6);
      }

      .cls-70 {
        fill: #5b3b3b;
      }

      .cls-20 {
        fill: #4f3434;
      }

      .cls-71 {
        opacity: .97;
      }

      .cls-21 {
        fill: #444545;
      }

      .cls-22 {
        stroke-width: .37px;
      }

      .cls-72 {
        letter-spacing: -.07em;
      }

      .cls-73 {
        fill: url(#linear-gradient-11);
      }

      .cls-23, .cls-49, .cls-55 {
        fill: #7f7f7f;
      }

      .cls-24, .cls-38 {
        stroke-width: .39px;
      }

      .cls-25 {
        fill: #e74d43;
      }

      .cls-74 {
        fill: #86c0e8;
      }

      .cls-26, .cls-43 {
        fill: #353535;
      }

      .cls-26, .cls-54, .cls-57 {
        stroke-width: .69px;
      }

      .cls-75 {
        fill: url(#linear-gradient-10);
      }

      .cls-27 {
        fill: #97999c;
      }

      .cls-76 {
        letter-spacing: 0em;
      }

      .cls-28 {
        fill: #8a8c8e;
      }

      .cls-29 {
        fill: #af2829;
        opacity: .8;
        stroke-width: .55px;
      }

      .cls-77 {
        fill: url(#linear-gradient-16);
      }

      .cls-78 {
        fill: #005fac;
      }

      .cls-30 {
        fill: #b3b3b3;
      }

      .cls-30, .cls-55 {
        stroke-width: .26px;
      }

      .cls-79 {
        fill: #e3ccad;
        font-family: LEMONMILK-Bold, 'LEMON MILK';
        font-size: 13px;
        font-weight: 700;
      }

      .cls-31 {
        fill: #e52625;
      }

      .cls-32 {
        stroke-dasharray: 0 0 12.67 12.67;
      }

      .cls-33 {
        stroke: #020202;
      }

      .cls-33, .cls-44 {
        fill: #a57243;
      }

      .cls-80 {
        fill: url(#linear-gradient-21);
      }

      .cls-34 {
        stroke-width: 1.22px;
      }

      .cls-34, .cls-46 {
        stroke: #331b1a;
        stroke-linecap: round;
      }

      .cls-35 {
        fill: #4d4c4c;
      }

      .cls-36 {
        fill: #666;
      }

      .cls-81 {
        fill: url(#linear-gradient-25);
      }

      .cls-82 {
        fill: url(#linear-gradient-5);
      }

      .cls-83 {
        letter-spacing: -.02em;
      }

      .cls-40 {
        fill: #c82127;
      }

      .cls-41 {
        fill: #996632;
      }

      .cls-84 {
        fill: url(#linear-gradient-7);
      }

      .cls-42 {
        fill: url(#linear-gradient-27);
      }

      .cls-85 {
        fill: #243d97;
      }

      .cls-86 {
        fill: url(#linear-gradient-24);
      }

      .cls-87 {
        fill: url(#linear-gradient-9);
      }

      .cls-88 {
        fill: url(#linear-gradient-22);
      }

      .cls-45 {
        fill: #565656;
      }

      .cls-89 {
        fill: url(#linear-gradient-3);
      }

      .cls-90 {
        letter-spacing: -.1em;
      }

      .cls-46 {
        stroke-width: 1.57px;
      }

      .cls-91 {
        fill: url(#linear-gradient);
      }

      .cls-47 {
        stroke-width: .15px;
      }

      .cls-48 {
        fill: #070808;
      }

      .cls-49 {
        stroke-width: .26px;
      }

      .cls-50 {
        fill: #ded4a8;
      }

      .cls-51 {
        fill: url(#linear-gradient-29);
      }

      .cls-52 {
        fill: url(#linear-gradient-26);
      }

      .cls-54 {
        fill: #505251;
      }

      .cls-92 {
        fill: url(#linear-gradient-23);
      }

      .cls-93 {
        fill: url(#linear-gradient-19);
      }

      .cls-94 {
        fill: url(#linear-gradient-4);
      }

      .cls-56 {
        fill: #664848;
      }

      .cls-95 {
        fill: url(#linear-gradient-8);
      }

      .cls-58 {
        stroke-width: .54px;
      }

      .cls-59 {
        fill: url(#linear-gradient-28);
      }

      .cls-96 {
        fill: url(#linear-gradient-12);
      }

      .cls-97 {
        fill: url(#linear-gradient-13);
      }

       /* these are my interactive overrides */
      #Malting { transition: all 0.5s ease; transform-origin: 50%;}

      #beerProcessmobile:hover #Malting { fill: blue; }

      #beerProcessmobile:hover #Malting { fill: red; transform: rotate(15deg); }
    </style>

        <script>
      // select elements you want to interact with first
      let beer = document.querySelector('#beerProcessmobile');

      // functions always go in the middle
      function logMyId() {        
        console.log(this.id);
      }

      // event handling at the bottom
      beer.addEventListener('click', logMyId);
    </script>
    <linearGradient id="linear-gradient" x1="63.75" y1="134.66" x2="80.63" y2="134.66" gradientTransform="translate(10.86 6.28) rotate(2.32)" gradientUnits="userSpaceOnUse">
      <stop offset=".1" stop-color="#fff200"/>
      <stop offset=".85" stop-color="#e0a233"/>
    </linearGradient>
    <linearGradient id="linear-gradient-2" x1="61.2" y1="137.85" x2="67.78" y2="137.85" gradientTransform="translate(10.86 6.28) rotate(2.32)" gradientUnits="userSpaceOnUse">
      <stop offset=".1" stop-color="#fff200"/>
      <stop offset=".85" stop-color="#e0a233"/>
    </linearGradient>
    <linearGradient id="linear-gradient-3" x1="66.27" y1="128.67" x2="77.34" y2="128.67" gradientTransform="translate(1.28 10.88) rotate(3.43) scale(.96 .99) skewX(2.25)" xlink:href="#linear-gradient-2"/>
    <linearGradient id="linear-gradient-4" x1="53.62" y1="137.5" x2="62.77" y2="137.5" xlink:href="#linear-gradient-2"/>
    <linearGradient id="linear-gradient-5" x1="58.57" y1="141.38" x2="63.51" y2="141.38" xlink:href="#linear-gradient-2"/>
    <linearGradient id="linear-gradient-6" x1="50.54" y1="142.93" x2="57.87" y2="142.93" xlink:href="#linear-gradient-2"/>
    <linearGradient id="linear-gradient-7" x1="54.26" y1="145.03" x2="59.2" y2="145.03" xlink:href="#linear-gradient-2"/>
    <linearGradient id="linear-gradient-8" x1="47.99" y1="149.75" x2="53.29" y2="149.75" xlink:href="#linear-gradient-2"/>
    <linearGradient id="linear-gradient-9" x1="51.76" y1="149.48" x2="56.73" y2="149.48" xlink:href="#linear-gradient-2"/>
    <linearGradient id="linear-gradient-10" x1="48.58" y1="154.55" x2="53.39" y2="154.55" xlink:href="#linear-gradient-2"/>
    <linearGradient id="linear-gradient-11" x1="48.24" y1="112.75" x2="69.84" y2="112.75" gradientTransform="translate(26.35 13.02) rotate(5.31)" xlink:href="#linear-gradient"/>
    <linearGradient id="linear-gradient-12" x1="44.98" y1="116.83" x2="53.4" y2="116.83" gradientTransform="translate(26.35 13.02) rotate(5.31)" xlink:href="#linear-gradient-2"/>
    <linearGradient id="linear-gradient-13" x1="48.67" y1="106.58" x2="62.82" y2="106.58" gradientTransform="translate(16.54 17.12) rotate(6.42) scale(.96 .99) skewX(2.25)" xlink:href="#linear-gradient-2"/>
    <linearGradient id="linear-gradient-14" x1="35.29" y1="116.39" x2="47" y2="116.39" gradientTransform="translate(26.35 13.02) rotate(5.31)" xlink:href="#linear-gradient-2"/>
    <linearGradient id="linear-gradient-15" x1="41.63" y1="121.35" x2="47.94" y2="121.35" gradientTransform="translate(26.35 13.02) rotate(5.31)" xlink:href="#linear-gradient-2"/>
    <linearGradient id="linear-gradient-16" x1="31.36" y1="123.32" x2="40.73" y2="123.32" gradientTransform="translate(26.35 13.02) rotate(5.31)" xlink:href="#linear-gradient-2"/>
    <linearGradient id="linear-gradient-17" x1="36.12" y1="126.02" x2="42.43" y2="126.02" gradientTransform="translate(26.35 13.02) rotate(5.31)" xlink:href="#linear-gradient-2"/>
    <linearGradient id="linear-gradient-18" x1="28.09" y1="132.05" x2="34.88" y2="132.05" gradientTransform="translate(26.35 13.02) rotate(5.31)" xlink:href="#linear-gradient-2"/>
    <linearGradient id="linear-gradient-19" x1="32.91" y1="131.71" x2="39.27" y2="131.71" gradientTransform="translate(26.35 13.02) rotate(5.31)" xlink:href="#linear-gradient-2"/>
    <linearGradient id="linear-gradient-20" x1="28.86" y1="138.19" x2="35" y2="138.19" gradientTransform="translate(26.35 13.02) rotate(5.31)" xlink:href="#linear-gradient-2"/>
    <linearGradient id="linear-gradient-21" x1="-75.33" y1="499.35" x2="-90.91" y2="499.17" gradientTransform="translate(-294.68 372.67) rotate(72.99) scale(1 -1)" gradientUnits="userSpaceOnUse">
      <stop offset=".22" stop-color="#85c441"/>
      <stop offset=".71" stop-color="#028840"/>
    </linearGradient>
    <linearGradient id="linear-gradient-22" x1="40.34" y1="495.56" x2="27.4" y2="502.17" gradientTransform="translate(-225.49 470.99) rotate(45.28) scale(1 -1)" gradientUnits="userSpaceOnUse">
      <stop offset="0" stop-color="#85c441"/>
      <stop offset="1" stop-color="#028840"/>
    </linearGradient>
    <linearGradient id="linear-gradient-23" x1="-139.81" y1="468.65" x2="-155.87" y2="464.66" gradientTransform="translate(-310.69 318.89) rotate(86.26) scale(1 -1)" gradientUnits="userSpaceOnUse">
      <stop offset=".03" stop-color="#85c441"/>
      <stop offset=".67" stop-color="#028840"/>
    </linearGradient>
    <linearGradient id="linear-gradient-24" x1="152.94" y1="135.8" x2="147.93" y2="122.05" gradientTransform="translate(10.86 6.28) rotate(2.32)" xlink:href="#linear-gradient-22"/>
    <linearGradient id="linear-gradient-25" x1="151.33" y1="130.61" x2="145.88" y2="115.63" gradientTransform="translate(10.86 6.28) rotate(2.32)" xlink:href="#linear-gradient-22"/>
    <linearGradient id="linear-gradient-26" x1="111.49" y1="1280.65" x2="145.49" y2="1280.65" gradientUnits="userSpaceOnUse">
      <stop offset=".22" stop-color="#8a8c8e"/>
      <stop offset=".71" stop-color="#464547"/>
    </linearGradient>
    <linearGradient id="linear-gradient-27" x1="107.99" y1="1276.25" x2="116.99" y2="1276.25" xlink:href="#linear-gradient-26"/>
    <linearGradient id="linear-gradient-28" x1="141.99" y1="1244.22" x2="176.49" y2="1244.22" xlink:href="#linear-gradient-26"/>
    <linearGradient id="linear-gradient-29" x1="147.74" y1="1269.18" x2="158.49" y2="1269.18" xlink:href="#linear-gradient-26"/>
    <linearGradient id="linear-gradient-30" x1="160.49" y1="1268.22" x2="173.49" y2="1268.22" xlink:href="#linear-gradient-26"/>
  </defs>
  <g id="Layer_1" data-name="Layer 1">
    <rect class="cls-29" x="2.5" width="285" height="1870"/>
  </g>
  <g id="Line">
    <g>
      <line class="cls-10" x1="145" y1="277.5" x2="145" y2="283.5"/>
      <line class="cls-32" x1="145" y1="296.17" x2="145" y2="315.17"/>
      <line class="cls-10" x1="145" y1="321.5" x2="145" y2="327.5"/>
    </g>
    <g>
      <line class="cls-10" x1="145.5" y1="570.5" x2="145.5" y2="576.5"/>
      <line class="cls-32" x1="145.5" y1="589.17" x2="145.5" y2="608.17"/>
      <line class="cls-10" x1="145.5" y1="614.5" x2="145.5" y2="620.5"/>
    </g>
    <g>
      <line class="cls-10" x1="145.5" y1="875.5" x2="145.5" y2="881.5"/>
      <line class="cls-32" x1="145.5" y1="894.17" x2="145.5" y2="913.17"/>
      <line class="cls-10" x1="145.5" y1="919.5" x2="145.5" y2="925.5"/>
    </g>
    <g>
      <line class="cls-10" x1="145.5" y1="1117.5" x2="145.5" y2="1123.5"/>
      <line class="cls-32" x1="145.5" y1="1136.17" x2="145.5" y2="1155.17"/>
      <line class="cls-10" x1="145.5" y1="1161.5" x2="145.5" y2="1167.5"/>
    </g>
    <g>
      <line class="cls-10" x1="145.5" y1="1377.5" x2="145.5" y2="1383.5"/>
      <line class="cls-32" x1="145.5" y1="1396.17" x2="145.5" y2="1415.17"/>
      <line class="cls-10" x1="145.5" y1="1421.5" x2="145.5" y2="1427.5"/>
    </g>
    <g>
      <line class="cls-10" x1="146" y1="1640.5" x2="146" y2="1646.5"/>
      <line class="cls-32" x1="146" y1="1659.17" x2="146" y2="1678.17"/>
      <line class="cls-10" x1="146" y1="1684.5" x2="146" y2="1690.5"/>
    </g>
  </g>
  <g id="Raw_Material" data-name="Raw Material">
    <path class="cls-91" d="m70.77,143.76c11.95-2.9,13.43,2.23,13.43,2.23l1.76-1.62c-11.6-5.54-16.87-.68-16.87-.68"/>
    <path class="cls-61" d="m71.77,141.72s2.53,3.1.45,6.87c-2.08,3.77-5.97,2.81-5.97,2.81,0,0-.1-4.11,1.18-6.14,1.35-2.14,4.34-3.55,4.34-3.55Z"/>
    <path class="cls-89" d="m73.02,142.94s-1.73-3.61-5.87-3.39c-4.14.21-4.82,4.09-4.82,4.09,0,0,3.58,1.88,5.87,1.62,2.41-.27,4.82-2.32,4.82-2.32Z"/>
    <path class="cls-94" d="m68,146.39s-1.43-2.98-4.99-2.74c-3.56.24-4.2,3.49-4.2,3.49,0,0,3.04,1.51,5.02,1.26,2.08-.26,4.18-2.01,4.18-2.01Z"/>
    <path class="cls-82" d="m67.84,145.54s-3.27.51-4.07,3.98,2.12,5.03,2.12,5.03c0,0,2.33-2.47,2.66-4.43.35-2.06-.71-4.58-.71-4.58Z"/>
    <path class="cls-69" d="m63,148.66s-2.86-1.67-5.67.52-1.53,5.24-1.53,5.24c0,0,3.37-.45,4.86-1.76,1.57-1.38,2.34-4,2.34-4Z"/>
    <path class="cls-84" d="m63.39,149.01s-3.27.51-4.07,3.98c-.8,3.47,2.12,5.03,2.12,5.03,0,0,2.33-2.47,2.66-4.43.35-2.06-.71-4.58-.71-4.58Z"/>
    <path class="cls-95" d="m57.93,153.75s-3.31-.14-4.78,3.11c-1.47,3.25,1.09,5.35,1.09,5.35,0,0,2.77-1.97,3.48-3.83.75-1.96.2-4.63.2-4.63Z"/>
    <path class="cls-87" d="m57.54,153.25s3.24.69,3.84,4.21-2.4,4.9-2.4,4.9c0,0-2.19-2.6-2.41-4.58-.23-2.08.97-4.53.97-4.53Z"/>
    <path class="cls-75" d="m56.44,158.18s-3.13,1.08-3.31,4.64,2.98,4.58,2.98,4.58c0,0,1.86-2.85,1.84-4.83-.02-2.09-1.51-4.38-1.51-4.38Z"/>
    <path class="cls-73" d="m66.07,130.31c15.45-2.9,17,3.75,17,3.75l2.35-1.95c-14.45-7.85-21.5-2-21.5-2"/>
    <path class="cls-96" d="m67.48,127.77s3.03,4.13.12,8.8-7.81,3.2-7.81,3.2c0,0,.15-5.25,1.92-7.76,1.87-2.64,5.78-4.24,5.78-4.24Z"/>
    <path class="cls-97" d="m68.99,129.41s-1.97-4.72-7.27-4.73c-5.3,0-6.42,4.9-6.42,4.9,0,0,4.44,2.64,7.38,2.46,3.1-.19,6.31-2.64,6.31-2.64Z"/>
    <path class="cls-67" d="m62.36,133.48s-1.63-3.91-6.19-3.84c-4.56.07-5.6,4.18-5.6,4.18,0,0,3.79,2.14,6.32,1.95,2.67-.2,5.47-2.29,5.47-2.29Z"/>
    <path class="cls-65" d="m62.21,132.39s-4.21.43-5.47,4.81c-1.26,4.38,2.37,6.57,2.37,6.57,0,0,3.14-3,3.7-5.48.59-2.61-.6-5.9-.6-5.9Z"/>
    <path class="cls-77" d="m55.82,136.06s-3.54-2.32-7.28.29-2.3,6.59-2.3,6.59c0,0,4.33-.35,6.33-1.93,2.1-1.66,3.25-4.96,3.25-4.96Z"/>
    <path class="cls-63" d="m56.29,136.53s-4.21.43-5.47,4.81,2.37,6.57,2.37,6.57c0,0,3.14-3,3.7-5.48.59-2.61-.6-5.9-.6-5.9Z"/>
    <path class="cls-66" d="m49.01,142.22s-4.21-.4-6.31,3.65c-2.09,4.05,1.04,6.91,1.04,6.91,0,0,3.67-2.33,4.7-4.65,1.09-2.45.57-5.9.57-5.9Z"/>
    <path class="cls-93" d="m48.54,141.55s4.09,1.1,4.63,5.63-3.39,6.1-3.39,6.1c0,0-2.62-3.47-2.77-6.01-.16-2.67,1.54-5.72,1.54-5.72Z"/>
    <path class="cls-68" d="m46.81,147.78s-4.07,1.17-4.53,5.7,3.49,6.05,3.49,6.05c0,0,2.56-3.51,2.67-6.05.11-2.68-1.63-5.7-1.63-5.7Z"/>
    <path class="cls-64" d="m145.31,136s-3.06-5.24-11.35-5.58c-1.38-.06.13-3.23.13-3.23,0,0,6.74-1.01,10.7,4.01,3.96,5.03.51,4.8.51,4.8Z"/>
    <path class="cls-80" d="m165.93,152.92s.84-6.61-3.33-11.32-11.46.19-11.46.19c0,0-1.67,6.98,3.86,9.04,2.61.97,10.94,2.09,10.94,2.09Z"/>
    <path class="cls-88" d="m145.88,140.79s-4.59,5.11,5.29,8.97c2.86,1.12,5.42.86,6.75.27,2.57-1.13,3.8-3.45,3.8-3.45,0,0-4.33-3.73-8.14-7.57-4.47-4.51-7.7,1.78-7.7,1.78Z"/>
    <path class="cls-92" d="m142.59,133.1s-3.8,4.41-2.01,11.06c.64,2.38,2.92,3.35,4.31,3.78,2.68.83,5.87-.09,5.87-.09,0,0-.83-5.66-1.18-11.05-.41-6.33-6.98-3.7-6.98-3.7Z"/>
    <path class="cls-86" d="m147.41,137.2s4.95-4.48,12.62-2.62c2.75.67,3.92,3.25,4.46,4.83,1.03,3.05.07,6.73.07,6.73,0,0-6.51-.79-12.7-1.04-7.27-.29-4.44-7.9-4.44-7.9Z"/>
    <path class="cls-81" d="m145.05,130.96s5.39-4.89,13.76-2.86c2.99.73,4.28,3.55,4.86,5.27,1.12,3.33.07,7.33.07,7.33,0,0-7.1-.86-13.84-1.13-7.92-.32-4.84-8.61-4.84-8.61Z"/>
    <path class="cls-85" d="m134.34,188.41l-6.42,21.15s-3.24,10.81,2.08,16.7c3.36,3.73,13.63,4.16,16.7-2.08,3.88-7.86-2.08-16.7-2.08-16.7l-10.29-19.08Z"/>
    <path class="cls-78" d="m135.34,194.87l-4.63,15.26s-2.33,7.8,1.5,12.05c2.43,2.69,9.83,3,12.05-1.5,2.8-5.67-1.5-12.05-1.5-12.05l-7.42-13.76Z"/>
    <path class="cls-74" d="m136.97,200.47l-1.43,5.69s-.72,2.91.76,4.4c.94.95,3.67.93,4.4-.76.93-2.13-.76-4.4-.76-4.4l-2.97-4.93Z"/>
    <path class="cls-70" d="m221.2,225.61s-6.71-.27-7.73-8.38c-1.06-8.43,7.53-19.87,7.53-19.87,0,0,2.85-3.92,5.37.22,2.52,4.14,6.11,15.04,4.5,21.7s-9.67,6.33-9.67,6.33Z"/>
    <path class="cls-46" d="m220.59,199.78c-1.89,5-5.82,18.36-2.65,23.56"/>
    <path class="cls-46" d="m225.65,199.98c1.48,5.13,3.75,19.05.17,23.97"/>
    <path class="cls-62" d="m234.15,224.59s-5.23-.21-6.03-6.54c-.82-6.58,5.87-15.49,5.87-15.49,0,0,2.22-3.06,4.19.17,1.97,3.23,4.77,11.73,3.51,16.92-1.26,5.19-7.54,4.94-7.54,4.94Z"/>
    <path class="cls-34" d="m233.67,204.45c-1.48,3.9-4.54,14.32-2.06,18.37"/>
    <path class="cls-34" d="m237.62,204.61c1.16,4,2.92,14.85.13,18.69"/>
  </g>
  <g id="Beer">
    <image width="220" height="420" transform="translate(103 362.5) scale(.4)" xlink:href="beer_Nobckd.png"/>
  </g>
  <g id="Malting">
    <polygon class="cls-57" points="195.41 745.06 169.55 760.03 169.55 734.17 195.41 719.2 195.41 745.06"/>
    <polygon class="cls-39" points="195.41 719.2 169.55 734.17 144.42 721.31 170.28 710.42 195.41 719.2"/>
    <polygon class="cls-39" points="169.55 734.17 169.55 760.03 145.05 745.06 145.05 721.92 169.55 734.17"/>
    <path class="cls-21" d="m189.96,739.61c0,2.72-3.05,9.53-6.8,9.53-2.72,0-6.8-3.21-6.8-8.85s3.05-10.21,6.8-10.21,6.8,3.89,6.8,9.53Z"/>
    <path class="cls-4" d="m187.92,739.61c0,2.14-2.13,7.49-4.76,7.49-1.91,0-4.76-2.52-4.76-6.95s2.13-8.02,4.76-8.02,4.76,3.06,4.76,7.49Z"/>
    <path class="cls-22" d="m186.56,739.61c0,1.36-1.52,4.76-3.4,4.76-1.36,0-3.4-1.6-3.4-4.42s1.52-5.1,3.4-5.1,3.4,1.94,3.4,4.76Z"/>
    <polygon class="cls-54" points="195.41 750.04 169.55 765.01 169.55 759.57 195.41 744.6 195.41 750.04"/>
    <path class="cls-21" d="m191.5,747.07l-8.59-5.12c-.24-.14-.43-.38-.51-.65-.02-.07-.04-.14-.06-.21-.48-1.89,1.63-3.39,3.32-2.43l7.3,4.17.46.26s2.47,1.45.6,3.58c-.63.72-2,.43-2.51.41Z"/>
    <polyline class="cls-43" points="166.19 765.54 166.83 720.56 149.14 711.03 138.97 698.17 138.97 715.87 136.25 715.87 136.25 696.81 132.81 691.98 167.55 711.78 206.3 690.62 200.22 696.81 200.22 753.29 198.86 752.61 198.86 699.53 187.97 710.42 168.92 721.31 168.92 766.9"/>
    <polygon class="cls-1" points="132.17 691.37 171.64 669.59 207.02 690.01 167.55 711.78 132.17 691.37"/>
    <polygon class="cls-14" points="136.25 691.37 171.64 672.32 201.58 690.01 167.55 709.06 149.62 698.92 136.25 691.37"/>
    <polygon class="cls-35" points="187.24 711.03 187.24 719.2 168.98 728.65 168.92 721.31 187.24 711.03"/>
    <path class="cls-21" d="m194.73,745.06c0,2.04-1.97,2.04-2.72,2.04s-1.36-1.59-1.36-2.72c0-1.36,1.97-1.36,2.72-1.36s1.36.91,1.36,2.04Z"/>
    <polygon class="cls-26" points="195.41 752.09 169.55 767.06 169.55 761.61 195.41 746.64 195.41 752.09"/>
    <polygon class="cls-54" points="168.19 764.67 145.05 750.5 145.05 745.06 168.19 759.23 168.19 764.67"/>
    <polygon class="cls-26" points="168.19 766.72 145.05 753.11 145.05 747.66 168.19 761.27 168.19 766.72"/>
    <polygon class="cls-35" points="166.83 720.56 166.83 728.72 149.14 719.2 149.14 711.03 166.83 720.56"/>
    <polygon class="cls-13" points="171.64 672.32 170.91 686.54 149.62 698.92 136.25 691.37 171.64 672.32"/>
    <polygon class="cls-23" points="170.91 686.54 188.6 697.42 201.58 690.01 171.64 672.32 170.91 686.54"/>
    <path class="cls-41" d="m96.79,771.66s-2.72,6.8-2.72,8.17c0,0-2.72,4.08,0,4.08,0,0,3.88,1.47,5.44,4.08,2,3.33,21.77,1.36,23.14,0s4.08-1.36,4.08-1.36c0,0,1.36,1.36,1.36-1.36s-2.81-12-2.09-14.16"/>
    <path class="cls-41" d="m145.78,777.11s8.8-.75,10.16,1.97c.85,1.7,2.23.22,3.15-1.14.62-.92.82-2.05.55-3.12l-.98-3.9c2.1-5.24,1.04-10.62,0-13.61-.33-.96-1.57-7.17-1.36-8.17.84-4.01,1.09-14.41,0-17.69,0,0-1,2.88-5.26,4.84s-8.11,4.53-17.76,1.88-11,.08-11,.08v21.77l2.7,12.79s11.63,7.01,19.8,4.29"/>
    <path class="cls-33" d="m97.42,770.91s-4.11,7.26-4.11,8.62c0,0-2.72,4.08,0,4.08,0,0,3.86,1.49,5.44,4.08,1.39,2.27,6.83,2.27,10.91,2.27"/>
    <polyline class="cls-44" points="140.28 777.79 134.17 776.36 123.28 771.59 123.28 736.89 131.65 737.54"/>
    <path class="cls-41" d="m119.92,759.41s.28,0,.74.05c1.36.15,4.25.73,5.62,3.05.28.48.3,1.06.08,1.57-.28.64-.48,1.81.37,3.49,1.36,2.72-1.36,4.08-1.36,4.08-8.17,8.17-27.22,1.36-28.58,0s0-10.89,0-10.89c4.08-4.08,13.61-2.72,13.61-2.72l11.62,1.55"/>
    <path class="cls-14" d="m98.15,762.14s1.36,5.44,13.61,5.44c0,0,5.44,0,8.17-1.36s4.08-1.36,4.08-1.36"/>
    <path class="cls-8" d="m104.35,763.95c-.11.32-1.75-.24-1.64-.57m3.3-.13c.03.34,1.76.16,1.72-.17m10.14-4.34,5.44,5.44v-.29s-.16-.8-.16-.8l-1.2-1.63c0-1.36-2.72-1.36-2.72-1.36.73-1.97-1.36-1.36-1.36-1.36m4.08,4.08c0-1.36-2.72-1.36-2.72-1.36m1.36,1.36-2.72-4.08c-1.36-1.36-3.19-.33-3.19-.33-1.11-.94-1.9.06-1.9.06,0,0-1.71-1.09-3.07.27h-1.36c-2.72-1.36-2.72,1.36-2.72,1.36-2-.61-1.64.82-1.64.82-1.35-.19-1.54,1.16-1.54,1.16l-.91-.62c-1.36,0-1.36,1.36-1.36,1.36,0,0-2.09-2.11-1.8-.15s5.15,3.49,9.24,4.85,16.33-2.72,16.33-2.72m-11.52-3.33c-1.36-1.36-2.72,0-2.72,0m5.44,4.08c-1.36-1.36-4.08,0-4.08,0m-4.08,0c-1.36-1.36-2.72,0-2.72,0m13.61-2.72c-1.36-1.36-2.72,0-2.72,0m-5.44,1.36c-1.36-1.36-2.72,0-2.72,0"/>
    <path class="cls-41" d="m140.12,716.49s-10.67-.62-16.12,4.82c0,0-2,.75-1.36,4.08,0,0,1.36,2.72,0,2.72s-2.72,5.44,0,5.44,0,2.72,0,2.72c0,0-1.36,2.72,4.08,1.36s6.8,0,6.8,0c14.97,4.08,21.77-2.72,21.77-2.72,0,0,3.36-1.4,3.36-3.47,0-4.08-2-7.42-2-7.42,1.36-5.44-4.72-5.1-4.72-5.1"/>
    <path class="cls-8" d="m150.77,720.78c0-1.36-2.72-1.36-2.72-1.36m4.08,2.72c0-2.72-2.72-1.36-2.72-1.36m-8.17-1.36c-1.36-1.36-2.72,0-2.72,0m5.44,4.08c-1.36-1.36-4.08,0-4.08,0m-4.08,0c-1.36-1.36-2.72,0-2.72,0m13.61-2.72c-1.36-1.36-2.72,0-2.72,0m-5.44,1.36c-1.36-1.36-2.72,0-2.72,0m-9.75,1.21,0,0,2.72-1.36c-2.72,0-2.72,2.72-2.72,2.72m4.08-4.08,0,0,2.72,0c-2.72-1.36-2.72,1.36-2.72,1.36m0-1.36,0,0,2,3.33c-2.72-1.36-2.72,0-2.72,0m.73-3.33c-2.72,0-2.72,1.36-2.72,1.36-2-.61-1.36,1.36-1.36,1.36-2-.61-2.04,2.04-2.04,2.04,0,0-2.72,2.72,17.69,4.08,0,0,9.53,0,12.25-2.72l-.68-2.04c2-2.11-.73-2.11-.73-2.11,1.36-1.36,0-1.36,0-1.36,0-1.36-1.77-1.82-1.77-1.82,0-1.36-2.72-1.36-2.72-1.36-1.77-4.54-2.31.46-3.67-.91s-2.72,0-2.72,0c0,0-1.36-2.72-2.72,0l-3.36.75c-2.72-1.36-2.72,1.36-2.72,1.36-2-.61-2.72,1.36-2.72,1.36m0,5.44c-4.08-1.36-4.08,1.36-4.08,1.36m6.8-1.36c-1.36-1.36-2.72,0-2.72,0m19.05-2.72c-1.36-1.36-1.36,0-1.36,0m3.36,1.97c-1.36-2.72-2.72,0-2.72,0m-11.52-.61c-2.72-1.36-2.72,1.36-2.72,1.36m2.72-1.36,2.72,1.36c-1.36-1.36-2.72,0-2.72,0m6.8,0c0-2.72-4.08-1.36-4.08-1.36m8.17,2.72c-1.36-1.36-2.72,0-2.72,0m-5.44-2.72c-1.36-1.36-2.72,0-2.72,0m-2.72,1.36c0-1.36-2.12-.52-2.12-.52"/>
  </g>
  <g id="Mashing">
    <path class="cls-40" d="m180.39,1028.79c-.03,10.47-15.03,19.03-33.44,19.5-18.46.47-33.44-8.73-33.44-19.5s14.97-19.5,33.44-19.5,33.47,8.73,33.44,19.5Z"/>
    <path class="cls-18" d="m181.51,1023.89c-.04,11.26-15.3,20.46-34.05,20.96-18.8.5-34.05-9.39-34.05-20.96s15.24-20.96,34.05-20.96,34.08,9.39,34.05,20.96Z"/>
    <path class="cls-11" d="m177.86,1016.6s-.35-8.72-.35-13.72c0-3-3.1-4.63-5-4-3,1-7.93,3.46-7.93,3.46l2.77,1.38,3.89-1.88s4.27-2.95,4.27,3.05c0,5-.05,7.07-.05,7.07l2.4,4.66Z"/>
    <path class="cls-11" d="m115.51,1015.88v-12c0-4.2,2.72-4.97,4.36-5.05.69-.04,1.37.14,1.99.46l7.65,4.59-2,1-7-4s-3-1.25-3,4.52-.05,7.48-.05,7.48l-1.95,3Z"/>
    <path class="cls-18" d="m181.01,1020.88c-.03,10.47-15.05,19.03-33.5,19.5-18.5.47-33.5-8.73-33.5-19.5s15-19.5,33.5-19.5,33.54,8.73,33.5,19.5Z"/>
    <ellipse class="cls-40" cx="148.01" cy="1014.88" rx="15.5" ry="28" transform="translate(-870.66 1133.99) rotate(-88.37)"/>
    <ellipse class="cls-58" cx="147.61" cy="1012.01" rx="12.9" ry="23.31" transform="translate(-868.19 1130.8) rotate(-88.37)"/>
    <ellipse class="cls-40" cx="147.85" cy="1010.26" rx="11.05" ry="19.96" transform="translate(-866.21 1129.34) rotate(-88.37)"/>
    <ellipse class="cls-24" cx="147.56" cy="1008.22" rx="9.2" ry="16.62" transform="translate(-864.45 1127.06) rotate(-88.37)"/>
    <path class="cls-40" d="m154.01,984.38s-1-3-7-3c-7,0-6,5-6,5v20c0,5,13,5,13,0v-22"/>
    <path class="cls-53" d="m137.51,1000.88s0-1,2-1"/>
    <path class="cls-15" d="m142.51,1020.88s-.36,3.21-.91,3.81c-1.09,1.19-1.59,4.74-1.14,5.27"/>
    <path class="cls-15" d="m123.56,1022.15s.4-3.17,3.89-4.32,4.07-1.95,4.07-1.95"/>
    <path class="cls-5" d="m154.01,985.09c0,2.05-5,2.79-6,2.79s-7-.73-7-2.79,2.91-3.71,6.5-3.71,6.5,1.66,6.5,3.71Z"/>
    <ellipse class="cls-6" cx="139.51" cy="1002.38" rx="2" ry="2.5"/>
    <line class="cls-38" x1="139.51" y1="999.88" x2="139.51" y2="1004.88"/>
    <line class="cls-38" x1="137.51" y1="1002.88" x2="141.51" y2="1002.88"/>
    <path class="cls-11" d="m141.51,1001.88s1.71-.52,2-1c0,0,.21-.87,0-1l-2,1v1Z"/>
  </g>
  <g id="Fermentation" class="cls-71">
    <path class="cls-52" d="m111.49,1292.22v-29s21,16,34,0v26c-13,18-34,3-34,3"/>
    <path class="cls-27" d="m145.49,1263.22c0,4.69-8.16,8-17,8s-17-4.31-17-9,8.16-8,17-8,17,4.31,17,9Z"/>
    <path class="cls-7" d="m141.99,1262.13c0,3.87-6.59,6.59-13.72,6.59s-13.72-3.55-13.72-7.41,6.59-6.59,13.72-6.59,13.72,3.55,13.72,7.41Z"/>
    <path class="cls-48" d="m118.49,1291.22c-1,2-2,0-2,0l-10,6h-1c-1-1,0-2,0-2l11-6s0-1,1-1,1,2,1,2v1Z"/>
    <line class="cls-50" x1="111.49" y1="1294.22" x2="111.49" y2="1299.22"/>
    <path class="cls-3" d="m122.99,1258.04v2.46c0,.32.08.63.25.9.53.85,2.04,2.51,5.75,2.51s5.16-1.59,5.72-2.46c.19-.3.28-.65.28-1v-2.04"/>
    <path class="cls-3" d="m134.99,1258.4c0,1.69-2.88,2.88-6,2.88s-6-1.55-6-3.24,2.88-2.88,6-2.88,6,1.55,6,3.24Z"/>
    <path class="cls-55" d="m125.82,1256.49v1.26c0,.16.04.32.13.46.27.44,1.05,1.29,2.96,1.29s2.66-.82,2.94-1.26c.1-.15.14-.33.14-.51v-1.05"/>
    <path class="cls-30" d="m131.99,1256.68c0,.87-1.48,1.48-3.09,1.48s-3.09-.8-3.09-1.67,1.48-1.48,3.09-1.48,3.09.8,3.09,1.67Z"/>
    <line class="cls-50" x1="113.49" y1="1293.22" x2="113.49" y2="1298.22"/>
    <path class="cls-16" d="m111.49,1298.22s-1,0-1,2,3,1,3,1c0,0,1,0,1-2s-1-1-1-1"/>
    <path class="cls-53" d="m111.49,1298.92s0,.3,1,.3,1.17-1.04,1.17-1.04"/>
    <line class="cls-50" x1="127.49" y1="1297.72" x2="127.49" y2="1308.22"/>
    <line class="cls-50" x1="129.49" y1="1308.22" x2="129.49" y2="1298.22"/>
    <path class="cls-16" d="m127.49,1308.22s-.17,0-.37.07c-.28.1-.63.34-.63.93v1s0,1,2,1,2-1,2-1v-1s.05-1.66-.98-1.33"/>
    <path class="cls-53" d="m128.49,1309.22s-1,0-1-1"/>
    <path class="cls-53" d="m129.49,1308.22s0,1-1,1"/>
    <path class="cls-16" d="m145.49,1298.22s1,0,1,1v1s0,1-1,1h-2s-1,0-1-1v-1s0-1,1-1"/>
    <path class="cls-53" d="m143.49,1299.22v-8c0,.5,2-1.5,2-1.5v9.5h-2Z"/>
    <path class="cls-42" d="m108.99,1293.72v-26.99c0-1.84.66-3.65,1.96-4.97.01-.01.03-.03.04-.04,1-1,5-4,5,0h1c0-1.94-1.26-2.63-2.14-2.87-.48-.13-.98-.07-1.42.15l-2.58,1.29c-.67.33-1.25.83-1.65,1.46-.56.88-1.21,2.26-1.21,3.97v28s1,0,1,0Z"/>
    <path class="cls-49" d="m129.99,1256.72v-16c-1.13.58-2.65.32-3,0v16"/>
    <path class="cls-47" d="m107.99,1273.72l-1-1s-1,0-1,1l2,2"/>
    <path class="cls-47" d="m107.9,1276.53l-1-1s-1,0-1,1l2,2"/>
    <path class="cls-59" d="m176.49,1254.72v-27.5c-5,7-15,8-15,8-15,1-19.5-7.5-19.5-7.5v24s3.5,9.5,16.5,9.5c14,0,18-8,18-8"/>
    <polygon class="cls-53" points="176.49 1283.22 176.49 1254.22 174.49 1257.72 174.49 1283.72 176.49 1283.22"/>
    <line class="cls-53" x1="160.53" y1="1284.87" x2="174.49" y2="1277.22"/>
    <line class="cls-53" x1="160.49" y1="1287.22" x2="174.49" y2="1279.22"/>
    <line class="cls-53" x1="148.49" y1="1279.22" x2="158.49" y2="1285.22"/>
    <line class="cls-53" x1="148.49" y1="1281.22" x2="158.49" y2="1287.22"/>
    <path class="cls-51" d="m158.49,1277.22c-1,0-2-1-2-1l-8.75-15.08s6.75,2.08,10.75,2.08"/>
    <path class="cls-2" d="m160.49,1263.22c9,0,13-4,13-4l-7.15,10.98-3.85,6.02s-1,1-2,1"/>
    <polygon class="cls-53" points="158.49 1290.22 158.49 1262.72 160.49 1263.22 160.49 1290.22 158.49 1290.22"/>
    <line class="cls-53" x1="174.49" y1="1275.22" x2="166.26" y2="1270.48"/>
    <line class="cls-53" x1="165.49" y1="1272.22" x2="173.49" y2="1277.22"/>
    <line class="cls-53" x1="153.67" y1="1271.33" x2="148.49" y2="1273.22"/>
    <ellipse class="cls-27" cx="159.49" cy="1226.22" rx="17.5" ry="9.5"/>
    <ellipse class="cls-30" cx="128.49" cy="1240.72" rx="1.5" ry="1"/>
    <path class="cls-16" d="m176.49,1254.22c-5,14-27,8-27,8-6.75-4.08-7-9-7-9,0,0,3,8,18,8,12.04,0,16.75-9.11,16-7Z"/>
    <path class="cls-28" d="m175.47,1249.19c.04,4-2,7.02-3.94,7.04,0,0-3,.03-3.03-2.97-.02-2.49.94-7.01,3.94-7.04,1,0,3.01.97,3.03,2.97Z"/>
    <line class="cls-53" x1="168.5" y1="1252.25" x2="175.48" y2="1250.19"/>
    <line class="cls-53" x1="171.53" y1="1256.22" x2="172.44" y2="1246.21"/>
    <polygon class="cls-53" points="148.49 1260.22 148.49 1284.22 146.49 1282.22 146.49 1259.22 148.49 1260.22"/>
    <path class="cls-16" d="m176.79,1282.45s1,.04.96,1.04l-.04,1s-.04,1-1.04.96l-2-.08s-1-.04-.96-1.04l.04-1s.04-1,1.04-.96"/>
    <path class="cls-16" d="m160.49,1290.22s1,0,1,1v1s0,1-1,1h-2s-1,0-1-1v-1s0-1,1-1"/>
    <path class="cls-16" d="m148.49,1282.22s1,0,1,1v1s0,1-1,1h-2s-1,0-1-1v-1s0-1,1-1"/>
    <line class="cls-16" x1="148.49" y1="1271.22" x2="152.5" y2="1269.57"/>
    <path class="cls-7" d="m173.49,1224.85c0,3.87-6.59,6.59-13.72,6.59s-13.72-3.55-13.72-7.41,6.59-6.59,13.72-6.59,13.72,3.55,13.72,7.41Z"/>
    <path class="cls-3" d="m154.49,1220.76v2.46c0,.32.08.63.25.9.53.85,2.04,2.51,5.75,2.51s5.16-1.59,5.72-2.46c.19-.3.28-.65.28-1v-2.04"/>
    <path class="cls-3" d="m166.49,1221.12c0,1.69-2.88,2.88-6,2.88s-6-1.55-6-3.24,2.88-2.88,6-2.88,6,1.55,6,3.24Z"/>
    <path class="cls-55" d="m157.32,1219.21v1.26c0,.16.04.32.13.46.27.44,1.05,1.29,2.96,1.29s2.66-.82,2.94-1.26c.1-.15.14-.33.14-.51v-1.05"/>
    <path class="cls-30" d="m163.49,1219.4c0,.87-1.48,1.48-3.09,1.48s-3.09-.8-3.09-1.67,1.48-1.48,3.09-1.48,3.09.8,3.09,1.67Z"/>
    <path class="cls-49" d="m161.49,1219.44v-16c-1.13.58-2.65.32-3,0v16"/>
    <ellipse class="cls-30" cx="159.99" cy="1203.44" rx="1.5" ry="1"/>
    <path class="cls-28" d="m143.19,1285.3c.63,3.95-.94,7.24-2.85,7.54,0,0-2.96.47-3.44-2.49-.39-2.45-.12-7.07,2.85-7.54.99-.16,3.12.51,3.44,2.49Z"/>
    <line class="cls-53" x1="136.75" y1="1289.36" x2="143.35" y2="1286.29"/>
    <line class="cls-53" x1="140.34" y1="1292.84" x2="139.75" y2="1282.81"/>
  </g>
  <g id="Boiling">
    <path class="cls-17" d="m155.46,1504.68v39s1,2,2,0v-5l-.02-1.77-1.98-2.23"/>
    <ellipse class="cls-17" cx="171.46" cy="1534.18" rx="16" ry="8.5"/>
    <ellipse class="cls-9" cx="171.46" cy="1533.18" rx="16" ry="7.5"/>
    <path class="cls-17" d="m178.46,1511.68l1.99-.49v27.15c.01.74-.58,1.34-1.32,1.34h-.66v-28Z"/>
    <ellipse class="cls-17" cx="171.46" cy="1504.18" rx="16" ry="8.5"/>
    <path class="cls-17" d="m187.46,1504.68v39c-1,2-2,0-2,0v-5l2-3"/>
    <path class="cls-17" d="m172.46,1543.18v9.5c-1,2-2,0-2,0v-10l1.94-.07.06.57Z"/>
    <path class="cls-31" d="m155.46,1504.68c1,4,6,6,6,6l-.03,28.15s-5.97-2.15-5.97-4.15"/>
    <path class="cls-31" d="m180.46,1539.68v-28s6-2,7-6l-.36,28.89s-2.64,4.11-6.64,5.11Z"/>
    <path class="cls-31" d="m178.46,1539.68v-28c-7,2-15,0-15,0l-.16,27.97s9.16,2.03,15.16.03Z"/>
    <path class="cls-53" d="m167.46,1481.68v13c-1,1-2,4-2,4"/>
    <path class="cls-31" d="m176.46,1481.68v12.47s5.4,1.88,7.88,5.69c.93,1.42.78,3.3-.24,4.66l-.14.19c-1.37,1.83-3.29,3.19-5.48,3.86-5.39,1.64-13.67,1.73-19.02-2.86-3.59-3.08-2-6.73,1-9,2.84-2.15,7-3,7-3v-12"/>
    <ellipse class="cls-25" cx="171.96" cy="1481.18" rx="4.5" ry="2.5"/>
    <path class="cls-37" d="m176.46,1490.68c-4,4-9,0-9,0v-3s4,4,9,0v3Z"/>
    <path class="cls-53" d="m186.46,1529.68s-2,0-2-2,2-2,2-2c0,0,1,0,1,2,0,2-1,2-1,2Z"/>
    <polygon class="cls-17" points="161.46 1510.68 161.43 1538.83 163.08 1539.63 163.46 1511.68 161.46 1510.68"/>
    <path class="cls-17" d="m99.46,1528.15v39s1,2,2,0v-5l-.02-1.77-1.98-2.23"/>
    <ellipse class="cls-17" cx="115.46" cy="1557.65" rx="16" ry="8.5"/>
    <ellipse class="cls-9" cx="115.46" cy="1556.65" rx="16" ry="7.5"/>
    <path class="cls-17" d="m122.46,1535.15l1.99-.49v27.15c.01.74-.58,1.34-1.32,1.34h-.66v-28Z"/>
    <ellipse class="cls-17" cx="115.46" cy="1527.65" rx="16" ry="8.5"/>
    <polyline class="cls-37" points="165.46 1529.15 165.46 1512.15 164.46 1512.15 164.46 1528.15"/>
    <polyline class="cls-36" points="165.51 1515.62 186.46 1542.15 186.46 1540.15 165.46 1514.15"/>
    <polyline class="cls-12" points="134.46 1547.15 165.46 1529.15 164.46 1528.15 164.46 1528.15 157.46 1525.15 131.46 1539.15 131.46 1548.15 134.46 1547.15"/>
    <polyline class="cls-37" points="131.46 1550.15 166.46 1530.15 165.46 1529.15 131.46 1548.15 131.46 1550.15"/>
    <line class="cls-53" x1="170.46" y1="1543.15" x2="170.46" y2="1552.15"/>
    <path class="cls-17" d="m131.46,1528.15v39c-1,2-2,0-2,0v-5l2-3"/>
    <path class="cls-17" d="m116.46,1566.65v9.5c-1,2-2,0-2,0v-10l1.94-.07.06.57Z"/>
    <path class="cls-31" d="m99.46,1528.15c1,4,6,6,6,6l-.03,28.15s-5.97-2.15-5.97-4.15"/>
    <path class="cls-31" d="m124.46,1563.15v-28s6-2,7-6l-.36,28.89s-2.64,4.11-6.64,5.11Z"/>
    <path class="cls-31" d="m122.46,1563.15v-28c-7,2-15,0-15,0l-.16,27.97s9.16,2.03,15.16.03Z"/>
    <path class="cls-53" d="m111.46,1505.15v13c-1,1-2,4-2,4"/>
    <path class="cls-31" d="m120.46,1505.15v13s5.4,1.35,7.88,5.16c.93,1.42.78,3.3-.24,4.66l-.14.19c-1.37,1.83-3.29,3.19-5.48,3.86-5.39,1.64-13.67,1.73-19.02-2.86-3.59-3.08-2-6.73,1-9,2.84-2.15,7-3,7-3v-12"/>
    <ellipse class="cls-25" cx="115.96" cy="1504.65" rx="4.5" ry="2.5"/>
    <path class="cls-37" d="m120.46,1514.15c-4,4-9,0-9,0v-3s4,4,9,0v3Z"/>
    <path class="cls-37" d="m125.73,1520.65l29.73-16.5s1,0,1,1l-28.93,16.69"/>
    <path class="cls-37" d="m131.52,1530.65l12.94-7.5s2-1,2-5c0,0-1-3,0-4,.84-.84,7.32-4.5,9.38-5.65.39-.22.62-.62.62-1.07v-.38c0-.4-.43-.66-.79-.46l-8.21,4.56s-4,2-3,6-1,5-1,5l-12,7"/>
    <polyline class="cls-37" points="164.46 1513.15 131.52 1532.68 131.46 1534.15 164.46 1514.15"/>
    <polygon class="cls-37" points="142.57 1527.53 142.46 1541.65 141.46 1542.15 141.46 1528.15 142.57 1527.53"/>
    <polygon class="cls-37" points="133.46 1547.15 133.16 1533.14 132.41 1533.57 132.46 1547.65 133.46 1547.15"/>
    <path class="cls-53" d="m130.46,1553.15s-2,0-2-2,2-2,2-2c0,0,1,0,1,2s-1,2-1,2Z"/>
    <path class="cls-53" d="m187.46,1514.15s-1,0-1,2,1,2,1,2c0,0,1,0,1-2s-1-2-1-2Z"/>
    <line class="cls-53" x1="187.46" y1="1516.15" x2="187.46" y2="1515.15"/>
    <path class="cls-53" d="m187.46,1518.65s-1,0-1,2,1,2,1,2c0,0,1,0,1-2s-1-2-1-2Z"/>
    <line class="cls-53" x1="187.46" y1="1520.65" x2="187.46" y2="1519.65"/>
    <line class="cls-53" x1="153.97" y1="1506.67" x2="153.97" y2="1507.66"/>
    <polyline class="cls-53" points="172.46 1541.15 171.46 1539.24 172.47 1541.61"/>
    <polygon class="cls-17" points="105.46 1534.15 105.43 1562.3 107.09 1563.1 107.46 1535.15 105.46 1534.15"/>
    <polygon class="cls-36" points="187.24 1546.49 183.24 1545.49 164.46 1528.49 164.46 1532.15 183.24 1548.49 187.24 1549.49 187.24 1546.49"/>
    <polygon class="cls-36" points="156.74 1536.58 164.74 1532.58 168.74 1533.58 160.74 1537.58 156.74 1536.58"/>
    <polygon class="cls-36" points="173.46 1550.15 181.46 1546.15 185.46 1547.15 177.46 1551.15 173.46 1550.15"/>
    <polygon class="cls-36" points="168.46 1547.22 176.46 1543.22 180.46 1544.22 172.46 1548.22 168.46 1547.22"/>
    <polygon class="cls-36" points="164.15 1543.81 172.15 1539.81 176.15 1540.81 168.15 1544.81 164.15 1543.81"/>
    <polygon class="cls-36" points="160.46 1540.22 168.46 1536.22 172.46 1537.22 164.46 1541.22 160.46 1540.22"/>
    <polygon class="cls-36" points="177.46 1551.15 173.46 1550.15 155.46 1533.15 155.46 1536.15 173.46 1553.15 177.46 1554.15 177.46 1551.15"/>
    <polygon class="cls-37" points="155.56 1534.58 155.46 1519.65 154.46 1520.15 154.56 1535.08 155.56 1534.58"/>
  </g>
  <g id="Aging">
    <path class="cls-20" d="m145.64,1732.35s7.36,22.54-1.16,43.15c0,0-1.18,6.97-12.21,7.68-5.19.33-8.81-.5-11.19-1.48-2.25-.93-3.99-2.78-4.82-5.06-9.58-26.29,1.42-46.03,1.42-46.03"/>
    <path class="cls-19" d="m145.61,1733.35c-.17,4.97-7.06,7.99-14.24,7.8-7.18-.19-13.89-5.54-13.76-9.37.11-3.17,7.01-5.99,14.18-5.8s13.92,4.2,13.81,7.37Z"/>
    <path class="cls-56" d="m132.27,1783.18c-5.19.33-8.81-.5-11.19-1.48-2.25-.93-3.99-2.78-4.82-5.06-9.58-26.29,1.23-45.43,1.23-45.43,0,0,1,6.43,7.94,8.61"/>
    <path class="cls-45" d="m147.95,1746.63c-17.74,15.75-34.72-2.31-34.72-2.31l1.21-4.78s16.52,18.44,32.91,1.63l.6,5.46Z"/>
    <path class="cls-45" d="m145.61,1771.36c-17.74,15.75-30.99-.82-30.99-.82l-.87-5.02s15.55,17.42,32.99.87l-1.13,4.97Z"/>
    <path class="cls-53" d="m119.34,1736.16s-4.51,26.39,1.99,45.57"/>
    <path class="cls-53" d="m126.1,1740.44s-1.59,34.37.2,42.42"/>
    <path class="cls-53" d="m134.02,1741.13s.36,38.94-1.72,41.89"/>
    <path class="cls-53" d="m142.69,1738.1s-.13,35.19-4.36,44.08"/>
    <path class="cls-20" d="m176.45,1734.09s7.36,22.54-1.16,43.15c0,0-1.18,6.97-12.21,7.68-5.19.33-8.81-.5-11.19-1.48-2.25-.93-3.99-2.78-4.82-5.06-9.58-26.29,1.42-46.03,1.42-46.03"/>
    <path class="cls-19" d="m176.42,1735.09c-.17,4.97-7.06,7.99-14.24,7.8s-13.89-5.54-13.76-9.37c.11-3.17,7.01-5.99,14.18-5.8,7.18.19,13.92,4.2,13.81,7.37Z"/>
    <path class="cls-56" d="m163.08,1784.92c-5.19.33-8.81-.5-11.19-1.48-2.25-.93-3.99-2.78-4.82-5.06-9.58-26.29,1.23-45.43,1.23-45.43,0,0,1,6.43,7.94,8.61"/>
    <path class="cls-45" d="m178.76,1748.36c-17.74,15.75-34.72-2.31-34.72-2.31l1.21-4.78s16.52,18.44,32.91,1.63l.6,5.46Z"/>
    <path class="cls-45" d="m176.42,1773.1c-17.74,15.75-30.99-.82-30.99-.82l-.87-5.02s15.55,17.42,32.99.87l-1.13,4.97Z"/>
    <path class="cls-53" d="m150.15,1737.9s-4.51,26.39,1.99,45.57"/>
    <path class="cls-53" d="m156.91,1742.18s-1.59,34.37.2,42.42"/>
    <path class="cls-53" d="m164.83,1742.87s.36,38.94-1.72,41.89"/>
    <path class="cls-53" d="m173.5,1739.83s-.13,35.19-4.36,44.08"/>
  </g>
  <g id="Labels">
    <text class="cls-79" transform="translate(87.37 74.71)"><tspan x="0" y="0">R</tspan><tspan class="cls-60" x="9.62" y="0">A</tspan><tspan x="18.79" y="0">W M</tspan><tspan class="cls-90" x="48.86" y="0">A</tspan><tspan x="58.67" y="0">TERIALS</tspan></text>
    <text class="cls-79" transform="translate(110.99 1072.09) rotate(.11)"><tspan x="0" y="0">M</tspan><tspan class="cls-83" x="12.75" y="0">A</tspan><tspan x="23.5" y="0">SHING</tspan></text>
    <text class="cls-79" transform="translate(94.87 1339.49) rotate(-.1)"><tspan x="0" y="0">FERMEN</tspan><tspan class="cls-90" x="57.07" y="0">TA</tspan><tspan x="73.76" y="0">TION</tspan></text>
    <text class="cls-79" transform="translate(115.57 822.37) rotate(.62)"><tspan x="0" y="0">MA</tspan><tspan class="cls-60" x="23.82" y="0">L</tspan><tspan class="cls-76" x="29.7" y="0">TING</tspan></text>
    <text class="cls-79" transform="translate(115.87 1601.7) rotate(-.37)"><tspan x="0" y="0">BOILING</tspan></text>
    <text class="cls-79" transform="translate(120.98 1812.15) rotate(.89)"><tspan class="cls-72" x="0" y="0">A</tspan><tspan class="cls-76" x="10.12" y="0">GING</tspan></text>
  </g>
</svg>