<!-- Generator: Adobe Illustrator 27.2.0, SVG Export Plug-In . SVG Version: 6.00 Build 0)  -->
<svg version="1.1" id="Layer_1" xmlns="http://www.w3.org/2000/svg" xmlns:xlink="http://www.w3.org/1999/xlink" x="0px" y="0px" viewBox="0 0 431.5 521.2" style="enable-background:new 0 0 431.5 521.2;" xml:space="preserve" width="431.5" height="521.2">
<style type="text/css">
	.st0{stroke:#FFFFFF;stroke-miterlimit:10;}
	.st1{display:none;}
	.st2{display:inline;fill:#822021;}
	.st3{fill:#AE2929;}
	.st4{fill:#E2CBAC;}
	.st5{fill:#822021;}
	.st6{fill:none;}
	.st7{display:none;fill:#822021;}
	.st8{font-family:'MADEDillan';}
	.st9{font-size:126px;}
	.st10{display:none;fill:#AE2929;}
	.st11{display:none;fill:#E2CBAC;}
</style>
<path class="st0" d="M217.2,0" />
<g id="Layer_2" class="st1">
	
		<image style="display:inline;overflow:visible;" width="512" height="512" xlink:href="../../../Users/camil/Downloads/almond.png" transform="matrix(0.6367 0 0 0.6228 57 1.9506)">
	</image>
</g>
<g id="Layer_4">
</g>
<g id="Layer_5" class="st1">
	<path class="st2" d="M254.9,246.8l-3.9,0.1c-2,0-2.8,2.5-1.3,3.8c4.5,3.7,12.9,7.3,22.6-4.3c2.1-2.6,3.1-6,2.7-9.3   c-0.4-2.9-1.5-6.7-4.3-11.1c-0.9-1.4,0.1-3.2,1.7-3.3c6.8-0.2,21.3,1.2,28.8,17c9.5,20-9.7,45.4-14,50.2   c-9.9,11.1-18,17.7-29.8,23.3c-12.4,5.9-23.9,8.1-39.8,8.4c-1.2,0-2.2-0.9-2.2-2.1l-2.1-302.9c-0.1-8,14,0.9,21.1,5.8   c25.2,17.6,48.7,64.5,53.7,77.2c0.1,0.2,0.2,0.3,0.2,0.5c5,11.8,6.1,20.7,8.2,26.7c1.8,5.3,4,4,13,4.5c0.1,0,0.2,0,0.3,0   c2.6-0.1,44-0.1,47.3,50.7c0,0.1,0,0.1,0,0.1c0,1.7-0.9,33.6-37.9,43.6c-1.5,0.4-2.9-1-2.6-2.5c2.1-9.7,5.1-37.2-25.9-40   c-0.1,0-0.2,0-0.3,0c-2.3,0.2-27.1,2.5-41.8,24c-0.2,0.3-0.3,0.6-0.4,0.9l0,0c-0.2,1.3,0.8,2.4,2.1,2.4l2.2,0   c0.4,0,0.8,0.1,1.2,0.3c1.6,1.1,5.6,4.3,1.7,8c-0.9,0.8-0.8,2.3,0.1,3.1c2.9,2.5,7,7.4,0.4,12.2c-1,0.7-1.2,2.2-0.3,3.1   c1.8,2,3.7,5.5-0.4,9.4c-0.3,0.2-0.5,0.5-0.8,0.7" />
	<path class="st2" d="M178,247.7l3.9,0c2,0,2.9,2.5,1.4,3.7c-4.5,3.7-12.8,7.4-22.6-4.1c-2.2-2.6-3.2-5.9-2.8-9.3   c0.3-2.9,1.4-6.7,4.2-11.2c0.8-1.4-0.1-3.2-1.7-3.2c-6.8-0.2-21.3,1.5-28.6,17.3c-9.3,20.1,10.2,45.3,14.5,50   c10,11,18.2,17.6,30,23c12.4,5.7,24,7.8,39.8,8c1.2,0,2.2-0.9,2.2-2.1l-1-302.9c0-8-14,1-21,6c-25,17.8-48,65-52.9,77.8   c-0.1,0.2-0.2,0.3-0.2,0.5c-4.9,11.9-5.9,20.8-7.9,26.7c-1.8,5.4-4,4-13,4.6c-0.1,0-0.2,0-0.3,0c-2.6,0-44,0.3-46.8,51.2   c0,0.1,0,0.1,0,0.1c0,1.7,1.2,33.6,38.4,43.3c1.5,0.4,2.9-1,2.6-2.5c-2.2-9.7-5.5-37.2,25.5-40.2c0.1,0,0.2,0,0.3,0   c2.3,0.2,27.1,2.2,42,23.5c0.2,0.3,0.3,0.6,0.4,0.9l0,0c0.2,1.3-0.8,2.4-2.1,2.4l-2.2,0c-0.4,0-0.8,0.1-1.2,0.4   c-1.6,1.1-5.6,4.4-1.6,8c0.9,0.8,0.8,2.3-0.1,3.1c-2.9,2.5-6.9,7.5-0.2,12.2c1,0.7,1.2,2.2,0.4,3.1c-1.8,2-3.6,5.6,0.5,9.4   c0.3,0.2,0.5,0.5,0.8,0.7" />
</g>
<path class="st3" d="M370.6,0.6 M291,38.6 M210.2,253 M243.6,246.5c0.3-0.2,0.6-0.5,0.8-0.7c4.1-3.8,2.3-7.4,0.5-9.4  c-0.8-0.9-0.6-2.4,0.4-3.1c6.6-4.7,2.6-9.7-0.2-12.2c-0.9-0.8-1-2.3-0.1-3.1c4-3.6,0-6.9-1.6-8c-0.4-0.2-0.8-0.4-1.2-0.4l-2.2,0  c-1.3,0-2.3-1.1-2.1-2.4l0,0c0.1-0.3,0.2-0.6,0.4-0.9c14.9-21.3,39.7-23.4,42-23.5c0.1,0,0.2,0,0.3,0c31,3.1,27.7,30.6,25.5,40.2  c-0.3,1.5,1.1,2.9,2.6,2.5c37.2-9.6,38.3-41.5,38.4-43.3c0-0.1,0-0.1,0-0.1c-2.8-50.9-44.2-51.2-46.8-51.2c-0.1,0-0.2,0-0.3,0  c-9-0.6-11.2,0.8-13-4.6c-2-6-3-14.9-7.9-26.7c-0.1-0.2-0.2-0.3-0.2-0.5C274,86.2,251,39.1,226,21.2c-7-5-21-14-21-6l-1,302.9  c0,1.2,1,2.1,2.2,2.1c15.9-0.2,27.4-2.2,39.8-8c11.8-5.4,20-12,30-23c4.3-4.7,23.8-29.9,14.5-50c-7.3-15.8-21.8-17.4-28.6-17.3  c-1.6,0-2.6,1.8-1.7,3.2c2.7,4.5,3.8,8.3,4.2,11.2c0.4,3.4-0.7,6.7-2.8,9.3c-9.8,11.6-18.1,7.8-22.6,4.1c-1.5-1.3-0.6-3.7,1.4-3.7  l3.9,0 M168.9,245.7l3.9,0c2,0,2.9,2.5,1.4,3.7c-4.5,3.7-12.8,7.4-22.6-4.1c-2.2-2.6-3.2-5.9-2.8-9.3c0.3-2.9,1.4-6.7,4.2-11.2  c0.8-1.4-0.1-3.2-1.7-3.2c-6.8-0.2-21.3,1.5-28.6,17.3c-9.3,20.1,10.2,45.3,14.5,50c10,11,18.2,17.6,30,23c12.4,5.7,24,7.8,39.8,8  c1.2,0,2.2-0.9,2.2-2.1L208,15c0-8-14,1-21,6c-25,17.8-48,65-52.9,77.8c-0.1,0.2-0.2,0.3-0.2,0.5C129,111.1,128,120,126,126  c-1.8,5.4-4,4-13,4.6c-0.1,0-0.2,0-0.3,0c-2.6,0-44,0.3-46.8,51.2c0,0.1,0,0.1,0,0.1c0,1.7,1.2,33.6,38.4,43.3  c1.5,0.4,2.9-1,2.6-2.5c-2.2-9.7-5.5-37.2,25.5-40.2c0.1,0,0.2,0,0.3,0c2.3,0.2,27.1,2.2,42,23.5c0.2,0.3,0.3,0.6,0.4,0.9l0,0  c0.2,1.3-0.8,2.4-2.1,2.4l-2.2,0c-0.4,0-0.8,0.1-1.2,0.4c-1.6,1.1-5.6,4.4-1.6,8c0.9,0.8,0.8,2.3-0.1,3.1c-2.9,2.5-6.9,7.5-0.2,12.2  c1,0.7,1.2,2.2,0.4,3.1c-1.8,2-3.6,5.6,0.5,9.4c0.3,0.2,0.5,0.5,0.8,0.7" />
<g id="Layer_6">
	<path class="st4" d="M171,141c0,0,2.5-34.8,34.5-40.5c0,0-2.4-13.1,5.4-17c0,0,9.5,5.2,9.3,14.4c0,0,48.5,19,7.6,35.2   c0,0,5.8,16.2,0.1,31" />
	<circle class="st5" cx="218.8" cy="110.3" r="2.5" />
</g>
<rect x="5.5" y="383.9" class="st6" width="431.5" height="137.6" />
<text transform="matrix(1 0 0 1 128.1764 473.1267)" class="st7 st8 st9">Dr. </text>
<rect y="383.5" class="st6" width="431.5" height="137.6" />
<text transform="matrix(1 0 0 1 122.7224 472.7987)" class="st3 st8 st9">Dr. </text>
<rect x="3" y="528" class="st7" width="72" height="72" />
<rect x="87" y="528" class="st10" width="72" height="72" />
<rect x="173" y="528" class="st11" width="72" height="72" />
</svg>