<?xml version="1.0" encoding="utf-8"?>
<!-- Generator: Adobe Illustrator 26.5.0, SVG Export Plug-In . SVG Version: 6.00 Build 0)  -->
<svg version="1.1" id="noBack" xmlns="http://www.w3.org/2000/svg" xmlns:xlink="http://www.w3.org/1999/xlink" x="0px" y="0px"
	 viewBox="0 0 407.6 126.7" style="enable-background:new 0 0 407.6 126.7;" xml:space="preserve">
<style type="text/css">
	.st0{fill:url(#SVGID_1_);}
	.st1{fill:url(#SVGID_00000011734910625053503620000000211782447631341244_);}
	.st2{fill:url(#SVGID_00000137099180258175235010000001021559326696207022_);}
	.st3{fill:url(#SVGID_00000067925734781236971490000014806326595856026504_);}
	.st4{fill:url(#SVGID_00000132785922010939120080000008563731709865719445_);}
	.st5{fill:url(#SVGID_00000054971699480893386380000000378433871300875180_);}
	.st6{fill:url(#SVGID_00000044154525685856349100000012471399911106076828_);}
	.st7{fill:url(#SVGID_00000139982952650156169280000001050806557043457930_);}
	.st8{fill:url(#SVGID_00000114062618895284377700000011315642457626370182_);}
	.st9{fill:url(#SVGID_00000170970692133916811630000007301721084818817930_);}
	.st10{fill:url(#SVGID_00000109010934577993600530000003766418842683392150_);}
	.st11{fill:url(#SVGID_00000049908110693477782340000014490600915184293309_);}
	.st12{fill:url(#SVGID_00000092414579908233106140000001615383488255860395_);}
	.st13{fill:url(#SVGID_00000095304906250006536290000006321713227780753589_);}
	.st14{fill:url(#SVGID_00000038410404359878417410000016487928006670485661_);}
	.st15{fill:url(#SVGID_00000145016197350215752770000004918127055768624036_);}
	.st16{fill:url(#SVGID_00000163054870489352479390000015230531156108392583_);}
	.st17{fill:url(#SVGID_00000085949104342815563280000011702418134180657340_);}
	.st18{fill:url(#SVGID_00000109012734069731941750000004296061174366738843_);}
	.st19{fill:url(#SVGID_00000167358864931909113580000008458393446187064478_);}
	.st20{fill:#028840;}
	.st21{fill:url(#SVGID_00000143596326736670019400000006485284951543188131_);}
	.st22{fill:url(#SVGID_00000054250379824397427660000014842201538229388949_);}
	.st23{fill:url(#SVGID_00000151544122378340196670000011095718186644916098_);}
	.st24{fill:url(#SVGID_00000036958441010618301430000000260062843957075389_);}
	.st25{fill:url(#SVGID_00000114772572064032367070000017761691936296763068_);}
	.st26{fill:#243D97;}
	.st27{fill:#005FAC;}
	.st28{fill:#86C0E8;}
	.st29{fill:#5B3B3B;}
	.st30{fill:none;stroke:#331B1A;stroke-width:0.93;stroke-linecap:round;stroke-miterlimit:10;}
	.st31{fill:#674443;}
	.st32{fill:none;stroke:#331B1A;stroke-width:0.72;stroke-linecap:round;stroke-miterlimit:10;}
	.st33{fill:#4F3434;stroke:#231F20;stroke-width:0.5;stroke-miterlimit:10;}
	.st34{fill:#513C3B;stroke:#231F20;stroke-width:0.5;stroke-miterlimit:10;}
	.st35{fill:#664848;stroke:#231F20;stroke-width:0.5;stroke-miterlimit:10;}
	.st36{fill:#565656;stroke:#231F20;stroke-width:0.5;stroke-miterlimit:10;}
	.st37{fill:none;stroke:#231F20;stroke-width:0.5;stroke-miterlimit:10;}
	.st38{fill:#EFE994;stroke:#231F20;stroke-width:0.5;stroke-miterlimit:10;}
	.st39{fill:#EFE994;stroke:#231F20;stroke-width:0.47;stroke-miterlimit:10;}
	.st40{fill:#E52625;stroke:#231F20;stroke-width:0.5;stroke-miterlimit:10;}
	.st41{fill:#E74D43;stroke:#231F20;stroke-width:0.5;stroke-miterlimit:10;}
	.st42{fill:#808285;stroke:#231F20;stroke-width:0.5;stroke-miterlimit:10;}
	.st43{fill:#666666;stroke:#231F20;stroke-width:0.5;stroke-miterlimit:10;}
	.st44{fill:#8C8E90;stroke:#231F20;stroke-width:0.5;stroke-miterlimit:10;}
	
		.st45{fill:url(#SVGID_00000183934957239595651260000003947650297680191366_);stroke:#231F20;stroke-width:0.5;stroke-miterlimit:10;}
	.st46{fill:#97999C;stroke:#231F20;stroke-width:0.5;stroke-miterlimit:10;}
	.st47{fill:#787878;stroke:#231F20;stroke-width:0.41;stroke-miterlimit:10;}
	.st48{fill:#070808;stroke:#231F20;stroke-width:0.5;stroke-miterlimit:10;}
	.st49{fill:#38362E;stroke:#231F20;stroke-width:0.5;stroke-miterlimit:10;}
	.st50{fill:#7F7F7F;stroke:#231F20;stroke-width:0.26;stroke-miterlimit:10;}
	.st51{fill:#B3B3B3;stroke:#231F20;stroke-width:0.26;stroke-miterlimit:10;}
	.st52{fill:#231F20;stroke:#231F20;stroke-width:0.5;stroke-miterlimit:10;}
	
		.st53{fill:url(#SVGID_00000125601405408260288020000005226454660140456107_);stroke:#231F20;stroke-width:0.25;stroke-miterlimit:10;}
	.st54{fill:#231F20;stroke:#231F20;stroke-width:0.15;stroke-miterlimit:10;}
	
		.st55{fill:url(#SVGID_00000101097134092793999190000000558547163700184988_);stroke:#231F20;stroke-width:0.5;stroke-miterlimit:10;}
	
		.st56{fill:url(#SVGID_00000043453209087794536570000014576763228880463532_);stroke:#231F20;stroke-width:0.5;stroke-miterlimit:10;}
	
		.st57{fill:url(#SVGID_00000080914931730452682460000012768198425122742929_);stroke:#231F20;stroke-width:0.5;stroke-miterlimit:10;}
	.st58{fill:#8A8C8E;stroke:#231F20;stroke-miterlimit:10;}
	.st59{fill:#C82127;stroke:#231F20;stroke-width:0.65;stroke-miterlimit:10;}
	.st60{fill:#A41E21;stroke:#231F20;stroke-width:0.65;stroke-miterlimit:10;}
	.st61{fill:#757679;stroke:#231F20;stroke-width:0.25;stroke-miterlimit:10;}
	.st62{fill:#B04949;stroke:#231F20;stroke-width:0.54;stroke-miterlimit:10;}
	.st63{fill:#B04949;stroke:#231F20;stroke-width:0.39;stroke-miterlimit:10;}
	.st64{fill:none;stroke:#231F20;stroke-width:0.25;stroke-miterlimit:10;}
	.st65{fill:#B04949;stroke:#231F20;stroke-width:0.52;stroke-miterlimit:10;}
	.st66{fill:none;stroke:#231F20;stroke-width:0.59;stroke-miterlimit:10;}
	.st67{fill:none;stroke:#231F20;stroke-width:0.39;stroke-miterlimit:10;}
	.st68{fill:#808285;stroke:#231F20;stroke-width:0.51;stroke-miterlimit:10;}
	.st69{fill:#444545;stroke:#231F20;stroke-width:0.44;stroke-miterlimit:10;}
	.st70{fill:#808285;stroke:#231F20;stroke-width:0.44;stroke-miterlimit:10;}
	.st71{fill:#808285;stroke:#231F20;stroke-width:0.27;stroke-miterlimit:10;}
	.st72{fill:#505251;stroke:#231F20;stroke-width:0.51;stroke-miterlimit:10;}
	.st73{fill:#353535;stroke:#231F20;stroke-width:0.5;stroke-miterlimit:10;}
	.st74{fill:#646262;stroke:#231F20;stroke-width:0.5;stroke-miterlimit:10;}
	.st75{fill:#4D4C4C;stroke:#231F20;stroke-width:0.5;stroke-miterlimit:10;}
	.st76{fill:#353535;stroke:#231F20;stroke-width:0.51;stroke-miterlimit:10;}
	.st77{fill:#454544;stroke:#231F20;stroke-width:0.5;stroke-miterlimit:10;}
	.st78{fill:#7F7F7F;stroke:#231F20;stroke-width:0.5;stroke-miterlimit:10;}
	.st79{fill:#996632;stroke:#231F20;stroke-width:0.5;stroke-miterlimit:10;}
	.st80{fill:#A57243;stroke:#020202;stroke-width:0.5;stroke-miterlimit:10;}
	.st81{fill:#A57243;stroke:#231F20;stroke-width:0.5;stroke-miterlimit:10;}
	.st82{fill:#F7D92A;stroke:#231F20;stroke-width:0.15;stroke-miterlimit:10;}
	.st83{fill:none;stroke:#E3CCAD;stroke-width:6;stroke-miterlimit:10;}
	.st84{fill:none;stroke:#E3CCAD;stroke-width:6;stroke-miterlimit:10;stroke-dasharray:0,0,12.1,12.1;}
	.st85{fill:none;stroke:#E3CCAD;stroke-width:6;stroke-miterlimit:10;stroke-dasharray:0,0,11.54,11.54;}
	.st86{fill:none;stroke:#E3CCAD;stroke-width:6;stroke-miterlimit:10;stroke-dasharray:0,0,11.37,11.37;}
	.st87{fill:none;stroke:#E3CCAD;stroke-width:6;stroke-miterlimit:10;stroke-dasharray:0,0,14.24,14.24;}
	.st88{fill:#E3CCAD;}
	.st89{font-family:'Arial-BoldMT';}
	.st90{font-size:13px;}
</style>
<g id="Layer_17">
</g>
<g id="Layer_16">
	
		<linearGradient id="SVGID_1_" gradientUnits="userSpaceOnUse" x1="103.9018" y1="21.0103" x2="113.9002" y2="21.0103" gradientTransform="matrix(0.8853 0.465 0.465 -0.8853 40.3244 -203.6106)">
		<stop  offset="0.1" style="stop-color:#FFF200"/>
		<stop  offset="0.85" style="stop-color:#E0A233"/>
	</linearGradient>
	<path class="st0" d="M142.9-173.3c7.1,1.5,6.6,4.6,6.6,4.6l1.4-0.4c-4.8-5.9-8.8-4.7-8.8-4.7"/>
	
		<linearGradient id="SVGID_00000021098312968991763320000015811936886727680162_" gradientUnits="userSpaceOnUse" x1="102.401" y1="19.1181" x2="106.291" y2="19.1181" gradientTransform="matrix(0.8853 0.465 0.465 -0.8853 40.3244 -203.6106)">
		<stop  offset="0.1" style="stop-color:#FFF200"/>
		<stop  offset="0.85" style="stop-color:#E0A233"/>
	</linearGradient>
	<path style="fill:url(#SVGID_00000021098312968991763320000015811936886727680162_);" d="M143.9-174.1c0,0,0.6,2.3-1.5,3.8
		c-2.1,1.5-3.9,0-3.9,0s1-2.2,2.2-3C142-174.1,143.9-174.1,143.9-174.1z"/>
	
		<linearGradient id="SVGID_00000034786432149021759780000001019825354631391149_" gradientUnits="userSpaceOnUse" x1="118.3377" y1="30.9173" x2="124.8877" y2="30.9173" gradientTransform="matrix(0.8411 0.4628 0.4442 -0.8856 23.8066 -204.6563)">
		<stop  offset="0.1" style="stop-color:#FFF200"/>
		<stop  offset="0.85" style="stop-color:#E0A233"/>
	</linearGradient>
	<path style="fill:url(#SVGID_00000034786432149021759780000001019825354631391149_);" d="M144.3-173.2c0,0,0-2.4-2.3-3.3
		c-2.3-0.9-3.6,1-3.6,1s1.4,1.9,2.7,2.4C142.5-172.7,144.3-173.2,144.3-173.2L144.3-173.2z"/>
	
		<linearGradient id="SVGID_00000045618023149432386430000007617247042361311878_" gradientUnits="userSpaceOnUse" x1="97.911" y1="19.3199" x2="103.331" y2="19.3199" gradientTransform="matrix(0.8853 0.465 0.465 -0.8853 40.3244 -203.6106)">
		<stop  offset="0.1" style="stop-color:#FFF200"/>
		<stop  offset="0.85" style="stop-color:#E0A233"/>
	</linearGradient>
	<path style="fill:url(#SVGID_00000045618023149432386430000007617247042361311878_);" d="M140.7-172.6c0,0,0-2-2-2.7
		s-3.1,0.8-3.1,0.8s1.2,1.6,2.4,2C139.2-172.2,140.7-172.6,140.7-172.6L140.7-172.6z"/>
	
		<linearGradient id="SVGID_00000065051070866835983870000014999479902943113908_" gradientUnits="userSpaceOnUse" x1="100.8392" y1="17.0291" x2="103.7704" y2="17.0291" gradientTransform="matrix(0.8853 0.465 0.465 -0.8853 40.3244 -203.6106)">
		<stop  offset="0.1" style="stop-color:#FFF200"/>
		<stop  offset="0.85" style="stop-color:#E0A233"/>
	</linearGradient>
	<path style="fill:url(#SVGID_00000065051070866835983870000014999479902943113908_);" d="M140.9-173.1c0,0-1.9-0.6-3.2,1.1
		c-1.3,1.7-0.1,3.2-0.1,3.2s1.9-0.7,2.6-1.7C140.8-171.5,140.9-173.1,140.9-173.1L140.9-173.1z"/>
	
		<linearGradient id="SVGID_00000088099400057341788540000007839976267355921584_" gradientUnits="userSpaceOnUse" x1="96.091" y1="16.1126" x2="100.4291" y2="16.1126" gradientTransform="matrix(0.8853 0.465 0.465 -0.8853 40.3244 -203.6106)">
		<stop  offset="0.1" style="stop-color:#FFF200"/>
		<stop  offset="0.85" style="stop-color:#E0A233"/>
	</linearGradient>
	<path style="fill:url(#SVGID_00000088099400057341788540000007839976267355921584_);" d="M137.5-172.6c0,0-1.1-1.6-3.2-1.2
		c-2.1,0.5-2.1,2.4-2.1,2.4s1.9,0.6,3,0.3C136.4-171.4,137.5-172.6,137.5-172.6L137.5-172.6z"/>
	
		<linearGradient id="SVGID_00000007392354717097064330000013159361774374976912_" gradientUnits="userSpaceOnUse" x1="98.291" y1="14.8639" x2="101.2223" y2="14.8639" gradientTransform="matrix(0.8853 0.465 0.465 -0.8853 40.3244 -203.6106)">
		<stop  offset="0.1" style="stop-color:#FFF200"/>
		<stop  offset="0.85" style="stop-color:#E0A233"/>
	</linearGradient>
	<path style="fill:url(#SVGID_00000007392354717097064330000013159361774374976912_);" d="M137.6-172.3c0,0-1.9-0.6-3.2,1.1
		c-1.3,1.7-0.1,3.2-0.1,3.2s1.9-0.7,2.6-1.7C137.5-170.7,137.6-172.3,137.6-172.3L137.6-172.3z"/>
	
		<linearGradient id="SVGID_00000078036314732264254930000004232156807423404697_" gradientUnits="userSpaceOnUse" x1="94.571" y1="12.0693" x2="97.721" y2="12.0693" gradientTransform="matrix(0.8853 0.465 0.465 -0.8853 40.3244 -203.6106)">
		<stop  offset="0.1" style="stop-color:#FFF200"/>
		<stop  offset="0.85" style="stop-color:#E0A233"/>
	</linearGradient>
	<path style="fill:url(#SVGID_00000078036314732264254930000004232156807423404697_);" d="M133.5-171.2c0,0-1.7-0.9-3.3,0.4
		c-1.6,1.4-0.8,3.1-0.8,3.1s2-0.4,2.8-1.2C133.1-169.6,133.5-171.2,133.5-171.2L133.5-171.2z"/>
	
		<linearGradient id="SVGID_00000083056269964391416090000011704562364943742367_" gradientUnits="userSpaceOnUse" x1="96.811" y1="12.2314" x2="99.751" y2="12.2314" gradientTransform="matrix(0.8853 0.465 0.465 -0.8853 40.3244 -203.6106)">
		<stop  offset="0.1" style="stop-color:#FFF200"/>
		<stop  offset="0.85" style="stop-color:#E0A233"/>
	</linearGradient>
	<path style="fill:url(#SVGID_00000083056269964391416090000011704562364943742367_);" d="M133.4-171.6c0,0,1.6,1.2,1,3.2
		c-0.6,2-2.5,2-2.5,2s-0.5-1.9-0.1-3.1C132.1-170.6,133.4-171.6,133.4-171.6z"/>
	
		<linearGradient id="SVGID_00000137130660810411279750000015932620802406458805_" gradientUnits="userSpaceOnUse" x1="94.931" y1="9.2311" x2="97.771" y2="9.2311" gradientTransform="matrix(0.8853 0.465 0.465 -0.8853 40.3244 -203.6106)">
		<stop  offset="0.1" style="stop-color:#FFF200"/>
		<stop  offset="0.85" style="stop-color:#E0A233"/>
	</linearGradient>
	<path style="fill:url(#SVGID_00000137130660810411279750000015932620802406458805_);" d="M131.6-169.2c0,0-1.9-0.2-2.9,1.6
		c-1,1.9,0.4,3.2,0.4,3.2s1.7-1.1,2.2-2.1C131.8-167.6,131.6-169.2,131.6-169.2z"/>
	
		<linearGradient id="SVGID_00000062885593480202125120000009631833135717556384_" gradientUnits="userSpaceOnUse" x1="95.3084" y1="51.4663" x2="108.093" y2="51.4663" gradientTransform="matrix(0.8598 0.5106 0.5106 -0.8598 34.5697 -186.9196)">
		<stop  offset="0.1" style="stop-color:#FFF200"/>
		<stop  offset="0.85" style="stop-color:#E0A233"/>
	</linearGradient>
	<path style="fill:url(#SVGID_00000062885593480202125120000009631833135717556384_);" d="M143.8-181.7c9,2.4,8.1,6.3,8.1,6.3
		l1.8-0.5c-5.7-7.9-11-6.5-11-6.5"/>
	
		<linearGradient id="SVGID_00000056424946913552262950000000099848591821971851_" gradientUnits="userSpaceOnUse" x1="93.3736" y1="49.0549" x2="98.3569" y2="49.0549" gradientTransform="matrix(0.8598 0.5106 0.5106 -0.8598 34.5697 -186.9196)">
		<stop  offset="0.1" style="stop-color:#FFF200"/>
		<stop  offset="0.85" style="stop-color:#E0A233"/>
	</linearGradient>
	<path style="fill:url(#SVGID_00000056424946913552262950000000099848591821971851_);" d="M145.2-182.7c0,0,0.6,3-2.2,4.7
		s-5-0.3-5-0.3s1.4-2.8,3-3.7C142.7-182.8,145.2-182.7,145.2-182.7L145.2-182.7z"/>
	
		<linearGradient id="SVGID_00000119077719648467331790000004462723704896670899_" gradientUnits="userSpaceOnUse" x1="108.8564" y1="61.6503" x2="117.2364" y2="61.6503" gradientTransform="matrix(0.8158 0.506 0.4898 -0.8612 18.1368 -188.826)">
		<stop  offset="0.1" style="stop-color:#FFF200"/>
		<stop  offset="0.85" style="stop-color:#E0A233"/>
	</linearGradient>
	<path style="fill:url(#SVGID_00000119077719648467331790000004462723704896670899_);" d="M145.6-181.4c0,0,0.1-3-2.7-4.4
		c-2.8-1.3-4.7,1-4.7,1s1.7,2.5,3.3,3.2C143.2-180.9,145.6-181.4,145.6-181.4z"/>
	
		<linearGradient id="SVGID_00000148640786146675448270000004631724631522026941_" gradientUnits="userSpaceOnUse" x1="87.6336" y1="49.3069" x2="94.5636" y2="49.3069" gradientTransform="matrix(0.8598 0.5106 0.5106 -0.8598 34.5697 -186.9196)">
		<stop  offset="0.1" style="stop-color:#FFF200"/>
		<stop  offset="0.85" style="stop-color:#E0A233"/>
	</linearGradient>
	<path style="fill:url(#SVGID_00000148640786146675448270000004631724631522026941_);" d="M141-180.9c0,0,0.1-2.5-2.3-3.6
		c-2.5-1.1-4.1,0.8-4.1,0.8s1.5,2.1,2.9,2.6C139-180.5,141-180.9,141-180.9L141-180.9z"/>
	
		<linearGradient id="SVGID_00000098908847053845407830000007227808388213294743_" gradientUnits="userSpaceOnUse" x1="91.3836" y1="46.3742" x2="95.1221" y2="46.3742" gradientTransform="matrix(0.8598 0.5106 0.5106 -0.8598 34.5697 -186.9196)">
		<stop  offset="0.1" style="stop-color:#FFF200"/>
		<stop  offset="0.85" style="stop-color:#E0A233"/>
	</linearGradient>
	<path style="fill:url(#SVGID_00000098908847053845407830000007227808388213294743_);" d="M141.2-181.5c0,0-2.4-0.8-4.1,1.2
		c-1.8,2-0.4,4.1-0.4,4.1s2.4-0.8,3.4-2C141-179.5,141.2-181.5,141.2-181.5L141.2-181.5z"/>
	
		<linearGradient id="SVGID_00000054239830305997995420000009916818275188453008_" gradientUnits="userSpaceOnUse" x1="85.3036" y1="45.1945" x2="90.8571" y2="45.1945" gradientTransform="matrix(0.8598 0.5106 0.5106 -0.8598 34.5697 -186.9196)">
		<stop  offset="0.1" style="stop-color:#FFF200"/>
		<stop  offset="0.85" style="stop-color:#E0A233"/>
	</linearGradient>
	<path style="fill:url(#SVGID_00000054239830305997995420000009916818275188453008_);" d="M136.8-181.2c0,0-1.3-2.1-4-1.7
		c-2.7,0.5-2.9,2.9-2.9,2.9s2.4,0.9,3.9,0.6C135.4-179.7,136.8-181.2,136.8-181.2L136.8-181.2z"/>
	
		<linearGradient id="SVGID_00000005970809201822172070000004839913641531387268_" gradientUnits="userSpaceOnUse" x1="88.1241" y1="43.5999" x2="91.8626" y2="43.5999" gradientTransform="matrix(0.8598 0.5106 0.5106 -0.8598 34.5697 -186.9196)">
		<stop  offset="0.1" style="stop-color:#FFF200"/>
		<stop  offset="0.85" style="stop-color:#E0A233"/>
	</linearGradient>
	<path style="fill:url(#SVGID_00000005970809201822172070000004839913641531387268_);" d="M137-180.8c0,0-2.4-0.8-4.1,1.2
		c-1.8,2-0.4,4.1-0.4,4.1s2.4-0.8,3.4-2C136.8-178.8,137-180.8,137-180.8L137-180.8z"/>
	
		<linearGradient id="SVGID_00000156557207110331404450000006495347060520269980_" gradientUnits="userSpaceOnUse" x1="83.3636" y1="40.0311" x2="87.3812" y2="40.0311" gradientTransform="matrix(0.8598 0.5106 0.5106 -0.8598 34.5697 -186.9196)">
		<stop  offset="0.1" style="stop-color:#FFF200"/>
		<stop  offset="0.85" style="stop-color:#E0A233"/>
	</linearGradient>
	<path style="fill:url(#SVGID_00000156557207110331404450000006495347060520269980_);" d="M131.6-179.6c0,0-2.2-1.3-4.3,0.4
		s-1.2,4-1.2,4s2.6-0.3,3.7-1.3C131-177.7,131.6-179.6,131.6-179.6L131.6-179.6z"/>
	
		<linearGradient id="SVGID_00000101085942344803592250000017366207973826695083_" gradientUnits="userSpaceOnUse" x1="86.2236" y1="40.2422" x2="89.9836" y2="40.2422" gradientTransform="matrix(0.8598 0.5106 0.5106 -0.8598 34.5697 -186.9196)">
		<stop  offset="0.1" style="stop-color:#FFF200"/>
		<stop  offset="0.85" style="stop-color:#E0A233"/>
	</linearGradient>
	<path style="fill:url(#SVGID_00000101085942344803592250000017366207973826695083_);" d="M131.6-180.1c0,0,1.9,1.6,1,4.2
		c-0.9,2.6-3.4,2.4-3.4,2.4s-0.5-2.5,0-3.9C129.9-178.9,131.6-180.1,131.6-180.1L131.6-180.1z"/>
	
		<linearGradient id="SVGID_00000063599425913993598060000003600589426981065639_" gradientUnits="userSpaceOnUse" x1="83.8236" y1="36.3967" x2="87.4536" y2="36.3967" gradientTransform="matrix(0.8598 0.5106 0.5106 -0.8598 34.5697 -186.9196)">
		<stop  offset="0.1" style="stop-color:#FFF200"/>
		<stop  offset="0.85" style="stop-color:#E0A233"/>
	</linearGradient>
	<path style="fill:url(#SVGID_00000063599425913993598060000003600589426981065639_);" d="M129-177.2c0,0-2.5-0.4-3.9,1.9
		c-1.4,2.3,0.3,4.1,0.3,4.1s2.3-1.2,3-2.6C129.2-175.1,129-177.2,129-177.2z"/>
</g>
<g id="Layer_3">
	<path class="st20" d="M184.3-178.6c0,0-0.3-3.6-4.7-5.9c-0.7-0.4,0.9-1.7,0.9-1.7s3.9,1.2,4.7,4.9
		C186.1-177.6,184.3-178.6,184.3-178.6L184.3-178.6z"/>
	
		<linearGradient id="SVGID_00000023251690783125517980000015990594743859553927_" gradientUnits="userSpaceOnUse" x1="-162.3651" y1="-435.7927" x2="-171.6113" y2="-435.6826" gradientTransform="matrix(-0.1458 0.9893 -0.9893 -0.1458 -266.9052 -67.6403)">
		<stop  offset="0.22" style="stop-color:#85C441"/>
		<stop  offset="0.71" style="stop-color:#028840"/>
	</linearGradient>
	<path style="fill:url(#SVGID_00000023251690783125517980000015990594743859553927_);" d="M191.1-164.3c0,0,2.1-3.3,1.1-6.9
		c-1-3.6-6.2-2.8-6.2-2.8s-2.7,3.3-0.2,5.8C186.9-167.1,191.1-164.3,191.1-164.3z"/>
	
		<linearGradient id="SVGID_00000051367547693346103920000004447388117503661495_" gradientUnits="userSpaceOnUse" x1="24.6971" y1="-348.4037" x2="17.0384" y2="-352.313" gradientTransform="matrix(0.331 0.9436 -0.9436 0.331 -151.2095 -76.1588)">
		<stop  offset="0" style="stop-color:#85C441"/>
		<stop  offset="1" style="stop-color:#028840"/>
	</linearGradient>
	<path style="fill:url(#SVGID_00000051367547693346103920000004447388117503661495_);" d="M183.4-175.9c0,0-3.8,1.6,0.6,6.1
		c1.3,1.3,2.7,1.8,3.5,1.9c1.7,0,2.9-0.9,2.9-0.9s-1.4-3.1-2.4-6.1C186.7-178.5,183.4-175.9,183.4-175.9L183.4-175.9z"/>
	
		<linearGradient id="SVGID_00000092422613303508400050000012950925283015343755_" gradientUnits="userSpaceOnUse" x1="-269.4471" y1="-436.6723" x2="-278.962" y2="-434.3135" gradientTransform="matrix(-0.369 0.9294 -0.9294 -0.369 -322.8599 -81.7951)">
		<stop  offset="3.000000e-02" style="stop-color:#85C441"/>
		<stop  offset="0.67" style="stop-color:#028840"/>
	</linearGradient>
	<path style="fill:url(#SVGID_00000092422613303508400050000012950925283015343755_);" d="M183.6-180.9c0,0-3.2,1.4-3.9,5.4
		c-0.3,1.4,0.7,2.5,1.3,3.1c1.2,1.1,3.2,1.4,3.2,1.4s1-3.2,2.2-6.2C187.8-180.6,183.6-180.9,183.6-180.9L183.6-180.9z"/>
	
		<linearGradient id="SVGID_00000010302824982359517080000007573594229973386166_" gradientUnits="userSpaceOnUse" x1="147.0075" y1="37.9537" x2="144.0497" y2="46.0975" gradientTransform="matrix(0.8853 0.465 0.465 -0.8853 40.3244 -203.6106)">
		<stop  offset="0" style="stop-color:#85C441"/>
		<stop  offset="1" style="stop-color:#028840"/>
	</linearGradient>
	<path style="fill:url(#SVGID_00000010302824982359517080000007573594229973386166_);" d="M185.1-177.5c0,0,3.8-1.1,7.4,1.8
		c1.3,1.1,1.3,2.7,1.2,3.7c-0.2,1.9-1.7,3.6-1.7,3.6s-3.3-2.1-6.5-3.8C181.7-174.1,185.2-177.4,185.1-177.5L185.1-177.5z"/>
	
		<linearGradient id="SVGID_00000065785372163161239520000017894311316686539710_" gradientUnits="userSpaceOnUse" x1="146.0515" y1="41.0339" x2="142.8212" y2="49.9149" gradientTransform="matrix(0.8853 0.465 0.465 -0.8853 40.3244 -203.6106)">
		<stop  offset="0" style="stop-color:#85C441"/>
		<stop  offset="1" style="stop-color:#028840"/>
	</linearGradient>
	<path style="fill:url(#SVGID_00000065785372163161239520000017894311316686539710_);" d="M185.5-181.4c0,0,4.1-1.3,8.1,2
		c1.4,1.1,1.4,3,1.3,4.1c-0.2,2.1-1.8,3.9-1.8,3.9s-3.6-2.3-7.1-4.1C181.7-177.7,185.5-181.4,185.5-181.4z"/>
</g>
<g id="Layer_4">
	<path class="st26" d="M236.6-185.9l-8.8,9.7c0,0-4.5,5-3.1,9.5c0.9,2.8,6.2,5.7,9.5,3.1c4.1-3.2,3.1-9.5,3.1-9.5L236.6-185.9
		L236.6-185.9z"/>
	<path class="st27" d="M235.5-182.2l-6.4,7c0,0-3.2,3.6-2.3,6.8c0.6,2.1,4.5,4.1,6.8,2.3c2.9-2.3,2.3-6.8,2.3-6.8L235.5-182.2
		L235.5-182.2z"/>
	<path class="st28" d="M235-178.7l-2.2,2.7c0,0-1.1,1.4-0.7,2.6c0.3,0.7,1.7,1.4,2.6,0.7c1-0.9,0.7-2.6,0.7-2.6L235-178.7L235-178.7
		z"/>
</g>
<g id="Almonds">
	<path class="st29" d="M270.9-170.7c0,0-3.5-1.8-2-6.4c1.6-4.8,9.1-8.7,9.1-8.7s2.5-1.4,2.8,1.5c0.3,2.9-0.5,9.6-3.1,12.7
		C275.1-168.5,270.9-170.7,270.9-170.7z"/>
	<path class="st30" d="M277.1-184.7c-2.3,2.2-7.8,8.3-7.4,11.9"/>
	<path class="st30" d="M279.7-183.3c-0.5,3.1-2.8,11.1-6,12.9"/>
	<path class="st31" d="M278-168c0,0-2.7-1.4-1.6-5c1.2-3.7,7.1-6.8,7.1-6.8s2-1.1,2.2,1.2s-0.4,7.5-2.4,9.9
		C281.3-166.2,278-168,278-168L278-168z"/>
	<path class="st32" d="M282.9-178.9c-1.8,1.7-6.1,6.5-5.8,9.3"/>
	<path class="st32" d="M285-177.8c-0.4,2.4-2.2,8.7-4.7,10"/>
</g>
<g id="aging">
	<path class="st33" d="M74.1,201.4c0,0-3,23.5-19.6,38.5c0,0-4.1,5.8-14.3,1.7c-4.8-1.9-7.7-4.2-9.5-6.1c-1.6-1.8-2.4-4.2-2.2-6.6
		c2.6-27.9,21-41,21-41"/>
	<path class="st34" d="M73.7,202.3c-2.3,4.4-9.8,4.2-16.2,0.9c-6.4-3.3-10.2-11-8.4-14.4c1.5-2.8,8.9-2.4,15.3,0.8
		C70.7,192.9,75.1,199.4,73.7,202.3L73.7,202.3z"/>
	<path class="st35" d="M40.2,241.6c-4.8-1.9-7.7-4.2-9.5-6.1c-1.6-1.8-2.4-4.2-2.2-6.6c2.6-27.9,20.6-40.5,20.6-40.5
		s-1.9,6.2,3.5,11.2"/>
	<path class="st36" d="M70.1,215.3c-22.8,6.6-30.4-17-30.4-17l3.1-3.8c0,0,7,23.7,29,15.6L70.1,215.3z"/>
	<path class="st36" d="M57.4,236.6c-22.8,6.6-27.6-14-27.6-14l1.4-4.9c0,0,6.6,22.4,29.4,14.9L57.4,236.6L57.4,236.6z"/>
	<path class="st37" d="M48.7,193.5c0,0-15.4,21.9-17.7,42"/>
	<path class="st37" d="M53,200.3c0,0-16.2,30.4-18,38.4"/>
	<path class="st37" d="M59.8,204.3c0,0-16.4,35.3-19.5,37.1"/>
	<path class="st37" d="M69,205.3c0,0-15.2,31.7-22.8,38"/>
	<path class="st33" d="M101.2,216.2c0,0-3,23.5-19.6,38.5c0,0-4.1,5.8-14.3,1.7c-4.8-1.9-7.7-4.2-9.5-6.1c-1.6-1.8-2.4-4.2-2.2-6.6
		c2.6-27.9,21-41,21-41"/>
	<path class="st34" d="M100.7,217c-2.3,4.4-9.8,4.2-16.2,0.9c-6.4-3.3-10.2-11-8.4-14.4c1.5-2.8,8.9-2.4,15.3,0.8
		C97.8,207.7,102.2,214.2,100.7,217L100.7,217z"/>
	<path class="st35" d="M67.3,256.3c-4.8-1.9-7.7-4.2-9.5-6.1c-1.6-1.8-2.4-4.2-2.2-6.6c2.6-27.9,20.6-40.5,20.6-40.5
		s-1.9,6.2,3.5,11.2"/>
	<path class="st36" d="M97.2,230c-22.8,6.6-30.4-17-30.4-17l3.1-3.8c0,0,7,23.7,29,15.6L97.2,230L97.2,230z"/>
	<path class="st36" d="M84.4,251.4c-22.8,6.6-27.6-14-27.6-14l1.4-4.9c0,0,6.6,22.4,29.4,14.9L84.4,251.4L84.4,251.4z"/>
	<path class="st37" d="M75.8,208.3c0,0-15.4,21.9-17.7,42"/>
	<path class="st37" d="M80.1,215.1c0,0-16.2,30.4-18,38.4"/>
	<path class="st37" d="M86.9,219.1c0,0-16.4,35.3-19.5,37.1"/>
	<path class="st37" d="M96.1,220.1c0,0-15.2,31.7-22.8,38"/>
</g>
<g id="Boiling">
	<path class="st38" d="M236.4,65.7l-16.7,35.2c0,0,0,2.2,1.8,0.9l2.1-4.5l0.7-1.6l-0.8-2.9"/>
	<ellipse transform="matrix(0.4288 -0.9034 0.9034 0.4288 46.4887 271.8776)" class="st38" cx="238.2" cy="99.2" rx="8.5" ry="16"/>
	<ellipse transform="matrix(0.4288 -0.9034 0.9034 0.4288 47.5497 271.749)" class="st39" cx="238.7" cy="98.3" rx="7.5" ry="16"/>
	<path class="st38" d="M254.2,81.9l2,0.4l-11.6,24.5c-0.3,0.7-1.1,1-1.8,0.6l-0.6-0.3L254.2,81.9L254.2,81.9z"/>
	<ellipse transform="matrix(0.4288 -0.9034 0.9034 0.4288 78.3207 268.0179)" class="st38" cx="251.1" cy="72.1" rx="8.5" ry="16"/>
	<path class="st38" d="M265.3,79.4l-16.7,35.2c-1.8,1.4-1.8-0.9-1.8-0.9l2.1-4.5l3.1-1.9"/>
	<path class="st38" d="M235.3,107.7l-4.1,8.6c-1.8,1.4-1.8-0.9-1.8-0.9l4.3-9l1.8,0.8L235.3,107.7z"/>
	<path class="st40" d="M236.4,65.7c-0.8,4,2.8,8,2.8,8l-12.1,25.4c0,0-4.5-4.5-3.6-6.3"/>
	<path class="st40" d="M244,108l12-25.3c0,0,6.3,0.8,8.9-2.4l-12.7,25.9C252.2,106.2,248.1,108.8,244,108z"/>
	<path class="st40" d="M242.2,107.1l12-25.3c-7.2-1.2-13.6-6.4-13.6-6.4l-12.1,25.2C228.5,100.6,235.9,106.4,242.2,107.1z"/>
	<path class="st37" d="M257.1,50l-5.6,11.7c-1.3,0.5-3.5,2.8-3.5,2.8"/>
	<path class="st40" d="M265.3,53.9l-5.3,11.3c0,0,4.1,4,4.7,8.5c0.2,1.7-0.7,3.3-2.2,4.1l-0.2,0.1c-2,1.1-4.3,1.5-6.6,1.1
		c-5.6-0.8-13.1-4.3-16-10.7c-1.9-4.3,1.1-6.9,4.8-7.7c3.5-0.7,7.6,0.3,7.6,0.3l5.1-10.8"/>
	
		<ellipse transform="matrix(0.4288 -0.9034 0.9034 0.4288 102.7895 265.5892)" class="st41" cx="261.4" cy="51.5" rx="2.5" ry="4.5"/>
	<path class="st42" d="M261.4,62c-5.3,1.9-8.1-3.9-8.1-3.9l1.3-2.7c0,0,1.9,5.3,8.1,3.9L261.4,62z"/>
	<path class="st37" d="M253.7,101.5c0,0-1.8-0.9-0.9-2.7c0.9-1.8,2.7-0.9,2.7-0.9s0.9,0.4,0,2.2S253.7,101.5,253.7,101.5z"/>
	<polygon class="st38" points="239.3,73.7 227.2,99.1 228.3,100.5 240.7,75.4 	"/>
	<path class="st38" d="M175.8,62.9l-16.7,35.2c0,0,0,2.2,1.8,0.9l2.1-4.5l0.7-1.6l-0.8-2.9"/>
	<ellipse transform="matrix(0.4288 -0.9034 0.9034 0.4288 14.3805 215.4775)" class="st38" cx="177.6" cy="96.4" rx="8.5" ry="16"/>
	<ellipse transform="matrix(0.4288 -0.9034 0.9034 0.4288 15.4415 215.3489)" class="st39" cx="178" cy="95.5" rx="7.5" ry="16"/>
	<path class="st38" d="M193.6,79l2,0.4L183.9,104c-0.3,0.7-1.1,1-1.8,0.6l-0.6-0.3L193.6,79L193.6,79z"/>
	<ellipse transform="matrix(0.4288 -0.9034 0.9034 0.4288 46.2125 211.6177)" class="st38" cx="190.4" cy="69.3" rx="8.5" ry="16"/>
	<polyline class="st42" points="235,92.1 242.3,76.7 241.4,76.3 234.5,90.7 	"/>
	<polyline class="st43" points="240.8,79.9 248.4,112.8 249.2,111 241.4,78.5 	"/>
	<polyline class="st44" points="199.3,95 235,92.1 234.5,90.7 234.5,90.7 229.5,85 200,86.5 196.1,94.6 199.3,95 	"/>
	<polyline class="st42" points="195.3,96.5 235.5,93.4 235,92.1 196.1,94.6 195.3,96.5 	"/>
	<line class="st37" x1="233.5" y1="106.9" x2="229.6" y2="115"/>
	<path class="st38" d="M204.7,76.6L188,111.8c-1.8,1.4-1.8-0.9-1.8-0.9l2.1-4.5l3.1-1.9"/>
	<path class="st38" d="M174.6,104.9l-4.1,8.6c-1.8,1.4-1.8-0.9-1.8-0.9l4.3-9l1.8,0.8L174.6,104.9z"/>
	<path class="st40" d="M175.8,62.9c-0.8,4,2.8,8,2.8,8l-12.1,25.4c0,0-4.5-4.5-3.6-6.3"/>
	<path class="st40" d="M183.4,105.2l12-25.3c0,0,6.3,0.8,8.9-2.4l-12.7,25.9C191.5,103.4,187.4,106,183.4,105.2L183.4,105.2z"/>
	<path class="st40" d="M181.6,104.3l12-25.3c-7.2-1.2-13.6-6.4-13.6-6.4l-12.1,25.2C167.9,97.8,175.3,103.6,181.6,104.3z"/>
	<path class="st37" d="M196.5,47.2L190.9,59c-1.3,0.5-3.5,2.8-3.5,2.8"/>
	<path class="st40" d="M204.6,51.1L199,62.8c0,0,4.3,3.5,4.9,8c0.2,1.7-0.7,3.3-2.2,4.1l-0.2,0.1c-2,1.1-4.3,1.5-6.6,1.1
		c-5.6-0.8-13.1-4.3-16-10.7c-1.9-4.3,1.1-6.9,4.8-7.7c3.5-0.7,7.6,0.3,7.6,0.3l5.1-10.8"/>
	
		<ellipse transform="matrix(0.4288 -0.9034 0.9034 0.4288 70.6814 209.1891)" class="st41" cx="200.8" cy="48.7" rx="2.5" ry="4.5"/>
	<path class="st42" d="M200.8,59.2c-5.3,1.9-8.1-3.9-8.1-3.9l1.3-2.7c0,0,1.9,5.3,8.1,3.9L200.8,59.2z"/>
	<path class="st42" d="M202.7,67.3l33.9-2.2c0,0,0.9,0.4,0.5,1.3l-33.3,2.7"/>
	<path class="st42" d="M203.7,78.9l14.9-1.2c0,0,2.2,0,4-3.7c0,0,0.4-3.1,1.7-3.6c1.1-0.4,8.5-0.9,10.9-1.1c0.4,0,0.8-0.3,1-0.7
		l0.2-0.3c0.2-0.4-0.1-0.8-0.5-0.8l-9.4,0.6c0,0-4.5,0.1-5.3,4.1c-0.8,4-3,4.1-3,4.1l-13.8,1.2"/>
	<polyline class="st42" points="240.9,77.2 202.8,80.7 202.1,82 240.5,78.1 	"/>
	<polygon class="st42" points="215,80.8 208.8,93.5 207.7,93.5 213.7,80.9 	"/>
	<polygon class="st42" points="198.3,94.6 204.1,81.8 203.2,81.9 197.2,94.6 	"/>
	<path class="st37" d="M193.1,98.7c0,0-1.8-0.9-0.9-2.7c0.9-1.8,2.7-0.9,2.7-0.9s0.9,0.4,0,2.2S193.1,98.7,193.1,98.7z"/>
	<path class="st37" d="M261.3,87.9c0,0-0.9-0.4-1.8,1.4c-0.9,1.8,0,2.2,0,2.2s0.9,0.4,1.8-1.4C262.2,88.4,261.3,87.9,261.3,87.9z"/>
	<line class="st37" x1="260.4" y1="89.7" x2="260.9" y2="88.8"/>
	<path class="st37" d="M259.4,92c0,0-0.9-0.4-1.8,1.4c-0.9,1.8,0,2.2,0,2.2s0.9,0.4,1.8-1.4S259.4,92,259.4,92z"/>
	<line class="st37" x1="258.5" y1="93.8" x2="258.9" y2="92.9"/>
	<line class="st37" x1="234.2" y1="66.8" x2="233.8" y2="67.7"/>
	<polyline class="st37" points="236.2,105.9 236.1,103.7 236,106.3 	"/>
	<polygon class="st38" points="178.6,70.8 166.5,96.3 167.7,97.7 180,72.6 	"/>
	<polygon class="st43" points="247.2,117.1 244,114.4 234.4,91 232.8,94.3 242.7,117.2 245.9,119.8 	"/>
	<polygon class="st43" points="223.9,95 232.9,94.9 236,97.5 227.1,97.7 	"/>
	<polygon class="st43" points="233.2,114.5 242.1,114.3 245.3,116.9 236.4,117.1 	"/>
	<polygon class="st43" points="229.9,109.7 238.9,109.5 242.1,112.1 233.1,112.3 	"/>
	<polygon class="st43" points="227.5,104.7 236.4,104.6 239.6,107.2 230.7,107.4 	"/>
	<polygon class="st43" points="225.7,99.9 234.7,99.7 237.8,102.4 228.9,102.5 	"/>
	<polygon class="st43" points="236.4,117.1 233.2,114.5 224.2,91.4 222.9,94.1 231.9,117.2 235.1,119.8 	"/>
	<polygon class="st42" points="223.7,92.7 230,79.2 228.9,79.2 222.6,92.7 	"/>
</g>
<g id="Fermentation">
	
		<linearGradient id="SVGID_00000150813797281543812270000004745719014464198018_" gradientUnits="userSpaceOnUse" x1="-105.6987" y1="-362.6182" x2="-71.6987" y2="-362.6182" gradientTransform="matrix(0.9034 0.4288 0.4288 -0.9034 46.1181 -217.5912)">
		<stop  offset="0.22" style="stop-color:#8A8C8E"/>
		<stop  offset="0.71" style="stop-color:#464547"/>
	</linearGradient>
	
		<path style="fill:url(#SVGID_00000150813797281543812270000004745719014464198018_);stroke:#231F20;stroke-width:0.5;stroke-miterlimit:10;" d="
		M-209.8,75.1l12.4-26.2c0,0,12.1,23.5,30.7,14.6L-177.8,87C-197.3,97.7-209.8,75.1-209.8,75.1"/>
	<path class="st46" d="M-166.7,63.5c-2,4.2-10.8,3.7-18.8-0.1c-8-3.8-13.5-11.2-11.5-15.4s10.8-3.7,18.8,0.1
		C-170.2,51.9-164.7,59.3-166.7,63.5z"/>
	<path class="st47" d="M-169.4,61c-1.7,3.5-8.8,3.1-15.2,0.1s-10.9-9.1-9.2-12.6c1.7-3.5,8.8-3.1,15.2-0.1
		C-172.1,51.5-167.7,57.5-169.4,61z"/>
	<path class="st48" d="M-203.1,77.2c-1.8,1.4-1.8-0.9-1.8-0.9l-11.6,1.1l-0.9-0.4c-0.5-1.3,0.9-1.8,0.9-1.8l12.5-0.7
		c0,0,0.4-0.9,1.3-0.5c0.9,0.4,0,2.2,0,2.2L-203.1,77.2z"/>
	<line class="st37" x1="-210.7" y1="76.9" x2="-212.8" y2="81.5"/>
	<path class="st49" d="M-184.8,49.2l-1.1,2.2c-0.1,0.3-0.2,0.6-0.2,0.9c0.1,1,0.8,3.1,4.1,4.7c3.4,1.6,5.3,0.8,6.2,0.2
		c0.3-0.2,0.5-0.5,0.7-0.8l0.9-1.8"/>
	<path class="st49" d="M-174.1,54.7c-0.7,1.5-3.8,1.4-6.7,0c-2.8-1.3-4.8-4-4-5.5c0.7-1.5,3.8-1.4,6.7,0
		C-175.3,50.5-173.4,53.1-174.1,54.7z"/>
	<path class="st50" d="M-181.6,49l-0.5,1.1c-0.1,0.1-0.1,0.3-0.1,0.5c0.1,0.5,0.4,1.6,2.1,2.4s2.8,0.4,3.2,0.1
		c0.2-0.1,0.3-0.2,0.3-0.4l0.5-0.9"/>
	<path class="st51" d="M-176.1,51.8c-0.4,0.8-2,0.7-3.4,0c-1.5-0.7-2.4-2-2.1-2.8s2-0.7,3.4,0C-176.7,49.7-175.7,51-176.1,51.8z"/>
	<line class="st37" x1="-208.4" y1="76.9" x2="-210.6" y2="81.4"/>
	<path class="st52" d="M-212.4,80.5c0,0-0.9-0.4-1.8,1.4c-0.9,1.8,2.3,2.2,2.3,2.2s0.9,0.4,1.8-1.4c0.9-1.8-0.5-1.3-0.5-1.3"/>
	<path class="st37" d="M-212.7,81.2c0,0-0.1,0.3,0.8,0.7c0.9,0.4,1.5-0.4,1.5-0.4"/>
	<line class="st37" x1="-197.7" y1="87" x2="-202.2" y2="96.4"/>
	<line class="st37" x1="-200.4" y1="97.3" x2="-196.1" y2="88.3"/>
	<path class="st52" d="M-202.2,96.4c0,0-0.2-0.1-0.4-0.1c-0.3,0-0.7,0-1,0.6l-0.4,0.9c0,0-0.4,0.9,1.4,1.8s2.2,0,2.2,0l0.4-0.9
		c0,0,0.8-1.5-0.3-1.6"/>
	<path class="st37" d="M-201.8,97.8c0,0-0.9-0.4-0.5-1.3"/>
	<path class="st37" d="M-200.4,97.3c0,0-0.4,0.9-1.3,0.5"/>
	<path class="st52" d="M-181.7,95.1c0,0,0.9,0.4,0.5,1.3l-0.4,0.9c0,0-0.4,0.9-1.3,0.5l-1.8-0.9c0,0-0.9-0.4-0.5-1.3l0.4-0.9
		c0,0,0.4-0.9,1.3-0.5"/>
	<path class="st37" d="M-183.9,95.2l3.4-7.2c-0.2,0.5,2.4-0.5,2.4-0.5l-4.1,8.6L-183.9,95.2z"/>
	
		<linearGradient id="SVGID_00000088108346379831529390000017848775077124462252_" gradientUnits="userSpaceOnUse" x1="-109.1987" y1="-358.2195" x2="-100.1987" y2="-358.2195" gradientTransform="matrix(0.9034 0.4288 0.4288 -0.9034 46.1181 -217.5912)">
		<stop  offset="0.22" style="stop-color:#8A8C8E"/>
		<stop  offset="0.71" style="stop-color:#464547"/>
	</linearGradient>
	
		<path style="fill:url(#SVGID_00000088108346379831529390000017848775077124462252_);stroke:#231F20;stroke-width:0.25;stroke-miterlimit:10;" d="
		M-212.7,75.4l11.6-24.4c0.8-1.7,2.2-3,3.9-3.6c0,0,0,0,0.1,0c1.3-0.5,6.2-1.5,4.5,2.1l0.9,0.4c0.8-1.8,0-2.9-0.7-3.5
		c-0.4-0.3-0.9-0.5-1.3-0.5l-2.9,0.1c-0.7,0-1.5,0.2-2.1,0.6c-0.9,0.6-2.1,1.5-2.8,3.1l-12,25.3L-212.7,75.4z"/>
	<path class="st50" d="M-177.9,51l6.9-14.5c-1.3,0-2.5-0.8-2.7-1.3l-6.9,14.5"/>
	<path class="st54" d="M-205,56.9l-0.5-1.3c0,0-0.9-0.4-1.3,0.5l0.9,2.7"/>
	<path class="st54" d="M-206.3,59.4l-0.5-1.3c0,0-0.9-0.4-1.3,0.5l0.9,2.7"/>
	
		<linearGradient id="SVGID_00000015321168154986972800000011735374696389671099_" gradientUnits="userSpaceOnUse" x1="-75.1987" y1="-326.1885" x2="-40.6987" y2="-326.1885" gradientTransform="matrix(0.9034 0.4288 0.4288 -0.9034 46.1181 -217.5912)">
		<stop  offset="0.22" style="stop-color:#8A8C8E"/>
		<stop  offset="0.71" style="stop-color:#464547"/>
	</linearGradient>
	
		<path style="fill:url(#SVGID_00000015321168154986972800000011735374696389671099_);stroke:#231F20;stroke-width:0.5;stroke-miterlimit:10;" d="
		M-135,69.1l11.8-24.8c-7.5,4.2-17,0.8-17,0.8c-14-5.5-14.4-15.1-14.4-15.1l-10.3,21.7c0,0-0.9,10.1,10.8,15.7
		c12.6,6,19.7,0.5,19.7,0.5"/>
	<polygon class="st37" points="-147.2,94.9 -134.8,68.7 -138.1,71 -149.3,94.5 	"/>
	<line class="st37" x1="-162.4" y1="89.5" x2="-146.5" y2="88.6"/>
	<line class="st37" x1="-163.4" y1="91.6" x2="-147.3" y2="90.4"/>
	<line class="st37" x1="-170.8" y1="79.3" x2="-164.4" y2="89"/>
	<line class="st37" x1="-171.7" y1="81.1" x2="-165.2" y2="90.8"/>
	
		<linearGradient id="SVGID_00000055673991521751101600000015517851101654930358_" gradientUnits="userSpaceOnUse" x1="-69.4487" y1="-351.1485" x2="-58.6987" y2="-351.1485" gradientTransform="matrix(0.9034 0.4288 0.4288 -0.9034 46.1181 -217.5912)">
		<stop  offset="0.22" style="stop-color:#8A8C8E"/>
		<stop  offset="0.71" style="stop-color:#464547"/>
	</linearGradient>
	
		<path style="fill:url(#SVGID_00000055673991521751101600000015517851101654930358_);stroke:#231F20;stroke-width:0.5;stroke-miterlimit:10;" d="
		M-160.9,81.7c-0.9-0.4-1.4-1.8-1.4-1.8l-1.4-17.4c0,0,5.2,4.8,8.8,6.5"/>
	
		<linearGradient id="SVGID_00000180327172854351473710000004105579870500822168_" gradientUnits="userSpaceOnUse" x1="-56.6987" y1="-350.1885" x2="-43.6987" y2="-350.1885" gradientTransform="matrix(0.9034 0.4288 0.4288 -0.9034 46.1181 -217.5912)">
		<stop  offset="0.22" style="stop-color:#8A8C8E"/>
		<stop  offset="0.71" style="stop-color:#464547"/>
	</linearGradient>
	
		<path style="fill:url(#SVGID_00000180327172854351473710000004105579870500822168_);stroke:#231F20;stroke-width:0.5;stroke-miterlimit:10;" d="
		M-153.1,69.9c8.1,3.9,13.5,2,13.5,2l-11.2,6.9l-6.1,3.8c0,0-1.3,0.5-2.2,0"/>
	<polygon class="st37" points="-166.5,93.5 -154.7,68.6 -153.1,69.9 -164.7,94.3 	"/>
	<line class="st37" x1="-145.6" y1="86.8" x2="-151" y2="79"/>
	<line class="st37" x1="-152.5" y1="80.2" x2="-147.4" y2="88.2"/>
	<line class="st37" x1="-162.8" y1="74.3" x2="-168.2" y2="73.8"/>
	
		<ellipse transform="matrix(0.4288 -0.9034 0.9034 0.4288 -111.5164 -104.1974)" class="st46" cx="-138.2" cy="36.1" rx="9.5" ry="17.5"/>
	
		<ellipse transform="matrix(0.4288 -0.9034 0.9034 0.4288 -130.8904 -135.2249)" class="st51" cx="-172.4" cy="35.9" rx="1" ry="1.5"/>
	<path class="st52" d="M-134.8,68.7c-10.5,10.5-27.8-4.4-27.8-4.4c-4.3-6.6-2.5-11.1-2.5-11.1s-0.7,8.5,12.8,14.9
		C-141.4,73.3-133.2,67.1-134.8,68.7z"/>
	<path class="st58" d="M-133.6,63.7c-1.7,3.6-4.8,5.5-6.6,4.7c0,0-2.7-1.3-1.5-4c1-2.3,3.9-5.9,6.6-4.7
		C-134.1,60.1-132.7,61.9-133.6,63.7z"/>
	<line class="st37" x1="-141.2" y1="63.5" x2="-134" y2="64.6"/>
	<line class="st37" x1="-140.1" y1="68.4" x2="-135" y2="59.7"/>
	<polygon class="st37" points="-162.7,62.1 -173,83.8 -173.9,81.1 -164.1,60.3 	"/>
	<path class="st52" d="M-146.6,94.3c0,0,0.9,0.5,0.4,1.4l-0.5,0.9c0,0-0.5,0.9-1.4,0.4l-1.8-0.9c0,0-0.9-0.5-0.4-1.4l0.5-0.9
		c0,0,0.5-0.9,1.4-0.4"/>
	<path class="st52" d="M-164.7,94.3c0,0,0.9,0.4,0.5,1.3l-0.4,0.9c0,0-0.4,0.9-1.3,0.5l-1.8-0.9c0,0-0.9-0.4-0.5-1.3l0.4-0.9
		c0,0,0.4-0.9,1.3-0.5"/>
	<path class="st52" d="M-172.1,82c0,0,0.9,0.4,0.5,1.3l-0.4,0.9c0,0-0.4,0.9-1.3,0.5l-1.8-0.9c0,0-0.9-0.4-0.5-1.3l0.4-0.9
		c0,0,0.4-0.9,1.3-0.5"/>
	<line class="st37" x1="-167.4" y1="72" x2="-163.1" y2="72.3"/>
	<path class="st47" d="M-124.9,40.9c-1.7,3.5-8.8,3.1-15.2,0.1c-6.4-3.1-10.9-9.1-9.2-12.6c1.7-3.5,8.8-3.1,15.2-0.1
		C-127.7,31.3-123.3,37.4-124.9,40.9z"/>
	<path class="st49" d="M-140.3,29l-1.1,2.2c-0.1,0.3-0.2,0.6-0.2,0.9c0.1,1,0.8,3.1,4.1,4.7c3.4,1.6,5.3,0.8,6.2,0.2
		c0.3-0.2,0.5-0.5,0.7-0.8l0.9-1.8"/>
	<path class="st49" d="M-129.6,34.5c-0.7,1.5-3.8,1.4-6.7,0c-2.8-1.3-4.8-4-4-5.5s3.8-1.4,6.7,0C-130.9,30.3-128.9,33-129.6,34.5z"
		/>
	<path class="st50" d="M-137.1,28.8l-0.5,1.1c-0.1,0.1-0.1,0.3-0.1,0.5c0.1,0.5,0.4,1.6,2.1,2.4c1.7,0.8,2.8,0.4,3.2,0.1
		c0.2-0.1,0.3-0.2,0.3-0.4l0.5-0.9"/>
	<path class="st51" d="M-131.6,31.6c-0.4,0.8-2,0.7-3.4,0s-2.4-2-2.1-2.8s2-0.7,3.4,0C-132.2,29.5-131.2,30.8-131.6,31.6z"/>
	<path class="st50" d="M-133.4,30.8l6.9-14.5c-1.3,0-2.5-0.8-2.7-1.3l-6.9,14.5"/>
	
		<ellipse transform="matrix(0.4288 -0.9034 0.9034 0.4288 -87.281 -106.5977)" class="st51" cx="-127.9" cy="15.7" rx="1" ry="1.5"/>
	<path class="st58" d="M-178.2,82.5c-1.1,3.8-4,6.1-5.8,5.6c0,0-2.9-0.8-2-3.7c0.7-2.4,2.9-6.4,5.8-5.6
		C-179.3,79-177.7,80.5-178.2,82.5z"/>
	<line class="st37" x1="-185.8" y1="83.4" x2="-178.5" y2="83.4"/>
	<line class="st37" x1="-184" y1="88.1" x2="-180.3" y2="78.7"/>
</g>
<g id="Mashing">
	<path class="st59" d="M-167.4-12.1c-4.5,9.4-21.7,10.7-38.6,3.3c-16.9-7.5-26.5-22.2-21.8-32c4.6-9.7,21.9-11.2,38.6-3.3
		S-162.7-21.8-167.4-12.1z"/>
	<path class="st60" d="M-164.3-16c-4.9,10.2-22.6,11.9-39.7,4.3c-17.2-7.6-26.7-23.1-21.8-33.5s22.8-12.4,39.7-4.3
		S-159.3-26.5-164.3-16z"/>
	<path class="st61" d="M-164.4-24.2c0,0,3.4-8,5.6-12.5c1.3-2.7-0.8-5.5-2.8-5.8c-3.1-0.4-8.6-0.3-8.6-0.3l1.9,2.4l4.3,0
		c0,0,5.1-0.8,2.5,4.6c-2.1,4.5-3.1,6.4-3.1,6.4L-164.4-24.2L-164.4-24.2z"/>
	<path class="st61" d="M-220.4-51.6l5.1-10.8c1.8-3.8,4.6-3.3,6.1-2.7c0.6,0.3,1.2,0.7,1.6,1.3l4.9,7.4l-2.2,0l-4.6-6.6
		c0,0-2.2-2.4-4.6,2.8s-3.3,6.7-3.3,6.7S-220.4-51.6-220.4-51.6z"/>
	<path class="st60" d="M-163.4-19c-4.5,9.4-21.8,10.7-38.6,3.3c-16.9-7.5-26.5-22.3-21.9-32c4.6-9.7,21.9-11.2,38.6-3.3
		S-158.8-28.7-163.4-19z"/>
	
		<ellipse transform="matrix(0.4543 -0.8908 0.8908 0.4543 -69.6965 -190.8792)" class="st59" cx="-190.7" cy="-38.5" rx="15.5" ry="28"/>
	
		<ellipse transform="matrix(0.4543 -0.8908 0.8908 0.4543 -66.7693 -191.6232)" class="st62" cx="-189.8" cy="-41.3" rx="12.9" ry="23.3"/>
	
		<ellipse transform="matrix(0.4543 -0.8908 0.8908 0.4543 -64.9255 -191.5707)" class="st59" cx="-188.8" cy="-42.8" rx="11.1" ry="20"/>
	
		<ellipse transform="matrix(0.4543 -0.8908 0.8908 0.4543 -62.8402 -192.0955)" class="st63" cx="-188.2" cy="-44.8" rx="9.2" ry="16.6"/>
	<path class="st59" d="M-172.2-63.5c0,0,0.4-3.1-5-5.7c-6.3-3-7.6,1.9-7.6,1.9l-8.6,18.1c-2.1,4.5,9.6,10.1,11.7,5.6L-172.2-63.5"/>
	<path class="st37" d="M-194.1-55.7c0,0,0.4-0.9,2.2,0"/>
	<path class="st64" d="M-198.2-35.5c0,0-1.7,2.7-2.5,3.1c-1.5,0.6-3.5,3.6-3.3,4.3"/>
	<path class="st64" d="M-215.9-42.5c0,0,1.7-2.7,5.4-2.2c3.6,0.5,4.5,0,4.5,0"/>
	<path class="st65" d="M-172.5-62.9c-0.9,1.9-5.7,0.4-6.6-0.1s-6-3.7-5.1-5.5c0.9-1.9,4.2-2.1,7.5-0.6
		C-173.5-67.5-171.6-64.7-172.5-62.9z"/>
	<ellipse transform="matrix(0.4288 -0.9034 0.9034 0.4288 -61.903 -204.8846)" class="st66" cx="-193" cy="-53.5" rx="2.5" ry="2"/>
	<line class="st67" x1="-191.9" y1="-55.7" x2="-194" y2="-51.2"/>
	<line class="st67" x1="-195" y1="-53.9" x2="-191.4" y2="-52.2"/>
	<path class="st61" d="M-190.9-53.1c0,0,1.8,0.3,2.2,0c0,0,0.6-0.7,0.4-0.9l-2.2,0L-190.9-53.1z"/>
</g>
<g id="Malting">
	<polygon class="st68" points="200,-17.9 178.1,-16.1 186.3,-33.2 208.2,-35 	"/>
	<polygon class="st42" points="208.2,-35 186.3,-33.2 173.6,-49.7 194.2,-48.8 	"/>
	<polygon class="st42" points="186.3,-33.2 178.1,-16.1 166.6,-33.7 173.9,-49.1 	"/>
	<path class="st69" d="M198.1-23.2c-0.9,1.8-5,5.4-7.5,4.2c-1.8-0.9-3.5-4.3-1.7-8s5.2-5.8,7.7-4.6
		C199.1-30.5,199.9-26.9,198.1-23.2z"/>
	<path class="st70" d="M196.7-23.8c-0.7,1.4-3.8,4.3-5.5,3.5c-1.3-0.6-2.4-3.2-1-6.1s3.9-4.6,5.7-3.8S198.1-26.8,196.7-23.8z"/>
	<path class="st71" d="M195.8-24.3c-0.4,0.9-2.5,2.7-3.8,2.1c-0.9-0.4-1.8-2.1-0.9-4c0.9-1.9,2.6-2.9,3.9-2.3
		C196.3-27.9,196.7-26.1,195.8-24.3z"/>
	<polygon class="st72" points="198.4,-14.5 176.5,-12.8 178.3,-16.4 200.1,-18.2 	"/>
	<path class="st69" d="M196.8-17.8l-4.1-6.1c-0.1-0.2-0.2-0.4-0.1-0.6c0-0.1,0-0.1,0-0.2c0.3-1.4,2.2-1.7,3-0.6l3.5,5.1l0.2,0.3
		c0,0,1.2,1.7-0.7,2.6C197.9-17,197.1-17.6,196.8-17.8L196.8-17.8z"/>
	<polyline class="st73" points="174.2,-13.5 188.8,-43.1 180,-55 177.3,-66.8 171.7,-55 169.9,-55.9 175.9,-68.5 175.2,-72.8 
		192,-48.7 224.4,-50.6 218.4,-48.4 200.6,-10.9 199.9,-11.8 216.6,-47 206,-43.2 189.9,-42 175.5,-11.7 	"/>
	<polygon class="st74" points="174.9,-73.4 208,-75.4 225.1,-50.8 192,-48.7 	"/>
	<polygon class="st37" points="177.6,-72.1 207.1,-73.6 221.4,-52.5 192.9,-50.5 184.1,-62.9 	"/>
	<polygon class="st75" points="205.3,-43 202.7,-37.6 187.6,-37.1 189.9,-42 	"/>
	<path class="st69" d="M199.6-18.1c-0.6,1.4-2,0.7-2.4,0.5s-0.4-1.5,0-2.2c0.4-0.9,1.7-0.3,2.2,0C199.8-19.6,199.9-18.8,199.6-18.1z
		"/>
	<polygon class="st76" points="197.8,-13.2 175.9,-11.4 177.6,-15 199.5,-16.8 	"/>
	<polygon class="st72" points="175.8,-13.4 164.9,-30.1 166.6,-33.7 177.5,-17 	"/>
	<polygon class="st76" points="175.1,-12.1 164,-28.4 165.8,-32 176.8,-15.7 	"/>
	<polygon class="st75" points="188.8,-43.1 186.2,-37.7 177.4,-49.6 180,-55 	"/>
	<polygon class="st77" points="207.1,-73.6 202.2,-64.4 184.1,-62.9 177.6,-72.1 	"/>
	<polygon class="st78" points="202.2,-64.4 210.5,-51.6 221.4,-52.5 207.1,-73.6 	"/>
	<path class="st79" d="M126.2-31.3c0,0-4,3.7-4.4,4.6c0,0-3.1,1.9-1.3,2.7c0,0,2.1,2.2,2.3,4.4c0.3,2.8,14,7.8,15.4,7.3
		c1.3-0.5,3.1,0.4,3.1,0.4s0.5,1.3,1.3-0.5c0.9-1.8,1.9-8.9,3.1-10.1"/>
	<path class="st79" d="M157-12.2c0,0,6.1,2.3,6.1,4.5c0,1.4,1.4,0.8,2.4,0.2c0.7-0.4,1.2-1.1,1.3-1.9l0.6-2.9c3-2.8,4-6.7,4.3-9
		c0.1-0.7,1.2-5.3,1.7-5.8c1.8-2.4,5.3-9.2,5.6-11.7c0,0-1.6,1.6-5,1.6c-3.5,0-6.8,0.5-12.4-4.3s-7.3-3.4-7.3-3.4l-6.9,14.5
		l-2.2,9.3C145.2-21.3,150.7-13,157-12.2"/>
	<path class="st80" d="M126.8-31.6c0,0-5,3.5-5.4,4.4c0,0-3.1,1.9-1.3,2.7c0,0,2.1,2.2,2.3,4.4c0.2,1.9,3.8,3.7,6.5,4.9"/>
	<polyline class="st81" points="153.1,-13.5 149.5,-16.4 143.8,-23 154.7,-46 160,-42.9 	"/>
	<path class="st79" d="M145.4-32.1c0,0,0.2,0.1,0.5,0.3c0.9,0.5,2.6,1.8,2.8,3.8c0,0.4-0.1,0.8-0.4,1.1c-0.4,0.3-0.9,1.1-0.9,2.4
		c0,2.2-2.2,2.3-2.2,2.3c-8,2.8-18.5-7.7-19-9s3.4-7.2,3.4-7.2c4-1.4,9.9,2.5,9.9,2.5l7.2,4.7"/>
	<path class="st37" d="M130.1-37.2c0,0-0.8,4,7.3,7.9c0,0,3.6,1.7,5.8,1.7c2.2,0,3.1,0.4,3.1,0.4"/>
	<path class="st82" d="M133.6-34c-0.2,0.2-1.1-0.7-0.9-0.9 M134.9-33.9c-0.1,0.2,1.1,0.7,1.2,0.4 M144.2-33.2l1.9,5.3l0.1-0.2
		l0.1-0.6l-0.3-1.5c0.4-0.9-1.4-1.8-1.4-1.8C145.8-33,144.2-33.2,144.2-33.2 M145.7-29.2c0.4-0.9-1.4-1.8-1.4-1.8 M144.8-29.7
		l-0.5-3.6c-0.5-1.3-2-1.2-2-1.2c-0.4-1-1.3-0.6-1.3-0.6s-0.8-1.3-2.1-0.8l-0.9-0.4c-1.4-1.8-2.2,0-2.2,0c-1.1-1-1.4,0-1.4,0
		c-0.8-0.6-1.4,0.3-1.4,0.3l-0.4-0.7c-0.9-0.4-1.3,0.5-1.3,0.5s-0.7-2.1-1.1-0.7c-0.4,1.4,2.3,3.9,4.6,6.1
		c2.3,2.2,11.7,3.3,11.7,3.3 M139.8-33.1c-0.5-1.3-1.8-0.9-1.8-0.9 M140.3-29.6c-0.5-1.3-2.7-1.3-2.7-1.3 M134.9-32.1
		c-0.5-1.3-1.8-0.9-1.8-0.9 M142.9-30.5c-0.5-1.3-1.8-0.9-1.8-0.9 M137.1-32.2c-0.5-1.3-1.8-0.9-1.8-0.9"/>
	<path class="st79" d="M172.3-54.2c0,0-6.9-3.8-12.2-1.9c0,0-1.6-0.1-2.2,2.3c0,0,0,2.2-0.9,1.8c-0.9-0.4-3.5,2.8-1.7,3.6
		s-0.9,1.8-0.9,1.8s-1.8,1.4,2.3,2.2s4.5,2.1,4.5,2.1c8.7,7.4,15.3,5.1,15.3,5.1s2.7,0.1,3.3-1.2c1.3-2.7,1-5.6,1-5.6
		c2.6-3.2-1.5-4.9-1.5-4.9"/>
	<path class="st82" d="M178-48c0.4-0.9-1.4-1.8-1.4-1.8 M178.5-46.7c0.9-1.8-1.4-1.8-1.4-1.8 M172.1-51.9c-0.5-1.3-1.8-0.9-1.8-0.9
		 M172.6-48.4c-0.5-1.3-2.7-1.3-2.7-1.3 M167.2-50.9c-0.5-1.3-1.8-0.9-1.8-0.9 M175.3-49.3c-0.5-1.3-1.8-0.9-1.8-0.9 M169.5-51
		c-0.5-1.3-1.8-0.9-1.8-0.9 M160.8-54.1L160.8-54.1l2.2,0c-1.8-0.9-2.7,0.9-2.7,0.9 M164.4-54.6L164.4-54.6l1.8,0.9
		c-1.4-1.8-2.2,0-2.2,0 M164.4-54.6L164.4-54.6l0.3,2.8c-1.4-1.8-1.8-0.9-1.8-0.9 M164.4-54.6c-1.8-0.9-2.2,0-2.2,0
		c-1.1-1-1.3,0.5-1.3,0.5c-1.1-1-2,0.7-2,0.7s-2.7,0.9,10.5,8.3c0,0,6.3,3,9,2.1l0.2-1.6c2-0.8,0.2-1.6,0.2-1.6
		c1.3-0.5,0.4-0.9,0.4-0.9c0.4-0.9-0.6-1.8-0.6-1.8c0.4-0.9-1.4-1.8-1.4-1.8c0.3-3.6-1.7-0.4-2.2-1.8s-1.8-0.9-1.8-0.9
		s0-2.2-1.8-0.9l-2.5-0.6c-1.4-1.8-2.2,0-2.2,0C165.5-55.7,164.4-54.6,164.4-54.6 M162.7-51c-2.3-2.2-3.1-0.4-3.1-0.4 M164.5-50.2
		c-0.5-1.3-1.8-0.9-1.8-0.9 M176.2-46.8c-0.5-1.3-0.9-0.4-0.9-0.4 M176.9-44.9c0-2.2-1.8-0.9-1.8-0.9 M167.6-49.8
		c-1.4-1.8-2.2,0-2.2,0 M167.6-49.8L169-48c-0.5-1.3-1.8-0.9-1.8-0.9 M171.7-46.7c0.9-1.8-2.3-2.2-2.3-2.2 M174-44.5
		c-0.5-1.3-1.8-0.9-1.8-0.9 M169.4-48.9c-0.5-1.3-1.8-0.9-1.8-0.9 M165.4-49.7c0.4-0.9-1.2-1-1.2-1"/>
</g>
<g id="Lines">
	<g>
		<line class="st83" x1="-15.1" y1="-62.6" x2="-13.6" y2="-56.8"/>
		<line class="st84" x1="-10.6" y1="-45.1" x2="42.2" y2="160"/>
		<line class="st83" x1="43.8" y1="165.9" x2="45.2" y2="171.7"/>
	</g>
	<g>
		<line class="st83" x1="143.7" y1="91.2" x2="137.7" y2="91.4"/>
		<line class="st85" x1="126.1" y1="91.8" x2="-98.8" y2="99"/>
		<line class="st83" x1="-104.6" y1="99.2" x2="-110.6" y2="99.4"/>
	</g>
	<g>
		<line class="st83" x1="-125.4" y1="-11.5" x2="-119.4" y2="-11.5"/>
		<line class="st86" x1="-108" y1="-11.7" x2="91" y2="-13.9"/>
		<line class="st83" x1="96.7" y1="-14" x2="102.7" y2="-14"/>
	</g>
	<g>
		<line class="st83" x1="30.4" y1="-166.1" x2="36.4" y2="-166.1"/>
		<line class="st87" x1="50.6" y1="-166.2" x2="72" y2="-166.3"/>
		<line class="st83" x1="79.1" y1="-166.3" x2="85.1" y2="-166.3"/>
	</g>
</g>
<g id="Labels">
	<text transform="matrix(1 -3.333113e-04 3.333113e-04 1 146.3953 -213.5768)" class="st88 st89 st90">R</text>
	<text transform="matrix(1 -3.333113e-04 3.333113e-04 1 156.0152 -213.5801)" class="st88 st89 st90" style="letter-spacing:-1;">A</text>
	<text transform="matrix(1 -3.333113e-04 3.333113e-04 1 165.1852 -213.5832)" class="st88 st89 st90">W M</text>
	<text transform="matrix(1 -3.333113e-04 3.333113e-04 1 195.2553 -213.5932)" class="st88 st89 st90" style="letter-spacing:-1;">A</text>
	<text transform="matrix(1 -3.333113e-04 3.333113e-04 1 205.0651 -213.5963)" class="st88 st89 st90">TERIALS</text>
	<text transform="matrix(1 -9.757933e-03 9.757933e-03 1 -128.0573 -32.0889)" class="st88 st89 st90">M</text>
	<text transform="matrix(1 -9.757933e-03 9.757933e-03 1 -115.3078 -32.2132)" class="st88 st89 st90">A</text>
	<text transform="matrix(1 -9.757933e-03 9.757933e-03 1 -104.5584 -32.3181)" class="st88 st89 st90">SHING</text>
	<text transform="matrix(1 2.459206e-03 -2.459206e-03 1 -118.5306 75.8564)" class="st88 st89 st90">FERMEN</text>
	<text transform="matrix(1 2.459206e-03 -2.459206e-03 1 -61.4607 75.9969)" class="st88 st89 st90" style="letter-spacing:-1;">TA</text>
	<text transform="matrix(1 2.459206e-03 -2.459206e-03 1 -44.7709 76.0379)" class="st88 st89 st90">TION</text>
	<text transform="matrix(0.9988 -4.953132e-02 4.953132e-02 0.9988 11.067 -35.0162)" class="st88 st89 st90">MA</text>
	
		<text transform="matrix(0.9988 -4.953132e-02 4.953132e-02 0.9988 34.8578 -36.1959)" class="st88 st89 st90" style="letter-spacing:-1;">L</text>
	<text transform="matrix(0.9988 -4.953132e-02 4.953132e-02 0.9988 40.7306 -36.4871)" class="st88 st89 st90">TING</text>
	<text transform="matrix(1 7.138830e-04 -7.138830e-04 1 60.9038 78.2562)" class="st88 st89 st90">BOILING</text>
	<text transform="matrix(0.2778 0.9606 -0.9606 0.2778 50.9847 113.7946)" class="st88 st89 st90">A</text>
	<text transform="matrix(0.2778 0.9606 -0.9606 0.2778 53.7952 123.5161)" class="st88 st89 st90">GING</text>
</g>
<g id="RM_Labels">
	<text transform="matrix(1 -3.333113e-04 3.333113e-04 1 262.1546 -152.2125)" class="st88 st89" style="font-size:7px;">ALMONDS</text>
	
		<text transform="matrix(1 -3.333113e-04 3.333113e-04 1 219.17 -149.9449)" class="st88 st89" style="font-size:7px; letter-spacing:-1;">W</text>
	<text transform="matrix(1 -3.333113e-04 3.333113e-04 1 225.3401 -149.9469)" class="st88 st89" style="font-size:7px;">A</text>
	<text transform="matrix(1 -3.333113e-04 3.333113e-04 1 230.6202 -149.9486)" class="st88 st89" style="font-size:7px;">TER</text>
	<text transform="matrix(1 -3.333113e-04 3.333113e-04 1 174.8782 -149.4934)" class="st88 st89" style="font-size:7px;">HOPS</text>
	<text transform="matrix(1.27 -4.233053e-04 3.333113e-04 1 116.6996 -148.0278)" class="st88 st89" style="font-size:5.53px;">B</text>
	<text transform="matrix(1.27 -4.233053e-04 3.333113e-04 1 121.4238 -148.0294)" class="st88 st89" style="font-size:5.53px;">ARLEY</text>
</g>
</svg>
