<?xml version="1.0" encoding="UTF-8"?>
<svg id="noBack" xmlns="http://www.w3.org/2000/svg" viewBox="0 0 712 154.06">
  <defs>
    <style>
      .cls-1, .cls-2, .cls-3, .cls-4, .cls-5, .cls-6, .cls-7 {
        stroke-miterlimit: 10;
      }

      .cls-1, .cls-4 {
        stroke: #e3ccad;
        stroke-width: 6px;
      }

      .cls-1, .cls-4, .cls-6 {
        fill: none;
      }

      .cls-2 {
        fill: #513c3b;
      }

      .cls-2, .cls-3, .cls-5, .cls-6, .cls-7 {
        stroke: #231f20;
        stroke-width: .5px;
      }

      .cls-3 {
        fill: #4f3434;
      }

      .cls-4 {
        stroke-dasharray: 0 0 0 0 0 0 12.1 12.1;
      }

      .cls-5 {
        fill: #565656;
      }

      .cls-7 {
        fill: #664848;
      }
    </style>
  </defs>
  <g id="aging">
    <path class="cls-3" d="M378.53,74.22s-3.02,23.52-19.55,38.48c0,0-4.05,5.79-14.32,1.7-4.83-1.93-7.74-4.23-9.47-6.14-1.63-1.8-2.41-4.22-2.18-6.64,2.62-27.86,21.02-40.97,21.02-40.97"/>
    <path class="cls-2" d="M378.09,75.12c-2.28,4.42-9.8,4.19-16.21,.94s-10.17-10.96-8.41-14.37c1.46-2.82,8.9-2.41,15.3,.84,6.4,3.25,10.77,9.76,9.32,12.58h0Z"/>
    <path class="cls-7" d="M344.66,114.41c-4.83-1.93-7.74-4.23-9.47-6.14-1.63-1.8-2.41-4.22-2.18-6.64,2.62-27.86,20.59-40.51,20.59-40.51,0,0-1.85,6.24,3.48,11.18"/>
    <path class="cls-5" d="M374.5,88.11c-22.78,6.62-30.38-16.97-30.38-16.97l3.14-3.8s7.02,23.74,29.03,15.58l-1.8,5.19Z"/>
    <path class="cls-5" d="M361.79,109.45c-22.78,6.62-27.64-14.03-27.64-14.03l1.37-4.91s6.58,22.4,29.43,14.93l-3.15,4.01h0Z"/>
    <path class="cls-6" d="M353.15,66.39s-15.39,21.91-17.74,42.02"/>
    <path class="cls-6" d="M357.42,73.15s-16.17,30.37-18.01,38.41"/>
    <path class="cls-6" d="M364.27,77.17s-16.37,35.33-19.52,37.11"/>
    <path class="cls-6" d="M373.4,78.15s-15.21,31.74-22.84,37.95"/>
    <path class="cls-3" d="M405.63,89.01s-3.02,23.52-19.55,38.48c0,0-4.05,5.79-14.32,1.7-4.83-1.93-7.74-4.23-9.47-6.14-1.63-1.8-2.41-4.22-2.18-6.64,2.62-27.86,21.02-40.97,21.02-40.97"/>
    <path class="cls-2" d="M405.17,89.9c-2.28,4.42-9.8,4.19-16.21,.94-6.4-3.25-10.17-10.96-8.41-14.37,1.46-2.82,8.9-2.41,15.3,.84,6.4,3.25,10.77,9.76,9.32,12.58h0Z"/>
    <path class="cls-7" d="M371.76,129.19c-4.83-1.93-7.74-4.23-9.47-6.14-1.63-1.8-2.41-4.22-2.18-6.64,2.62-27.86,20.59-40.51,20.59-40.51,0,0-1.85,6.24,3.48,11.18"/>
    <path class="cls-5" d="M401.59,102.89c-22.78,6.62-30.38-16.97-30.38-16.97l3.14-3.8s7.02,23.74,29.03,15.58l-1.8,5.19h0Z"/>
    <path class="cls-5" d="M388.88,124.24c-22.78,6.62-27.64-14.03-27.64-14.03l1.37-4.91s6.58,22.4,29.43,14.93l-3.15,4.01h0Z"/>
    <path class="cls-6" d="M380.24,81.17s-15.39,21.91-17.74,42.02"/>
    <path class="cls-6" d="M384.51,87.94s-16.17,30.37-18.01,38.41"/>
    <path class="cls-6" d="M391.37,91.96s-16.37,35.33-19.52,37.11"/>
    <path class="cls-6" d="M400.5,92.92s-15.21,31.73-22.84,37.95"/>
  </g>
  <g id="Lines">
    <g>
      <line class="cls-4" x1="293.87" y1="-172.2" x2="346.68" y2="32.9"/>
      <line class="cls-1" x1="348.19" y1="38.76" x2="349.68" y2="44.57"/>
    </g>
  </g>
</svg>