<?xml version="1.0" encoding="UTF-8"?>
<svg id="noBack" xmlns="http://www.w3.org/2000/svg" viewBox="0 0 406.05 90.19">
  <defs>
    <style>
      .cls-1, .cls-2, .cls-3, .cls-4, .cls-5, .cls-6, .cls-7, .cls-8, .cls-9, .cls-10, .cls-11, .cls-12, .cls-13, .cls-14, .cls-15, .cls-16, .cls-17, .cls-18, .cls-19, .cls-20 {
        stroke-miterlimit: 10;
      }

      .cls-1, .cls-2, .cls-4, .cls-5, .cls-6, .cls-7, .cls-8, .cls-9, .cls-11, .cls-12, .cls-13, .cls-14, .cls-17, .cls-18, .cls-19, .cls-20 {
        stroke: #231f20;
      }

      .cls-1, .cls-7, .cls-17 {
        stroke-width: .51px;
      }

      .cls-1, .cls-11, .cls-14, .cls-19 {
        fill: #808285;
      }

      .cls-2 {
        fill: #4d4c4c;
      }

      .cls-2, .cls-4, .cls-5, .cls-9, .cls-10, .cls-12, .cls-13, .cls-14, .cls-18, .cls-20 {
        stroke-width: .5px;
      }

      .cls-3, .cls-15, .cls-16 {
        stroke: #e3ccad;
        stroke-width: 6px;
      }

      .cls-3, .cls-15, .cls-16, .cls-18 {
        fill: none;
      }

      .cls-4 {
        fill: #7f7f7f;
      }

      .cls-5 {
        fill: #646262;
      }

      .cls-6 {
        fill: #444545;
      }

      .cls-6, .cls-19 {
        stroke-width: .44px;
      }

      .cls-7 {
        fill: #505251;
      }

      .cls-8 {
        fill: #f7d92a;
        stroke-width: .15px;
      }

      .cls-9, .cls-17 {
        fill: #353535;
      }

      .cls-10 {
        stroke: #020202;
      }

      .cls-10, .cls-20 {
        fill: #a57243;
      }

      .cls-11 {
        stroke-width: .27px;
      }

      .cls-12 {
        fill: #454544;
      }

      .cls-13 {
        fill: #996632;
      }

      .cls-15 {
        stroke-dasharray: 0 0 0 0 0 0 11.37 11.37;
      }

      .cls-16 {
        stroke-dasharray: 0 0 0 0 0 0 12.1 12.1;
      }
    </style>
  </defs>
  <g id="Malting">
    <polygon class="cls-1" points="198.49 69.65 176.61 71.44 184.76 54.28 206.64 52.49 198.49 69.65"/>
    <polygon class="cls-14" points="206.64 52.49 184.76 54.28 172.13 37.82 192.72 38.74 206.64 52.49"/>
    <polygon class="cls-14" points="184.76 54.28 176.61 71.44 165.07 53.79 172.36 38.43 184.76 54.28"/>
    <path class="cls-6" d="M196.6,64.33c-.86,1.81-5.03,5.36-7.52,4.18-1.81-.86-3.51-4.28-1.73-8.02s5.24-5.82,7.73-4.63,3.29,4.73,1.52,8.47Z"/>
    <path class="cls-19" d="M195.24,63.68c-.67,1.42-3.78,4.3-5.52,3.47-1.26-.6-2.37-3.17-.97-6.12s3.94-4.65,5.69-3.82,2.2,3.53,.8,6.47Z"/>
    <path class="cls-11" d="M194.34,63.25c-.43,.9-2.51,2.68-3.76,2.09-.9-.43-1.75-2.14-.86-4.01s2.62-2.91,3.87-2.32,1.65,2.36,.76,4.23Z"/>
    <polygon class="cls-7" points="196.92 72.97 175.04 74.76 176.75 71.15 198.64 69.36 196.92 72.97"/>
    <path class="cls-6" d="M195.27,69.76l-4.1-6.11c-.12-.18-.17-.39-.13-.59,0-.05,.02-.11,.03-.16,.28-1.41,2.15-1.73,2.97-.56l3.53,5.06,.22,.31s1.18,1.74-.73,2.56c-.64,.28-1.47-.34-1.8-.52h0Z"/>
    <polyline class="cls-9" points="172.65 74.04 187.24 44.39 178.5 32.49 175.8 20.75 170.23 32.49 168.42 31.64 174.42 18.99 173.66 14.7 190.49 38.79 222.87 36.95 216.88 39.14 199.09 76.63 198.4 75.75 215.12 40.52 204.47 44.32 188.39 45.54 174.02 75.81"/>
    <polygon class="cls-5" points="173.43 14.09 206.49 12.07 223.55 36.77 190.49 38.79 173.43 14.09"/>
    <polygon class="cls-18" points="176.14 15.38 205.63 13.88 219.93 35.05 191.34 36.98 182.63 24.6 176.14 15.38"/>
    <polygon class="cls-2" points="203.79 44.5 201.22 49.92 186.12 50.44 188.39 45.54 203.79 44.5"/>
    <path class="cls-6" d="M198.04,69.44c-.64,1.36-1.95,.73-2.45,.5s-.4-1.49-.05-2.24c.43-.9,1.74-.28,2.24-.05s.62,1.03,.26,1.78Z"/>
    <polygon class="cls-17" points="196.28 74.32 174.4 76.12 176.11 72.5 197.99 70.71 196.28 74.32"/>
    <polygon class="cls-7" points="174.24 74.11 163.35 57.4 165.07 53.79 175.96 70.49 174.24 74.11"/>
    <polygon class="cls-17" points="173.6 75.46 162.53 59.14 164.25 55.52 175.32 71.85 173.6 75.46"/>
    <polygon class="cls-2" points="187.24 44.39 184.67 49.81 175.93 37.91 178.5 32.49 187.24 44.39"/>
    <polygon class="cls-12" points="205.63 13.88 200.67 23.09 182.63 24.6 176.14 15.38 205.63 13.88"/>
    <polygon class="cls-4" points="200.67 23.09 208.99 35.89 219.93 35.05 205.63 13.88 200.67 23.09"/>
    <path class="cls-13" d="M124.64,56.24s-3.95,3.66-4.38,4.56c0,0-3.09,1.85-1.29,2.71,0,0,2.11,2.2,2.33,4.43,.28,2.84,14.03,7.76,15.36,7.29s3.14,.38,3.14,.38c0,0,.47,1.33,1.33-.47s1.91-8.86,3.08-10.06"/>
    <path class="cls-13" d="M155.45,75.29s6.08,2.28,6.13,4.51c.02,1.4,1.41,.85,2.45,.23,.7-.41,1.19-1.11,1.35-1.91l.58-2.9c3.04-2.82,4.04-6.73,4.29-9.03,.08-.75,1.22-5.25,1.67-5.85,1.83-2.4,5.26-9.22,5.57-11.74,0,0-1.57,1.6-5.02,1.56s-6.81,.45-12.38-4.35-7.33-3.41-7.33-3.41l-6.86,14.45-2.24,9.34s5.52,8.32,11.79,9.08"/>
    <path class="cls-10" d="M125.3,55.95s-5.01,3.52-5.44,4.42c0,0-3.09,1.85-1.29,2.71,0,0,2.09,2.2,2.33,4.43,.21,1.95,3.82,3.66,6.53,4.95"/>
    <polyline class="cls-20" points="151.59 74.01 147.98 71.14 142.25 64.54 153.19 41.51 158.54 44.58"/>
    <path class="cls-13" d="M143.86,55.4s.19,.09,.47,.27c.86,.53,2.6,1.82,2.77,3.79,.04,.41-.14,.8-.44,1.06-.38,.34-.89,1.05-.86,2.44,.05,2.24-2.19,2.28-2.19,2.28-7.99,2.85-18.5-7.67-18.97-9s3.43-7.23,3.43-7.23c4-1.42,9.89,2.48,9.89,2.48l7.23,4.69"/>
    <path class="cls-18" d="M128.55,50.35s-.81,4.04,7.32,7.9c0,0,3.61,1.72,5.85,1.67s3.14,.38,3.14,.38"/>
    <path class="cls-8" d="M132.09,53.51c-.18,.18-1.08-.71-.9-.89m2.24,.95c-.08,.24,1.11,.66,1.2,.43m8.1,.31l1.9,5.33,.09-.2,.14-.58-.28-1.46c.43-.9-1.38-1.76-1.38-1.76,1.1-1.08-.47-1.33-.47-1.33m1.42,4c.43-.9-1.38-1.76-1.38-1.76m.47,1.33l-.52-3.57c-.47-1.33-2.02-1.22-2.02-1.22-.44-.97-1.28-.56-1.28-.56,0,0-.8-1.26-2.13-.79l-.9-.43c-1.38-1.76-2.24,.05-2.24,.05-1.14-1.04-1.35,.02-1.35,.02-.83-.55-1.39,.28-1.39,.28l-.41-.69c-.9-.43-1.33,.47-1.33,.47,0,0-.72-2.06-1.15-.67s2.33,3.94,4.61,6.13,11.7,3.34,11.7,3.34m-6.6-5.85c-.47-1.33-1.81-.86-1.81-.86m2.33,4.43c-.47-1.33-2.71-1.29-2.71-1.29m-2.71-1.29c-.47-1.33-1.81-.86-1.81-.86m9.89,2.48c-.47-1.33-1.81-.86-1.81-.86m-4.04-.81c-.47-1.33-1.81-.86-1.81-.86"/>
    <path class="cls-13" d="M170.8,33.27s-6.89-3.78-12.21-1.88c0,0-1.56-.13-2.19,2.28,0,0,.05,2.24-.86,1.81s-3.52,2.76-1.72,3.61-.86,1.81-.86,1.81c0,0-1.76,1.38,2.28,2.19s4.52,2.14,4.52,2.14c8.65,7.43,15.31,5.05,15.31,5.05,0,0,2.67,.13,3.32-1.24,1.29-2.71,1.01-5.55,1.01-5.55,2.62-3.18-1.53-4.88-1.53-4.88"/>
    <path class="cls-8" d="M176.51,39.48c.43-.9-1.38-1.76-1.38-1.76m1.85,3.09c.86-1.81-1.38-1.76-1.38-1.76m-4.99-3.48c-.47-1.33-1.81-.86-1.81-.86m2.33,4.43c-.47-1.33-2.71-1.29-2.71-1.29m-2.71-1.29c-.47-1.33-1.81-.86-1.81-.86m9.89,2.48c-.47-1.33-1.81-.86-1.81-.86m-4.04-.81c-.47-1.33-1.81-.86-1.81-.86m-6.85-2.27h0l2.24-.05c-1.81-.86-2.66,.95-2.66,.95m4-1.42h0l1.81,.86c-1.38-1.76-2.24,.05-2.24,.05m.43-.9h0l.28,2.84c-1.38-1.76-1.81-.86-1.81-.86m1.53-1.99c-1.81-.86-2.24,.05-2.24,.05-1.14-1.04-1.33,.47-1.33,.47-1.14-1.04-2,.71-2,.71,0,0-2.66,.95,10.46,8.28,0,0,6.32,3,8.99,2.05l.19-1.57c1.99-.77,.19-1.63,.19-1.63,1.33-.47,.43-.9,.43-.9,.43-.9-.6-1.76-.6-1.76,.43-.9-1.38-1.76-1.38-1.76,.25-3.57-1.68-.43-2.15-1.76s-1.81-.86-1.81-.86c0,0-.05-2.24-1.81-.86l-2.47-.56c-1.38-1.76-2.24,.05-2.24,.05-1.14-1.04-2.24,.05-2.24,.05m-1.72,3.61c-2.28-2.19-3.14-.38-3.14-.38m4.95,1.24c-.47-1.33-1.81-.86-1.81-.86m13.51,4.2c-.47-1.33-.9-.43-.9-.43m1.61,2.37c-.05-2.24-1.81-.86-1.81-.86m-7.46-4.04c-1.38-1.76-2.24,.05-2.24,.05m2.24-.05l1.38,1.76c-.47-1.33-1.81-.86-1.81-.86m4.52,2.14c.86-1.81-2.28-2.19-2.28-2.19m4.56,4.38c-.47-1.33-1.81-.86-1.81-.86m-2.76-3.52c-.47-1.33-1.81-.86-1.81-.86m-2.24,.05c.43-.9-1.25-1.01-1.25-1.01"/>
  </g>
  <g id="Lines">
    <line class="cls-16" x1="-12.08" y1="42.47" x2="40.73" y2="247.56"/>
    <g>
      <line class="cls-15" x1="-109.55" y1="75.86" x2="89.47" y2="73.61"/>
      <line class="cls-3" x1="95.15" y1="73.55" x2="101.15" y2="73.48"/>
    </g>
  </g>
</svg>