<?xml version="1.0" encoding="UTF-8"?>
<svg id="noBack" xmlns="http://www.w3.org/2000/svg" xmlns:xlink="http://www.w3.org/1999/xlink" viewBox="0 0 712 162.02">
  <defs>
    <style>
      .cls-1 {
        fill: url(#linear-gradient-2);
      }

      .cls-2 {
        fill: #674443;
      }

      .cls-3 {
        fill: url(#linear-gradient-17);
      }

      .cls-4 {
        fill: #028840;
      }

      .cls-5, .cls-6 {
        stroke: #e3ccad;
        stroke-width: 6px;
      }

      .cls-5, .cls-6, .cls-7, .cls-8 {
        fill: none;
        stroke-miterlimit: 10;
      }

      .cls-9 {
        fill: url(#linear-gradient-15);
      }

      .cls-10 {
        fill: url(#linear-gradient-18);
      }

      .cls-11 {
        fill: url(#linear-gradient-14);
      }

      .cls-12 {
        fill: url(#linear-gradient-20);
      }

      .cls-13 {
        fill: url(#linear-gradient-6);
      }

      .cls-14 {
        fill: #5b3b3b;
      }

      .cls-15 {
        fill: url(#linear-gradient-11);
      }

      .cls-16 {
        fill: #86c0e8;
      }

      .cls-6 {
        stroke-dasharray: 0 0 0 0 0 0 14.24 14.24;
      }

      .cls-17 {
        fill: url(#linear-gradient-10);
      }

      .cls-18 {
        fill: url(#linear-gradient-16);
      }

      .cls-19 {
        fill: #005fac;
      }

      .cls-20 {
        fill: url(#linear-gradient-21);
      }

      .cls-21 {
        fill: url(#linear-gradient-25);
      }

      .cls-22 {
        fill: url(#linear-gradient-5);
      }

      .cls-7 {
        stroke-width: .72px;
      }

      .cls-7, .cls-8 {
        stroke: #331b1a;
        stroke-linecap: round;
      }

      .cls-23 {
        fill: url(#linear-gradient-7);
      }

      .cls-24 {
        fill: #243d97;
      }

      .cls-25 {
        fill: url(#linear-gradient-24);
      }

      .cls-26 {
        fill: url(#linear-gradient-9);
      }

      .cls-27 {
        fill: url(#linear-gradient-22);
      }

      .cls-28 {
        fill: url(#linear-gradient-3);
      }

      .cls-29 {
        fill: url(#linear-gradient);
      }

      .cls-8 {
        stroke-width: .93px;
      }

      .cls-30 {
        fill: url(#linear-gradient-23);
      }

      .cls-31 {
        fill: url(#linear-gradient-19);
      }

      .cls-32 {
        fill: url(#linear-gradient-4);
      }

      .cls-33 {
        fill: url(#linear-gradient-8);
      }

      .cls-34 {
        fill: url(#linear-gradient-12);
      }

      .cls-35 {
        fill: url(#linear-gradient-13);
      }
    </style>
    <linearGradient id="linear-gradient" x1="408.34" y1="270.54" x2="418.34" y2="270.54" gradientTransform="translate(-40.79 125.27) rotate(27.71) scale(1 -1)" gradientUnits="userSpaceOnUse">
      <stop offset=".1" stop-color="#fff200"/>
      <stop offset=".85" stop-color="#e0a233"/>
    </linearGradient>
    <linearGradient id="linear-gradient-2" x1="406.84" y1="268.65" x2="410.73" y2="268.65" gradientTransform="translate(-40.79 125.27) rotate(27.71) scale(1 -1)" gradientUnits="userSpaceOnUse">
      <stop offset=".1" stop-color="#fff200"/>
      <stop offset=".85" stop-color="#e0a233"/>
    </linearGradient>
    <linearGradient id="linear-gradient-3" x1="422.77" y1="280.45" x2="429.32" y2="280.45" gradientTransform="translate(-38.66 124.96) rotate(28.82) scale(.96 -.99) skewX(-2.25)" gradientUnits="userSpaceOnUse">
      <stop offset=".1" stop-color="#fff200"/>
      <stop offset=".85" stop-color="#e0a233"/>
    </linearGradient>
    <linearGradient id="linear-gradient-4" x1="402.35" y1="268.85" x2="407.77" y2="268.85" gradientTransform="translate(-40.79 125.27) rotate(27.71) scale(1 -1)" gradientUnits="userSpaceOnUse">
      <stop offset=".1" stop-color="#fff200"/>
      <stop offset=".85" stop-color="#e0a233"/>
    </linearGradient>
    <linearGradient id="linear-gradient-5" x1="405.28" y1="266.56" x2="408.21" y2="266.56" gradientTransform="translate(-40.79 125.27) rotate(27.71) scale(1 -1)" gradientUnits="userSpaceOnUse">
      <stop offset=".1" stop-color="#fff200"/>
      <stop offset=".85" stop-color="#e0a233"/>
    </linearGradient>
    <linearGradient id="linear-gradient-6" x1="400.53" y1="265.65" x2="404.87" y2="265.65" gradientTransform="translate(-40.79 125.27) rotate(27.71) scale(1 -1)" gradientUnits="userSpaceOnUse">
      <stop offset=".1" stop-color="#fff200"/>
      <stop offset=".85" stop-color="#e0a233"/>
    </linearGradient>
    <linearGradient id="linear-gradient-7" x1="402.73" y1="264.4" x2="405.66" y2="264.4" gradientTransform="translate(-40.79 125.27) rotate(27.71) scale(1 -1)" gradientUnits="userSpaceOnUse">
      <stop offset=".1" stop-color="#fff200"/>
      <stop offset=".85" stop-color="#e0a233"/>
    </linearGradient>
    <linearGradient id="linear-gradient-8" x1="399.01" y1="261.6" x2="402.16" y2="261.6" gradientTransform="translate(-40.79 125.27) rotate(27.71) scale(1 -1)" gradientUnits="userSpaceOnUse">
      <stop offset=".1" stop-color="#fff200"/>
      <stop offset=".85" stop-color="#e0a233"/>
    </linearGradient>
    <linearGradient id="linear-gradient-9" x1="401.25" y1="261.77" x2="404.19" y2="261.77" gradientTransform="translate(-40.79 125.27) rotate(27.71) scale(1 -1)" gradientUnits="userSpaceOnUse">
      <stop offset=".1" stop-color="#fff200"/>
      <stop offset=".85" stop-color="#e0a233"/>
    </linearGradient>
    <linearGradient id="linear-gradient-10" x1="399.37" y1="258.77" x2="402.21" y2="258.77" gradientTransform="translate(-40.79 125.27) rotate(27.71) scale(1 -1)" gradientUnits="userSpaceOnUse">
      <stop offset=".1" stop-color="#fff200"/>
      <stop offset=".85" stop-color="#e0a233"/>
    </linearGradient>
    <linearGradient id="linear-gradient-11" x1="399.74" y1="301" x2="412.53" y2="301" gradientTransform="translate(-50.16 121.74) rotate(30.7) scale(1 -1)" gradientUnits="userSpaceOnUse">
      <stop offset=".1" stop-color="#fff200"/>
      <stop offset=".85" stop-color="#e0a233"/>
    </linearGradient>
    <linearGradient id="linear-gradient-12" x1="397.81" y1="298.59" x2="402.79" y2="298.59" gradientTransform="translate(-50.16 121.74) rotate(30.7) scale(1 -1)" gradientUnits="userSpaceOnUse">
      <stop offset=".1" stop-color="#fff200"/>
      <stop offset=".85" stop-color="#e0a233"/>
    </linearGradient>
    <linearGradient id="linear-gradient-13" x1="413.29" y1="311.18" x2="421.67" y2="311.18" gradientTransform="translate(-48.01 121.55) rotate(31.81) scale(.96 -.99) skewX(-2.25)" gradientUnits="userSpaceOnUse">
      <stop offset=".1" stop-color="#fff200"/>
      <stop offset=".85" stop-color="#e0a233"/>
    </linearGradient>
    <linearGradient id="linear-gradient-14" x1="392.07" y1="298.84" x2="399" y2="298.84" gradientTransform="translate(-50.16 121.74) rotate(30.7) scale(1 -1)" gradientUnits="userSpaceOnUse">
      <stop offset=".1" stop-color="#fff200"/>
      <stop offset=".85" stop-color="#e0a233"/>
    </linearGradient>
    <linearGradient id="linear-gradient-15" x1="395.82" y1="295.91" x2="399.56" y2="295.91" gradientTransform="translate(-50.16 121.74) rotate(30.7) scale(1 -1)" gradientUnits="userSpaceOnUse">
      <stop offset=".1" stop-color="#fff200"/>
      <stop offset=".85" stop-color="#e0a233"/>
    </linearGradient>
    <linearGradient id="linear-gradient-16" x1="389.74" y1="294.73" x2="395.29" y2="294.73" gradientTransform="translate(-50.16 121.74) rotate(30.7) scale(1 -1)" gradientUnits="userSpaceOnUse">
      <stop offset=".1" stop-color="#fff200"/>
      <stop offset=".85" stop-color="#e0a233"/>
    </linearGradient>
    <linearGradient id="linear-gradient-17" x1="392.56" y1="293.13" x2="396.3" y2="293.13" gradientTransform="translate(-50.16 121.74) rotate(30.7) scale(1 -1)" gradientUnits="userSpaceOnUse">
      <stop offset=".1" stop-color="#fff200"/>
      <stop offset=".85" stop-color="#e0a233"/>
    </linearGradient>
    <linearGradient id="linear-gradient-18" x1="387.8" y1="289.57" x2="391.82" y2="289.57" gradientTransform="translate(-50.16 121.74) rotate(30.7) scale(1 -1)" gradientUnits="userSpaceOnUse">
      <stop offset=".1" stop-color="#fff200"/>
      <stop offset=".85" stop-color="#e0a233"/>
    </linearGradient>
    <linearGradient id="linear-gradient-19" x1="390.66" y1="289.78" x2="394.42" y2="289.78" gradientTransform="translate(-50.16 121.74) rotate(30.7) scale(1 -1)" gradientUnits="userSpaceOnUse">
      <stop offset=".1" stop-color="#fff200"/>
      <stop offset=".85" stop-color="#e0a233"/>
    </linearGradient>
    <linearGradient id="linear-gradient-20" x1="388.26" y1="285.93" x2="391.89" y2="285.93" gradientTransform="translate(-50.16 121.74) rotate(30.7) scale(1 -1)" gradientUnits="userSpaceOnUse">
      <stop offset=".1" stop-color="#fff200"/>
      <stop offset=".85" stop-color="#e0a233"/>
    </linearGradient>
    <linearGradient id="linear-gradient-21" x1="142.07" y1="-186.26" x2="132.83" y2="-186.15" gradientTransform="translate(328.77 -82.92) rotate(98.38)" gradientUnits="userSpaceOnUse">
      <stop offset=".22" stop-color="#85c441"/>
      <stop offset=".71" stop-color="#028840"/>
    </linearGradient>
    <linearGradient id="linear-gradient-22" x1="329.13" y1="-98.87" x2="321.47" y2="-102.78" gradientTransform="translate(287.93 -196.49) rotate(70.67)" gradientUnits="userSpaceOnUse">
      <stop offset="0" stop-color="#85c441"/>
      <stop offset="1" stop-color="#028840"/>
    </linearGradient>
    <linearGradient id="linear-gradient-23" x1="34.99" y1="-187.14" x2="25.47" y2="-184.78" gradientTransform="translate(325.83 -23.15) rotate(111.65)" gradientUnits="userSpaceOnUse">
      <stop offset=".03" stop-color="#85c441"/>
      <stop offset=".67" stop-color="#028840"/>
    </linearGradient>
    <linearGradient id="linear-gradient-24" x1="451.44" y1="287.49" x2="448.49" y2="295.63" gradientTransform="translate(-40.79 125.27) rotate(27.71) scale(1 -1)" gradientUnits="userSpaceOnUse">
      <stop offset="0" stop-color="#85c441"/>
      <stop offset="1" stop-color="#028840"/>
    </linearGradient>
    <linearGradient id="linear-gradient-25" x1="450.49" y1="290.57" x2="447.26" y2="299.45" gradientTransform="translate(-40.79 125.27) rotate(27.71) scale(1 -1)" gradientUnits="userSpaceOnUse">
      <stop offset="0" stop-color="#85c441"/>
      <stop offset="1" stop-color="#028840"/>
    </linearGradient>
  </defs>
  <g id="Layer_16" data-name="Layer 16">
    <path class="cls-29" d="M447.32,76.26c7.13,1.49,6.62,4.6,6.62,4.6l1.35-.42c-4.8-5.91-8.85-4.65-8.85-4.65"/>
    <path class="cls-1" d="M448.37,75.42s.57,2.3-1.5,3.79-3.91,0-3.91,0c0,0,.99-2.22,2.19-2.99,1.27-.8,3.22-.8,3.22-.8Z"/>
    <path class="cls-28" d="M448.73,76.38s-.01-2.37-2.28-3.31-3.61,.96-3.61,.96c0,0,1.44,1.91,2.72,2.36,1.36,.47,3.17-.01,3.17-.01h0Z"/>
    <path class="cls-32" d="M445.18,76.95s0-1.96-1.98-2.73-3.14,.8-3.14,.8c0,0,1.24,1.58,2.36,1.95,1.18,.38,2.74-.02,2.74-.02h.01Z"/>
    <path class="cls-22" d="M445.3,76.46s-1.88-.56-3.19,1.1-.14,3.23-.14,3.23c0,0,1.88-.74,2.56-1.7,.71-1.01,.78-2.63,.78-2.63h0Z"/>
    <path class="cls-13" d="M441.92,76.9s-1.1-1.62-3.17-1.16-2.15,2.42-2.15,2.42c0,0,1.92,.61,3.05,.3,1.19-.34,2.26-1.55,2.26-1.55h0Z"/>
    <path class="cls-23" d="M442.03,77.19s-1.88-.56-3.19,1.1-.14,3.23-.14,3.23c0,0,1.88-.74,2.56-1.7,.71-1.01,.78-2.63,.78-2.63h0Z"/>
    <path class="cls-33" d="M437.91,78.34s-1.73-.92-3.35,.45-.77,3.14-.77,3.14c0,0,1.98-.35,2.83-1.17,.89-.86,1.28-2.42,1.28-2.42h0Z"/>
    <path class="cls-26" d="M437.83,77.97s1.56,1.19,.99,3.23-2.53,2.01-2.53,2.01c0,0-.51-1.95-.13-3.06,.4-1.17,1.66-2.18,1.66-2.18Z"/>
    <path class="cls-17" d="M435.99,80.33s-1.95-.22-2.95,1.64,.43,3.2,.43,3.2c0,0,1.72-1.06,2.21-2.12,.52-1.12,.31-2.73,.31-2.73Z"/>
    <path class="cls-15" d="M448.22,67.86c9,2.37,8.15,6.32,8.15,6.32l1.75-.45c-5.74-7.87-10.99-6.52-10.99-6.52"/>
    <path class="cls-34" d="M449.62,66.86s.57,2.97-2.17,4.74-4.99-.28-4.99-.28c0,0,1.41-2.77,3-3.67,1.67-.93,4.17-.8,4.17-.8h0Z"/>
    <path class="cls-35" d="M450.01,68.12s.14-3.03-2.69-4.38-4.68,.99-4.68,.99c0,0,1.71,2.54,3.32,3.19,1.71,.69,4.05,.19,4.05,.19Z"/>
    <path class="cls-11" d="M445.43,68.61s.11-2.5-2.34-3.62-4.06,.81-4.06,.81c0,0,1.48,2.1,2.89,2.64,1.48,.57,3.51,.17,3.51,.17h0Z"/>
    <path class="cls-9" d="M445.63,67.99s-2.36-.84-4.15,1.19c-1.79,2.03-.4,4.11-.4,4.11,0,0,2.44-.81,3.37-2,.98-1.25,1.17-3.31,1.17-3.31h0Z"/>
    <path class="cls-18" d="M441.27,68.34s-1.31-2.15-3.97-1.69c-2.66,.45-2.91,2.95-2.91,2.95,0,0,2.41,.91,3.88,.58,1.54-.35,3-1.83,3-1.83h0Z"/>
    <path class="cls-3" d="M441.41,68.71s-2.36-.84-4.15,1.19-.4,4.11-.4,4.11c0,0,2.44-.81,3.37-2,.98-1.25,1.17-3.31,1.17-3.31h0Z"/>
    <path class="cls-10" d="M436.07,69.91s-2.16-1.29-4.3,.35-1.19,3.96-1.19,3.96c0,0,2.55-.32,3.69-1.3,1.2-1.04,1.8-3.01,1.8-3.01h0Z"/>
    <path class="cls-31" d="M435.99,69.43s1.91,1.62,1.05,4.18-3.36,2.4-3.36,2.4c0,0-.52-2.53,.04-3.92,.6-1.47,2.28-2.67,2.28-2.67h0Z"/>
    <path class="cls-12" d="M433.48,72.32s-2.47-.41-3.87,1.9,.33,4.12,.33,4.12c0,0,2.27-1.23,2.96-2.56,.74-1.4,.57-3.47,.57-3.47Z"/>
  </g>
  <g id="Layer_3" data-name="Layer 3">
    <path class="cls-4" d="M488.77,70.91s-.3-3.59-4.65-5.87c-.73-.38,.89-1.69,.89-1.69,0,0,3.86,1.17,4.71,4.87s-.95,2.69-.95,2.69h0Z"/>
    <path class="cls-20" d="M495.5,85.2s2.13-3.32,1.09-6.9-6.18-2.81-6.18-2.81c0,0-2.67,3.32-.23,5.81,1.14,1.18,5.32,3.9,5.32,3.9Z"/>
    <path class="cls-27" d="M487.85,73.62s-3.76,1.57,.55,6.14c1.25,1.33,2.68,1.84,3.55,1.86,1.66,.05,2.91-.88,2.91-.88,0,0-1.37-3.1-2.43-6.11-1.24-3.54-4.57-1-4.57-1h0Z"/>
    <path class="cls-30" d="M488.04,68.67s-3.15,1.39-3.88,5.41c-.26,1.44,.71,2.53,1.34,3.12,1.23,1.12,3.16,1.44,3.16,1.44,0,0,.99-3.24,2.18-6.22,1.38-3.49-2.8-3.75-2.8-3.75h0Z"/>
    <path class="cls-25" d="M489.58,72.08s3.79-1.15,7.42,1.81c1.31,1.05,1.27,2.74,1.16,3.72-.23,1.9-1.67,3.61-1.67,3.61,0,0-3.29-2.08-6.53-3.78-3.82-2-.37-5.36-.37-5.36h0Z"/>
    <path class="cls-21" d="M489.9,68.15s4.13-1.25,8.09,1.97c1.41,1.15,1.39,2.98,1.26,4.05-.25,2.06-1.82,3.94-1.82,3.94,0,0-3.58-2.26-7.12-4.12-4.16-2.18-.41-5.84-.41-5.84Z"/>
  </g>
  <g id="Layer_4" data-name="Layer 4">
    <path class="cls-24" d="M541.07,63.66l-8.8,9.68s-4.48,4.96-3.13,9.46c.85,2.85,6.24,5.68,9.46,3.13,4.06-3.22,3.13-9.46,3.13-9.46l-.66-12.81h0Z"/>
    <path class="cls-19" d="M539.96,67.37l-6.35,6.99s-3.23,3.58-2.26,6.83c.62,2.05,4.49,4.1,6.83,2.26,2.94-2.32,2.26-6.83,2.26-6.83l-.47-9.25h0Z"/>
    <path class="cls-16" d="M539.41,70.79l-2.21,2.68s-1.13,1.37-.71,2.55c.27,.75,1.72,1.43,2.55,.71,1.04-.9,.71-2.55,.71-2.55l-.34-3.39h0Z"/>
  </g>
  <g id="Almonds">
    <path class="cls-14" d="M575.29,78.83s-3.52-1.85-2.01-6.44c1.57-4.78,9.07-8.71,9.07-8.71,0,0,2.52-1.37,2.82,1.48s-.55,9.59-3.1,12.74-6.78,.94-6.78,.94Z"/>
    <path class="cls-8" d="M581.52,64.85c-2.28,2.19-7.77,8.34-7.4,11.93"/>
    <path class="cls-8" d="M584.17,66.25c-.51,3.12-2.83,11.14-5.99,12.86"/>
    <path class="cls-2" d="M582.47,81.56s-2.74-1.45-1.57-5.03c1.23-3.72,7.08-6.79,7.08-6.79,0,0,1.96-1.07,2.2,1.15s-.43,7.48-2.42,9.94c-1.99,2.45-5.28,.73-5.28,.73h0Z"/>
    <path class="cls-7" d="M587.33,70.67c-1.78,1.71-6.06,6.51-5.77,9.31"/>
    <path class="cls-7" d="M589.4,71.75c-.4,2.43-2.21,8.68-4.67,10.03"/>
  </g>
  <g id="Lines">
    <g>
      <line class="cls-5" x1="334.81" y1="83.46" x2="340.81" y2="83.43"/>
      <line class="cls-6" x1="355.04" y1="83.36" x2="376.4" y2="83.27"/>
      <line class="cls-5" x1="383.52" y1="83.24" x2="389.52" y2="83.22"/>
    </g>
  </g>
</svg>