<?xml version="1.0" encoding="UTF-8"?>
<svg id="noBack" xmlns="http://www.w3.org/2000/svg" viewBox="0 0 307.45 90.19">
  <defs>
    <style>
      .cls-1, .cls-2, .cls-3, .cls-4, .cls-5, .cls-6, .cls-7, .cls-8, .cls-9, .cls-10, .cls-11 {
        stroke-miterlimit: 10;
      }

      .cls-1, .cls-4, .cls-6, .cls-8, .cls-9, .cls-10, .cls-11 {
        fill: none;
      }

      .cls-1, .cls-8, .cls-10 {
        stroke: #e3ccad;
        stroke-width: 6px;
      }

      .cls-2 {
        fill: #757679;
      }

      .cls-2, .cls-3, .cls-4, .cls-5, .cls-6, .cls-7, .cls-12, .cls-13, .cls-14, .cls-9, .cls-11 {
        stroke: #231f20;
      }

      .cls-2, .cls-4 {
        stroke-width: .25px;
      }

      .cls-3 {
        stroke-width: .52px;
      }

      .cls-3, .cls-13, .cls-14 {
        fill: #b04949;
      }

      .cls-5 {
        fill: #a41e21;
      }

      .cls-5, .cls-7 {
        stroke-width: .65px;
      }

      .cls-6 {
        stroke-width: .39px;
      }

      .cls-7, .cls-12 {
        fill: #c82127;
      }

      .cls-12 {
        stroke-width: .65px;
      }

      .cls-12, .cls-13, .cls-14 {
        stroke-miterlimit: 10;
      }

      .cls-13 {
        stroke-width: .39px;
      }

      .cls-14 {
        stroke-width: .54px;
      }

      .cls-8 {
        stroke-dasharray: 0 0 0 0 0 0 11.37 11.37;
      }

      .cls-9 {
        stroke-width: .59px;
      }

      .cls-10 {
        stroke-dasharray: 0 0 0 0 0 0 12.1 12.1;
      }

      .cls-11 {
        stroke-width: .5px;
      }
    </style>
  </defs>
  <g id="Mashing">
    <path class="cls-7" d="M137.07,75.42c-4.52,9.45-21.74,10.75-38.57,3.28-16.88-7.49-26.47-22.23-21.85-31.96s21.89-11.2,38.57-3.28c16.69,7.92,26.49,22.24,21.85,31.96Z"/>
    <path class="cls-5" d="M140.18,71.48c-4.86,10.16-22.6,11.92-39.75,4.33-17.2-7.61-26.73-23.08-21.77-33.54,4.96-10.45,22.76-12.4,39.75-4.33s26.76,23.1,21.77,33.54Z"/>
    <path class="cls-2" d="M140.01,63.32s3.42-8.03,5.57-12.54c1.29-2.71-.82-5.51-2.8-5.76-3.14-.38-8.65-.27-8.65-.27l1.91,2.43,4.32-.03s5.12-.83,2.55,4.59c-2.14,4.52-3.08,6.37-3.08,6.37l.17,5.24v-.02Z"/>
    <path class="cls-2" d="M84,35.93l5.15-10.84c1.8-3.79,4.59-3.32,6.1-2.69,.64,.26,1.18,.71,1.6,1.27l4.94,7.43-2.24,.05-4.61-6.62s-2.17-2.42-4.65,2.8-3.25,6.74-3.25,6.74c0,0-3.05,1.87-3.05,1.87Z"/>
    <path class="cls-5" d="M141.02,68.54c-4.52,9.45-21.76,10.74-38.63,3.25-16.91-7.51-26.52-22.25-21.9-31.98s21.91-11.18,38.63-3.25c16.71,7.93,26.56,22.27,21.9,31.98Z"/>
    <ellipse class="cls-12" cx="113.78" cy="48.97" rx="15.5" ry="28" transform="translate(18.46 128.08) rotate(-62.98)"/>
    <ellipse class="cls-14" cx="114.64" cy="46.21" rx="12.9" ry="23.31" transform="translate(21.39 127.34) rotate(-62.98)"/>
    <ellipse class="cls-12" cx="115.6" cy="44.73" rx="11.05" ry="19.96" transform="translate(23.23 127.39) rotate(-62.98)"/>
    <ellipse class="cls-13" cx="116.22" cy="42.77" rx="9.2" ry="16.62" transform="translate(25.32 126.87) rotate(-62.98)"/>
    <path class="cls-7" d="M132.28,23.99s.38-3.14-5.04-5.71c-6.32-3-7.56,1.94-7.56,1.94l-8.58,18.07c-2.14,4.52,9.6,10.09,11.74,5.57l9.43-19.87"/>
    <path class="cls-11" d="M110.3,31.82s.43-.9,2.24-.05"/>
    <path class="cls-4" d="M106.24,52.03s-1.7,2.75-2.46,3.05c-1.49,.61-3.47,3.6-3.29,4.27"/>
    <path class="cls-4" d="M88.57,45.05s1.72-2.69,5.37-2.23,4.51-.02,4.51-.02"/>
    <path class="cls-3" d="M131.98,24.63c-.88,1.85-5.71,.38-6.62-.05s-6.01-3.66-5.13-5.52,4.22-2.1,7.46-.56,5.16,4.29,4.28,6.14Z"/>
    <ellipse class="cls-9" cx="111.47" cy="34.03" rx="2.5" ry="2" transform="translate(32.93 120.14) rotate(-64.61)"/>
    <line class="cls-6" x1="112.54" y1="31.77" x2="110.39" y2="36.29"/>
    <line class="cls-6" x1="109.44" y1="33.62" x2="113.06" y2="35.34"/>
    <path class="cls-2" d="M113.49,34.43s1.77,.26,2.24-.05c0,0,.56-.7,.43-.9l-2.24,.05-.43,.9Z"/>
  </g>
  <g id="Lines">
    <g>
      <line class="cls-1" x1="289.36" y1="24.94" x2="290.85" y2="30.75"/>
      <line class="cls-10" x1="293.87" y1="42.47" x2="346.68" y2="247.56"/>
    </g>
    <g>
      <line class="cls-1" x1="179.02" y1="76.05" x2="185.02" y2="75.98"/>
      <line class="cls-8" x1="196.39" y1="75.86" x2="395.41" y2="73.61"/>
    </g>
  </g>
</svg>