<?xml version="1.0" encoding="UTF-8"?>
<svg id="noBack" xmlns="http://www.w3.org/2000/svg" viewBox="0 0 407.56 126.66">
  <defs>
    <style>
      .cls-1, .cls-2, .cls-3, .cls-4, .cls-5, .cls-6, .cls-7, .cls-8, .cls-9, .cls-10, .cls-11 {
        stroke-miterlimit: 10;
      }

      .cls-1, .cls-5, .cls-10 {
        stroke: #e3ccad;
        stroke-width: 6px;
      }

      .cls-1, .cls-5, .cls-10, .cls-11 {
        fill: none;
      }

      .cls-2 {
        fill: #8c8e90;
      }

      .cls-2, .cls-3, .cls-4, .cls-6, .cls-7, .cls-8, .cls-9, .cls-11 {
        stroke: #231f20;
      }

      .cls-2, .cls-3, .cls-4, .cls-6, .cls-7, .cls-8, .cls-11 {
        stroke-width: .5px;
      }

      .cls-3, .cls-9 {
        fill: #efe994;
      }

      .cls-4 {
        fill: #e74d43;
      }

      .cls-5 {
        stroke-dasharray: 0 0 0 0 0 0 11.54 11.54;
      }

      .cls-6 {
        fill: #e52625;
      }

      .cls-7 {
        fill: #666;
      }

      .cls-8 {
        fill: #808285;
      }

      .cls-9 {
        stroke-width: .47px;
      }

      .cls-10 {
        stroke-dasharray: 0 0 0 0 0 0 12.1 12.1;
      }
    </style>
  </defs>
  <g id="Boiling">
    <path class="cls-3" d="M236.44,65.67l-16.72,35.23s.05,2.24,1.81,.86l2.14-4.52,.74-1.61-.83-2.86"/>
    <ellipse class="cls-3" cx="238.24" cy="99.18" rx="8.5" ry="16" transform="translate(46.49 271.88) rotate(-64.61)"/>
    <ellipse class="cls-9" cx="238.67" cy="98.27" rx="7.5" ry="16" transform="translate(47.55 271.75) rotate(-64.61)"/>
    <path class="cls-3" d="M254.21,81.85l2.01,.41-11.64,24.53c-.31,.67-1.1,.96-1.77,.64l-.6-.28,12.01-25.3h0Z"/>
    <ellipse class="cls-3" cx="251.1" cy="72.07" rx="8.5" ry="16" transform="translate(78.32 268.02) rotate(-64.61)"/>
    <path class="cls-3" d="M265.34,79.39l-16.72,35.23c-1.76,1.38-1.81-.86-1.81-.86l2.14-4.52,3.09-1.85"/>
    <path class="cls-3" d="M235.28,107.74l-4.07,8.58c-1.76,1.38-1.81-.86-1.81-.86l4.29-9.03,1.78,.77-.19,.54Z"/>
    <path class="cls-6" d="M236.44,65.67c-.81,4.04,2.85,7.99,2.85,7.99l-12.1,25.42s-4.47-4.5-3.61-6.31"/>
    <path class="cls-6" d="M244.01,108l12.01-25.3s6.28,.77,8.9-2.42l-12.71,25.94s-4.15,2.58-8.19,1.77Z"/>
    <path class="cls-6" d="M242.21,107.15l12.01-25.3c-7.18-1.19-13.55-6.43-13.55-6.43l-12.14,25.2s7.4,5.76,13.68,6.53Z"/>
    <path class="cls-11" d="M257.14,50.03l-5.57,11.74c-1.33,.47-3.52,2.76-3.52,2.76"/>
    <path class="cls-6" d="M265.27,53.89l-5.35,11.27s4.07,4.01,4.68,8.52c.23,1.68-.71,3.32-2.21,4.11l-.21,.11c-2.02,1.07-4.34,1.47-6.61,1.14-5.57-.83-13.09-4.3-15.96-10.74-1.92-4.32,1.08-6.94,4.76-7.7,3.49-.72,7.61,.29,7.61,.29l5.15-10.84"/>
    <ellipse class="cls-4" cx="261.42" cy="51.51" rx="2.5" ry="4.5" transform="translate(102.79 265.59) rotate(-64.61)"/>
    <path class="cls-8" d="M261.41,62.02c-5.33,1.9-8.13-3.86-8.13-3.86l1.29-2.71s1.9,5.33,8.13,3.86l-1.29,2.71Z"/>
    <path class="cls-11" d="M253.72,101.54s-1.81-.86-.95-2.66,2.66-.95,2.66-.95c0,0,.9,.43,.05,2.24s-1.76,1.38-1.76,1.38Z"/>
    <polygon class="cls-3" points="239.28 73.66 227.18 99.09 228.33 100.51 240.66 75.42 239.28 73.66"/>
    <path class="cls-3" d="M175.78,62.86l-16.72,35.23s.05,2.24,1.81,.86l2.14-4.52,.74-1.61-.83-2.86"/>
    <ellipse class="cls-3" cx="177.59" cy="96.37" rx="8.5" ry="16" transform="translate(14.38 215.48) rotate(-64.61)"/>
    <ellipse class="cls-9" cx="178.01" cy="95.46" rx="7.5" ry="16" transform="translate(15.44 215.35) rotate(-64.61)"/>
    <path class="cls-3" d="M193.56,79.04l2.01,.41-11.64,24.53c-.31,.67-1.1,.96-1.77,.64l-.6-.28,12.01-25.3h0Z"/>
    <ellipse class="cls-3" cx="190.45" cy="69.26" rx="8.5" ry="16" transform="translate(46.21 211.62) rotate(-64.61)"/>
    <polyline class="cls-8" points="234.98 92.06 242.27 76.7 241.36 76.27 234.5 90.73"/>
    <polyline class="cls-7" points="240.82 79.86 248.37 112.81 249.23 111 241.41 78.51"/>
    <polyline class="cls-2" points="199.25 95.03 234.98 92.06 234.5 90.73 234.5 90.73 229.46 85.02 199.97 86.51 196.11 94.65 199.25 95.03"/>
    <polyline class="cls-8" points="195.26 96.45 235.45 93.39 234.98 92.06 196.11 94.65 195.26 96.45"/>
    <line class="cls-11" x1="233.49" y1="106.85" x2="229.63" y2="114.98"/>
    <path class="cls-3" d="M204.69,76.58l-16.72,35.23c-1.76,1.38-1.81-.86-1.81-.86l2.14-4.52,3.09-1.85"/>
    <path class="cls-3" d="M174.63,104.93l-4.07,8.58c-1.76,1.38-1.81-.86-1.81-.86l4.29-9.03,1.78,.77-.19,.54Z"/>
    <path class="cls-6" d="M175.78,62.86c-.81,4.04,2.85,7.99,2.85,7.99l-12.1,25.42s-4.47-4.5-3.61-6.31"/>
    <path class="cls-6" d="M183.36,105.19l12.01-25.3s6.28,.77,8.9-2.42l-12.71,25.94s-4.15,2.58-8.19,1.77h0Z"/>
    <path class="cls-6" d="M181.55,104.34l12.01-25.3c-7.18-1.19-13.55-6.43-13.55-6.43l-12.14,25.2s7.4,5.76,13.68,6.53Z"/>
    <path class="cls-11" d="M196.48,47.22l-5.57,11.74c-1.33,.47-3.52,2.76-3.52,2.76"/>
    <path class="cls-6" d="M204.61,51.08l-5.57,11.74s4.3,3.54,4.91,8.04c.23,1.68-.71,3.32-2.21,4.11l-.21,.11c-2.02,1.07-4.34,1.47-6.61,1.14-5.57-.83-13.09-4.3-15.96-10.74-1.92-4.32,1.08-6.94,4.76-7.7,3.49-.72,7.61,.29,7.61,.29l5.15-10.84"/>
    <ellipse class="cls-4" cx="200.76" cy="48.7" rx="2.5" ry="4.5" transform="translate(70.68 209.19) rotate(-64.61)"/>
    <path class="cls-8" d="M200.76,59.21c-5.33,1.9-8.13-3.86-8.13-3.86l1.29-2.71s1.9,5.33,8.13,3.86l-1.29,2.71Z"/>
    <path class="cls-8" d="M202.73,67.34l33.93-2.16s.9,.43,.47,1.33l-33.29,2.67"/>
    <path class="cls-8" d="M203.67,78.86l14.91-1.23s2.24-.05,3.95-3.66c0,0,.38-3.14,1.72-3.61,1.12-.4,8.54-.93,10.9-1.08,.45-.03,.83-.29,1.02-.7l.16-.34c.17-.36-.11-.78-.52-.75l-9.37,.6s-4.47,.09-5.28,4.13-3.05,4.09-3.05,4.09l-13.84,1.18"/>
    <polyline class="cls-8" points="240.93 77.18 202.8 80.7 202.12 82 240.51 78.08"/>
    <polygon class="cls-8" points="214.99 80.79 208.84 93.49 207.72 93.51 213.72 80.87 214.99 80.79"/>
    <polygon class="cls-8" points="198.35 94.6 204.09 81.81 203.22 81.89 197.23 94.62 198.35 94.6"/>
    <path class="cls-11" d="M193.07,98.73s-1.81-.86-.95-2.66,2.66-.95,2.66-.95c0,0,.9,.43,.05,2.24s-1.76,1.38-1.76,1.38Z"/>
    <path class="cls-11" d="M261.28,87.94s-.9-.43-1.76,1.38,.05,2.24,.05,2.24c0,0,.9,.43,1.76-1.38s-.05-2.24-.05-2.24Z"/>
    <line class="cls-11" x1="260.43" y1="89.75" x2="260.85" y2="88.85"/>
    <path class="cls-11" d="M259.35,92.01s-.9-.43-1.76,1.38,.05,2.24,.05,2.24c0,0,.9,.43,1.76-1.38s-.05-2.24-.05-2.24Z"/>
    <line class="cls-11" x1="258.5" y1="93.81" x2="258.93" y2="92.91"/>
    <line class="cls-11" x1="234.23" y1="66.83" x2="233.81" y2="67.73"/>
    <polyline class="cls-11" points="236.16 105.9 236.07 103.75 235.97 106.32"/>
    <polygon class="cls-3" points="178.63 70.85 166.53 96.28 167.69 97.7 180.01 72.61 178.63 70.85"/>
    <polygon class="cls-7" points="247.22 117.06 244.03 114.45 234.36 91.03 232.79 94.34 242.75 117.16 245.93 119.77 247.22 117.06"/>
    <polygon class="cls-7" points="223.91 95.04 232.85 94.86 236.04 97.48 227.09 97.66 223.91 95.04"/>
    <polygon class="cls-7" points="233.2 114.46 242.14 114.28 245.33 116.9 236.38 117.08 233.2 114.46"/>
    <polygon class="cls-7" points="229.93 109.68 238.88 109.5 242.06 112.11 233.12 112.3 229.93 109.68"/>
    <polygon class="cls-7" points="227.51 104.74 236.45 104.56 239.63 107.18 230.69 107.36 227.51 104.74"/>
    <polygon class="cls-7" points="225.71 99.93 234.65 99.74 237.84 102.36 228.89 102.54 225.71 99.93"/>
    <polygon class="cls-7" points="236.38 117.08 233.2 114.46 224.23 91.39 222.94 94.1 231.91 117.17 235.1 119.79 236.38 117.08"/>
    <polygon class="cls-8" points="223.7 92.72 230.02 79.19 228.9 79.21 222.59 92.74 223.7 92.72"/>
  </g>
  <g id="Lines">
    <line class="cls-10" x1="-10.57" y1="-45.05" x2="42.24" y2="160.04"/>
    <g>
      <line class="cls-1" x1="143.67" y1="91.23" x2="137.67" y2="91.42"/>
      <line class="cls-5" x1="126.14" y1="91.79" x2="-98.84" y2="99"/>
    </g>
  </g>
</svg>