<?xml version="1.0" encoding="UTF-8"?>
<svg id="noBack" xmlns="http://www.w3.org/2000/svg" xmlns:xlink="http://www.w3.org/1999/xlink" viewBox="0 0 305.95 124.48">
  <defs>
    <style>
      .cls-1 {
        fill: #38362e;
      }

      .cls-1, .cls-2, .cls-3, .cls-4, .cls-5, .cls-6, .cls-7, .cls-8, .cls-9, .cls-10, .cls-11, .cls-12, .cls-13, .cls-14, .cls-15, .cls-16, .cls-17, .cls-18 {
        stroke-miterlimit: 10;
      }

      .cls-1, .cls-2, .cls-3, .cls-5, .cls-6, .cls-7, .cls-8, .cls-9, .cls-10, .cls-12, .cls-13, .cls-14, .cls-15, .cls-17, .cls-18 {
        stroke: #231f20;
      }

      .cls-1, .cls-5, .cls-6, .cls-7, .cls-9, .cls-13, .cls-15, .cls-17, .cls-18 {
        stroke-width: .5px;
      }

      .cls-2 {
        fill: #b3b3b3;
      }

      .cls-2, .cls-3 {
        stroke-width: .26px;
      }

      .cls-3 {
        fill: #7f7f7f;
      }

      .cls-4, .cls-11, .cls-16 {
        stroke: #e3ccad;
        stroke-width: 6px;
      }

      .cls-4, .cls-11, .cls-16, .cls-18 {
        fill: none;
      }

      .cls-5 {
        fill: url(#linear-gradient-5);
      }

      .cls-6, .cls-12 {
        fill: #231f20;
      }

      .cls-7 {
        fill: url(#linear-gradient-3);
      }

      .cls-8 {
        fill: url(#linear-gradient-2);
        stroke-width: .25px;
      }

      .cls-9 {
        fill: #97999c;
      }

      .cls-10 {
        fill: #8a8c8e;
      }

      .cls-11 {
        stroke-dasharray: 0 0 0 0 0 0 11.54 11.54;
      }

      .cls-12 {
        stroke-width: .15px;
      }

      .cls-13 {
        fill: url(#linear-gradient-4);
      }

      .cls-14 {
        fill: #787878;
        stroke-width: .41px;
      }

      .cls-15 {
        fill: url(#linear-gradient);
      }

      .cls-16 {
        stroke-dasharray: 0 0 0 0 0 0 12.1 12.1;
      }

      .cls-17 {
        fill: #070808;
      }
    </style>
    <linearGradient id="linear-gradient" x1="198.74" y1="-365.29" x2="232.74" y2="-365.29" gradientTransform="translate(76.67 -353.21) rotate(25.39) scale(1 -1)" gradientUnits="userSpaceOnUse">
      <stop offset=".22" stop-color="#8a8c8e"/>
      <stop offset=".71" stop-color="#464547"/>
    </linearGradient>
    <linearGradient id="linear-gradient-2" x1="195.24" y1="-360.89" x2="204.24" y2="-360.89" gradientTransform="translate(76.67 -353.21) rotate(25.39) scale(1 -1)" gradientUnits="userSpaceOnUse">
      <stop offset=".22" stop-color="#8a8c8e"/>
      <stop offset=".71" stop-color="#464547"/>
    </linearGradient>
    <linearGradient id="linear-gradient-3" x1="229.24" y1="-328.86" x2="263.74" y2="-328.86" gradientTransform="translate(76.67 -353.21) rotate(25.39) scale(1 -1)" gradientUnits="userSpaceOnUse">
      <stop offset=".22" stop-color="#8a8c8e"/>
      <stop offset=".71" stop-color="#464547"/>
    </linearGradient>
    <linearGradient id="linear-gradient-4" x1="234.99" y1="-353.82" x2="245.74" y2="-353.82" gradientTransform="translate(76.67 -353.21) rotate(25.39) scale(1 -1)" gradientUnits="userSpaceOnUse">
      <stop offset=".22" stop-color="#8a8c8e"/>
      <stop offset=".71" stop-color="#464547"/>
    </linearGradient>
    <linearGradient id="linear-gradient-5" x1="247.74" y1="-352.86" x2="260.74" y2="-352.86" gradientTransform="translate(76.67 -353.21) rotate(25.39) scale(1 -1)" gradientUnits="userSpaceOnUse">
      <stop offset=".22" stop-color="#8a8c8e"/>
      <stop offset=".71" stop-color="#464547"/>
    </linearGradient>
  </defs>
  <g id="Fermentation">
    <path class="cls-15" d="M94.62,72.46l12.43-26.2s12.11,23.46,30.72,14.58l-11.15,23.49c-19.46,10.69-32-11.87-32-11.87"/>
    <path class="cls-9" d="M137.77,60.84c-2.01,4.24-10.8,3.73-18.79-.06-7.99-3.79-13.51-11.18-11.5-15.42s10.8-3.73,18.79,.06c7.99,3.79,13.51,11.18,11.5,15.42Z"/>
    <path class="cls-14" d="M135.07,58.36c-1.66,3.5-8.78,3.13-15.22,.07s-10.87-9.09-9.22-12.58,8.78-3.13,15.22-.07c6.44,3.06,10.87,9.09,9.22,12.58Z"/>
    <path class="cls-17" d="M101.37,74.56c-1.76,1.38-1.81-.86-1.81-.86l-11.61,1.13-.9-.43c-.47-1.33,.86-1.81,.86-1.81l12.51-.7s.43-.9,1.33-.47,.05,2.24,.05,2.24l-.43,.9Z"/>
    <line class="cls-18" x1="93.76" y1="74.27" x2="91.62" y2="78.78"/>
    <path class="cls-1" d="M119.66,46.51l-1.05,2.22c-.14,.29-.2,.6-.16,.92,.11,1,.77,3.14,4.12,4.73s5.34,.78,6.22,.23c.3-.19,.53-.47,.68-.78l.87-1.84"/>
    <path class="cls-1" d="M130.35,51.98c-.72,1.53-3.84,1.37-6.66,.03s-4.76-3.97-4.03-5.5,3.84-1.37,6.66-.03,4.76,3.97,4.03,5.5Z"/>
    <path class="cls-3" d="M122.88,46.33l-.54,1.14c-.07,.14-.1,.31-.08,.47,.06,.51,.4,1.62,2.12,2.43s2.75,.4,3.2,.12c.15-.09,.27-.24,.35-.4l.45-.95"/>
    <path class="cls-2" d="M128.38,49.14c-.37,.79-1.97,.7-3.43,.01s-2.45-2.05-2.08-2.83,1.97-.7,3.43-.01,2.45,2.05,2.08,2.83Z"/>
    <line class="cls-18" x1="96" y1="74.22" x2="93.85" y2="78.74"/>
    <path class="cls-6" d="M92.04,77.88s-.9-.43-1.76,1.38,2.28,2.19,2.28,2.19c0,0,.9,.43,1.76-1.38s-.47-1.33-.47-1.33"/>
    <path class="cls-18" d="M91.75,78.5s-.13,.27,.77,.7,1.5-.44,1.5-.44"/>
    <line class="cls-18" x1="106.71" y1="84.29" x2="102.21" y2="93.78"/>
    <line class="cls-18" x1="104.02" y1="94.63" x2="108.31" y2="85.6"/>
    <path class="cls-6" d="M102.21,93.78s-.15-.07-.36-.1c-.3-.03-.71,.04-.97,.57l-.43,.9s-.43,.9,1.38,1.76,2.24-.05,2.24-.05l.43-.9s.76-1.48-.32-1.62"/>
    <path class="cls-18" d="M102.69,95.11s-.9-.43-.47-1.33"/>
    <path class="cls-18" d="M104.02,94.63s-.43,.9-1.33,.47"/>
    <path class="cls-6" d="M122.76,92.46s.9,.43,.47,1.33l-.43,.9s-.43,.9-1.33,.47l-1.81-.86s-.9-.43-.47-1.33l.43-.9s.43-.9,1.33-.47"/>
    <path class="cls-18" d="M120.52,92.51l3.43-7.23c-.21,.45,2.45-.5,2.45-.5l-4.07,8.58-1.81-.86Z"/>
    <path class="cls-8" d="M91.72,72.74l11.57-24.38c.79-1.66,2.16-3.01,3.9-3.65,.01,0,.04-.01,.05-.02,1.33-.47,6.23-1.47,4.52,2.14l.9,.43c.83-1.75-.01-2.92-.7-3.51-.38-.32-.86-.48-1.35-.47l-2.88,.06c-.75,.01-1.49,.21-2.12,.61-.88,.55-2.06,1.52-2.8,3.07l-12.01,25.3,.9,.43Z"/>
    <path class="cls-3" d="M126.55,48.32l6.86-14.45c-1.27,.04-2.53-.85-2.71-1.29l-6.86,14.45"/>
    <path class="cls-12" d="M99.39,54.25l-.47-1.33s-.9-.43-1.33,.47l.95,2.66"/>
    <path class="cls-12" d="M98.11,56.74l-.47-1.33s-.9-.43-1.33,.47l.95,2.66"/>
    <path class="cls-7" d="M169.42,66.45l11.79-24.84c-7.52,4.18-16.98,.8-16.98,.8-13.98-5.53-14.4-15.14-14.4-15.14l-10.29,21.68s-.91,10.08,10.83,15.66c12.65,6,19.69,.49,19.69,.49"/>
    <polygon class="cls-18" points="157.2 92.2 169.63 66 166.32 68.31 155.18 91.8 157.2 92.2"/>
    <line class="cls-18" x1="142.08" y1="86.84" x2="157.96" y2="85.92"/>
    <line class="cls-18" x1="141.03" y1="88.95" x2="157.11" y2="87.73"/>
    <line class="cls-18" x1="133.62" y1="76.58" x2="140.08" y2="86.29"/>
    <line class="cls-18" x1="132.76" y1="78.39" x2="139.22" y2="88.1"/>
    <path class="cls-13" d="M143.51,79.06c-.9-.43-1.38-1.76-1.38-1.76l-1.44-17.38s5.21,4.77,8.82,6.49"/>
    <path class="cls-5" d="M151.32,67.27c8.13,3.86,13.46,1.96,13.46,1.96l-11.17,6.85-6.06,3.79s-1.33,.47-2.24,.05"/>
    <polygon class="cls-18" points="137.93 90.81 149.73 65.96 151.32 67.27 139.74 91.66 137.93 90.81"/>
    <line class="cls-18" x1="158.82" y1="84.12" x2="153.42" y2="76.31"/>
    <line class="cls-18" x1="151.98" y1="77.55" x2="157.06" y2="85.5"/>
    <line class="cls-18" x1="141.68" y1="71.68" x2="136.19" y2="71.16"/>
    <ellipse class="cls-9" cx="166.28" cy="33.42" rx="9.5" ry="17.5" transform="translate(64.79 169.31) rotate(-64.61)"/>
    <ellipse class="cls-2" cx="132.06" cy="33.23" rx="1" ry="1.5" transform="translate(45.42 138.28) rotate(-64.61)"/>
    <path class="cls-6" d="M169.63,66c-10.52,10.5-27.82-4.35-27.82-4.35-4.35-6.58-2.46-11.13-2.46-11.13,0,0-.72,8.51,12.83,14.95,10.88,5.16,19.04-1.05,17.46,.54Z"/>
    <path class="cls-10" d="M170.87,61.01c-1.68,3.63-4.82,5.48-6.58,4.67,0,0-2.72-1.26-1.46-3.98,1.05-2.26,3.86-5.93,6.58-4.67,.9,.43,2.3,2.17,1.46,3.98Z"/>
    <line class="cls-18" x1="163.26" y1="60.8" x2="170.45" y2="61.92"/>
    <line class="cls-18" x1="164.29" y1="65.68" x2="169.41" y2="57.03"/>
    <polygon class="cls-18" points="141.76 59.42 131.47 81.1 130.52 78.43 140.39 57.66 141.76 59.42"/>
    <path class="cls-6" d="M157.8,91.63s.89,.46,.42,1.35l-.46,.89s-.46,.89-1.35,.42l-1.77-.93s-.89-.46-.42-1.35l.46-.89s.46-.89,1.35-.42"/>
    <path class="cls-6" d="M139.74,91.66s.9,.43,.47,1.33l-.43,.9s-.43,.9-1.33,.47l-1.81-.86s-.9-.43-.47-1.33l.43-.9s.43-.9,1.33-.47"/>
    <path class="cls-6" d="M132.33,79.29s.9,.43,.47,1.33l-.43,.9s-.43,.9-1.33,.47l-1.81-.86s-.9-.43-.47-1.33l.43-.9s.43-.9,1.33-.47"/>
    <line class="cls-18" x1="137.05" y1="69.35" x2="141.38" y2="69.58"/>
    <path class="cls-14" d="M179.52,38.18c-1.66,3.5-8.78,3.13-15.22,.07s-10.87-9.09-9.22-12.58,8.78-3.13,15.22-.07c6.44,3.06,10.87,9.09,9.22,12.58Z"/>
    <path class="cls-1" d="M164.1,26.34l-1.05,2.22c-.14,.29-.2,.6-.16,.92,.11,1,.77,3.14,4.12,4.73s5.34,.78,6.22,.23c.3-.19,.53-.47,.68-.78l.87-1.84"/>
    <path class="cls-1" d="M174.79,31.81c-.72,1.53-3.84,1.37-6.66,.03s-4.76-3.97-4.03-5.5,3.84-1.37,6.66-.03,4.76,3.97,4.03,5.5Z"/>
    <path class="cls-3" d="M167.33,26.16l-.54,1.14c-.07,.14-.1,.31-.08,.47,.06,.51,.4,1.62,2.12,2.43s2.75,.4,3.2,.12c.15-.09,.27-.24,.35-.4l.45-.95"/>
    <path class="cls-2" d="M172.82,28.96c-.37,.79-1.97,.7-3.43,.01s-2.45-2.05-2.08-2.83,1.97-.7,3.43-.01,2.45,2.05,2.08,2.83Z"/>
    <path class="cls-3" d="M170.99,28.15l6.86-14.45c-1.27,.04-2.53-.85-2.71-1.29l-6.86,14.45"/>
    <ellipse class="cls-2" cx="176.5" cy="13.05" rx="1" ry="1.5" transform="translate(89.03 166.91) rotate(-64.61)"/>
    <path class="cls-10" d="M126.22,79.8c-1.12,3.84-3.95,6.14-5.81,5.59,0,0-2.88-.84-2.04-3.72,.7-2.38,2.92-6.44,5.81-5.59,.96,.28,2.6,1.8,2.04,3.72Z"/>
    <line class="cls-18" x1="118.66" y1="80.71" x2="125.95" y2="80.76"/>
    <line class="cls-18" x1="120.41" y1="85.39" x2="124.18" y2="76.08"/>
  </g>
  <g id="Lines">
    <line class="cls-16" x1="293.87" y1="-47.72" x2="346.68" y2="157.37"/>
    <g>
      <line class="cls-11" x1="430.57" y1="89.13" x2="205.6" y2="96.34"/>
      <line class="cls-4" x1="199.83" y1="96.52" x2="193.83" y2="96.71"/>
    </g>
  </g>
</svg>