<?xml version="1.0" encoding="UTF-8"?>
<svg id="Layer_1" data-name="Layer 1" xmlns="http://www.w3.org/2000/svg" viewBox="0 0 420.95 137.88">
  <defs>
    <style>
      .cls-1, .cls-2, .cls-3, .cls-4, .cls-5, .cls-6, .cls-7, .cls-8, .cls-9, .cls-10, .cls-11, .cls-12, .cls-13, .cls-14, .cls-15, .cls-16, .cls-17, .cls-18, .cls-19, .cls-20 {
        stroke-miterlimit: 10;
      }

      .cls-1, .cls-2, .cls-3, .cls-4, .cls-5, .cls-6, .cls-7, .cls-8, .cls-10, .cls-11, .cls-12, .cls-14, .cls-15, .cls-17, .cls-18, .cls-19 {
        stroke: #231f20;
      }

      .cls-1, .cls-3, .cls-4, .cls-5, .cls-6, .cls-11, .cls-12, .cls-17, .cls-19, .cls-20 {
        stroke-width: .5px;
      }

      .cls-1, .cls-10 {
        fill: #353635;
      }

      .cls-2 {
        fill: #515352;
      }

      .cls-2, .cls-8, .cls-10 {
        stroke-width: .51px;
      }

      .cls-3 {
        fill: #4e4d4d;
      }

      .cls-4 {
        fill: #9a6732;
      }

      .cls-5 {
        fill: #464645;
      }

      .cls-6 {
        fill: #646363;
      }

      .cls-7 {
        fill: #f7d92a;
        stroke-width: .15px;
      }

      .cls-8, .cls-11, .cls-15, .cls-18 {
        fill: #818285;
      }

      .cls-9 {
        stroke-dasharray: 0 0 0 0 0 0 11.37 11.37;
      }

      .cls-9, .cls-13, .cls-16 {
        stroke: #e3cdad;
        stroke-width: 6px;
      }

      .cls-9, .cls-13, .cls-16, .cls-17 {
        fill: none;
      }

      .cls-12 {
        fill: #7f8080;
      }

      .cls-14 {
        fill: #454646;
      }

      .cls-14, .cls-18 {
        stroke-width: .44px;
      }

      .cls-15 {
        stroke-width: .27px;
      }

      .cls-16 {
        stroke-dasharray: 0 0 0 0 0 0 12.2 12.2;
      }

      .cls-19, .cls-20 {
        fill: #a57243;
      }

      .cls-20 {
        stroke: #030303;
      }
    </style>
  </defs>
  <g id="Malting">
    <polygon class="cls-8" points="245.16 85.09 224.13 97.26 224.13 76.24 245.16 64.07 245.16 85.09"/>
    <polygon class="cls-11" points="245.16 64.07 224.13 76.24 203.69 65.78 224.72 56.93 245.16 64.07"/>
    <polygon class="cls-11" points="224.13 76.24 224.13 97.26 204.21 85.09 204.21 66.28 224.13 76.24"/>
    <path class="cls-14" d="M240.73,80.67c0,2.21-2.48,7.75-5.53,7.75-2.21,0-5.53-2.61-5.53-7.19s2.48-8.3,5.53-8.3,5.53,3.16,5.53,7.75Z"/>
    <path class="cls-18" d="M239.07,80.67c0,1.74-1.74,6.09-3.87,6.09-1.55,0-3.87-2.05-3.87-5.65s1.74-6.52,3.87-6.52,3.87,2.49,3.87,6.09Z"/>
    <path class="cls-15" d="M237.96,80.67c0,1.11-1.24,3.87-2.77,3.87-1.11,0-2.77-1.31-2.77-3.6s1.24-4.15,2.77-4.15,2.77,1.58,2.77,3.87Z"/>
    <polygon class="cls-2" points="245.16 89.15 224.13 101.32 224.13 96.9 245.16 84.73 245.16 89.15"/>
    <path class="cls-14" d="M241.98,86.73l-6.99-4.16c-.2-.12-.35-.31-.41-.53-.02-.06-.03-.12-.04-.18-.39-1.54,1.33-2.76,2.7-1.97l5.93,3.39,.37,.21s2,1.18,.49,2.91c-.51,.59-1.63,.35-2.05,.33h.01Z"/>
    <polyline class="cls-1" points="221.4 101.74 221.92 65.17 207.53 57.43 199.27 46.97 199.27 61.36 197.06 61.36 197.06 45.87 194.26 41.94 222.5 58.04 254.01 40.83 249.06 45.87 249.06 91.79 247.95 91.23 247.95 48.08 239.1 56.93 223.61 65.78 223.61 102.85"/>
    <polygon class="cls-6" points="193.74 41.44 225.82 23.74 254.59 40.33 222.5 58.04 193.74 41.44"/>
    <polygon class="cls-17" points="197.06 41.44 225.82 25.95 250.17 40.33 222.5 55.82 207.92 47.58 197.06 41.44"/>
    <polygon class="cls-3" points="238.52 57.43 238.52 64.07 223.67 71.76 223.61 65.78 238.52 57.43"/>
    <path class="cls-14" d="M244.6,85.09c0,1.66-1.6,1.66-2.21,1.66s-1.11-1.29-1.11-2.21c0-1.11,1.6-1.11,2.21-1.11s1.11,.74,1.11,1.66Z"/>
    <polygon class="cls-10" points="245.16 90.81 224.13 102.98 224.13 98.56 245.16 86.39 245.16 90.81"/>
    <polygon class="cls-2" points="223.02 101.05 204.21 89.52 204.21 85.09 223.02 96.62 223.02 101.05"/>
    <polygon class="cls-10" points="223.02 102.71 204.21 91.64 204.21 87.22 223.02 98.28 223.02 102.71"/>
    <polygon class="cls-3" points="221.92 65.17 221.92 71.81 207.53 64.07 207.53 57.43 221.92 65.17"/>
    <polygon class="cls-5" points="225.82 25.95 225.24 37.51 207.92 47.58 197.06 41.44 225.82 25.95"/>
    <polygon class="cls-12" points="225.24 37.51 239.62 46.36 250.17 40.33 225.82 25.95 225.24 37.51"/>
    <path class="cls-4" d="M164.97,106.72s-2.21,5.53-2.21,6.64c0,0-2.21,3.32,0,3.32,0,0,3.15,1.2,4.43,3.32,1.63,2.71,17.7,1.11,18.81,0s3.32-1.11,3.32-1.11c0,0,1.11,1.11,1.11-1.11s-2.29-9.76-1.69-11.52"/>
    <path class="cls-4" d="M204.8,111.15s7.16-.61,8.27,1.6c.69,1.38,1.81,.18,2.56-.93,.51-.74,.66-1.67,.44-2.54l-.8-3.18c1.7-4.26,.84-8.64,0-11.07-.28-.79-1.27-5.83-1.11-6.64,.69-3.26,.89-11.72,0-14.38,0,0-.81,2.35-4.28,3.94s-6.59,3.68-14.44,1.53-8.95,.07-8.95,.07v17.7l2.19,10.4s9.46,5.7,16.1,3.49"/>
    <path class="cls-20" d="M165.49,106.12s-3.34,5.9-3.34,7c0,0-2.21,3.32,0,3.32,0,0,3.13,1.21,4.43,3.32,1.13,1.85,5.55,1.85,8.87,1.85"/>
    <polyline class="cls-19" points="200.33 111.7 195.36 110.54 186.51 106.67 186.51 78.45 193.32 78.98"/>
    <path class="cls-4" d="M183.78,96.77s.23,0,.6,.04c1.11,.12,3.46,.59,4.57,2.48,.23,.39,.24,.86,.07,1.27-.22,.52-.39,1.47,.3,2.84,1.11,2.21-1.11,3.32-1.11,3.32-6.64,6.64-22.13,1.11-23.24,0s0-8.85,0-8.85c3.32-3.32,11.07-2.21,11.07-2.21l9.45,1.26"/>
    <path class="cls-17" d="M166.07,98.98s1.11,4.43,11.07,4.43c0,0,4.43,0,6.64-1.11s3.32-1.11,3.32-1.11"/>
    <path class="cls-7" d="M171.12,100.46c-.09,.27-1.42-.2-1.33-.46m2.69-.11c.03,.28,1.43,.13,1.41-.14m8.24-3.53l4.43,4.43v-.24l-.13-.65-.97-1.33c0-1.11-2.21-1.11-2.21-1.11,.59-1.6-1.11-1.11-1.11-1.11m3.32,3.32c0-1.11-2.21-1.11-2.21-1.11m1.11,1.11l-2.21-3.32c-1.11-1.11-2.6-.27-2.6-.27-.9-.76-1.55,.04-1.55,.04,0,0-1.39-.89-2.5,.22h-1.11c-2.21-1.11-2.21,1.11-2.21,1.11-1.63-.5-1.34,.66-1.34,.66-1.1-.15-1.25,.94-1.25,.94l-.74-.5c-1.11,0-1.11,1.11-1.11,1.11,0,0-1.69-1.72-1.46-.12s4.19,2.83,7.51,3.94,13.28-2.21,13.28-2.21m-9.37-2.71c-1.11-1.11-2.21,0-2.21,0m4.43,3.32c-1.11-1.11-3.32,0-3.32,0m-3.32,0c-1.11-1.11-2.21,0-2.21,0m11.07-2.21c-1.11-1.11-2.21,0-2.21,0m-4.43,1.11c-1.11-1.11-2.21,0-2.21,0"/>
    <path class="cls-4" d="M200.21,61.87s-8.68-.51-13.1,3.92c0,0-1.63,.61-1.11,3.32,0,0,1.11,2.21,0,2.21s-2.21,4.43,0,4.43,0,2.21,0,2.21c0,0-1.11,2.21,3.32,1.11s5.53,0,5.53,0c12.17,3.32,17.7-2.21,17.7-2.21,0,0,2.73-1.14,2.73-2.82,0-3.32-1.63-6.03-1.63-6.03,1.11-4.43-3.84-4.15-3.84-4.15"/>
    <path class="cls-7" d="M208.86,65.36c0-1.11-2.21-1.11-2.21-1.11m3.32,2.21c0-2.21-2.21-1.11-2.21-1.11m-6.64-1.11c-1.11-1.11-2.21,0-2.21,0m4.43,3.32c-1.11-1.11-3.32,0-3.32,0m-3.32,0c-1.11-1.11-2.21,0-2.21,0m11.07-2.21c-1.11-1.11-2.21,0-2.21,0m-4.43,1.11c-1.11-1.11-2.21,0-2.21,0m-7.92,.98h0l2.21-1.11c-2.21,0-2.21,2.21-2.21,2.21m3.32-3.32h2.21c-2.21-1.11-2.21,1.11-2.21,1.11m0-1.11h0l1.63,2.71c-2.21-1.11-2.21,0-2.21,0m.59-2.71c-2.21,0-2.21,1.11-2.21,1.11-1.63-.5-1.11,1.11-1.11,1.11-1.63-.5-1.66,1.66-1.66,1.66,0,0-2.21,2.21,14.38,3.32,0,0,7.75,0,9.96-2.21l-.55-1.66c1.63-1.72-.59-1.72-.59-1.72,1.11-1.11,0-1.11,0-1.11,0-1.11-1.44-1.47-1.44-1.47,0-1.11-2.21-1.11-2.21-1.11-1.44-3.68-1.88,.37-2.99-.74s-2.21,0-2.21,0c0,0-1.11-2.21-2.21,0l-2.73,.61c-2.21-1.11-2.21,1.11-2.21,1.11-1.63-.5-2.21,1.11-2.21,1.11m0,4.43c-3.32-1.11-3.32,1.11-3.32,1.11m5.53-1.11c-1.11-1.11-2.21,0-2.21,0m15.49-2.21c-1.11-1.11-1.11,0-1.11,0m2.73,1.6c-1.11-2.21-2.21,0-2.21,0m-9.37-.5c-2.21-1.11-2.21,1.11-2.21,1.11m2.21-1.11l2.21,1.11c-1.11-1.11-2.21,0-2.21,0m5.53,0c0-2.21-3.32-1.11-3.32-1.11m6.64,2.21c-1.11-1.11-2.21,0-2.21,0m-4.43-2.21c-1.11-1.11-2.21,0-2.21,0m-2.21,1.11c0-1.11-1.73-.42-1.73-.42"/>
  </g>
  <g id="Lines">
    <g>
      <line class="cls-13" x1=".62" y1="20.65" x2=".62" y2="27.29"/>
      <line class="cls-16" x1=".62" y1="40.79" x2=".62" y2="223"/>
    </g>
    <g>
      <line class="cls-9" x1="-106.1" y1="101.97" x2="114.13" y2="101.97"/>
      <line class="cls-13" x1="120.42" y1="101.97" x2="127.06" y2="101.97"/>
    </g>
  </g>
</svg>