<?xml version="1.0" encoding="UTF-8"?>
<svg xmlns="http://www.w3.org/2000/svg" xmlns:xlink="http://www.w3.org/1999/xlink" viewBox="0 0 712 628">
  <defs>
    <style>
      .cls-1 {
        fill: #4d4c4c;
      }

      .cls-1, .cls-2, .cls-3, .cls-4, .cls-5, .cls-6, .cls-7, .cls-8, .cls-9, .cls-10, .cls-11, .cls-12, .cls-13, .cls-14, .cls-15, .cls-16, .cls-17, .cls-18, .cls-19, .cls-20, .cls-21, .cls-22, .cls-23, .cls-24, .cls-25, .cls-26, .cls-27, .cls-28, .cls-29, .cls-30, .cls-31, .cls-32, .cls-33, .cls-34, .cls-35, .cls-36, .cls-37, .cls-38, .cls-39, .cls-40, .cls-41, .cls-42, .cls-43, .cls-44, .cls-45, .cls-46, .cls-47, .cls-48, .cls-49, .cls-50, .cls-51, .cls-52, .cls-53, .cls-54, .cls-55, .cls-56, .cls-57, .cls-58, .cls-59 {
        stroke-miterlimit: 10;
      }

      .cls-1, .cls-2, .cls-3, .cls-4, .cls-5, .cls-6, .cls-7, .cls-8, .cls-10, .cls-11, .cls-13, .cls-14, .cls-16, .cls-17, .cls-19, .cls-20, .cls-21, .cls-22, .cls-24, .cls-25, .cls-26, .cls-27, .cls-28, .cls-29, .cls-30, .cls-31, .cls-32, .cls-34, .cls-35, .cls-36, .cls-37, .cls-38, .cls-39, .cls-40, .cls-41, .cls-42, .cls-43, .cls-46, .cls-47, .cls-48, .cls-49, .cls-50, .cls-51, .cls-52, .cls-53, .cls-54, .cls-55, .cls-56, .cls-57, .cls-58, .cls-59 {
        stroke: #231f20;
      }

      .cls-1, .cls-2, .cls-3, .cls-11, .cls-14, .cls-16, .cls-19, .cls-20, .cls-21, .cls-22, .cls-25, .cls-28, .cls-30, .cls-32, .cls-33, .cls-34, .cls-35, .cls-36, .cls-38, .cls-42, .cls-47, .cls-49, .cls-50, .cls-51, .cls-52, .cls-55, .cls-56, .cls-59 {
        stroke-width: .5px;
      }

      .cls-60 {
        letter-spacing: -.15em;
      }

      .cls-2 {
        fill: url(#linear-gradient-30);
      }

      .cls-61 {
        fill: url(#linear-gradient-2);
      }

      .cls-3 {
        fill: #38362e;
      }

      .cls-4 {
        stroke-width: .52px;
      }

      .cls-4, .cls-24, .cls-58 {
        fill: #b04949;
      }

      .cls-5 {
        stroke-width: .59px;
      }

      .cls-5, .cls-9, .cls-12, .cls-13, .cls-15, .cls-18, .cls-23, .cls-39, .cls-44, .cls-45, .cls-52 {
        fill: none;
      }

      .cls-62 {
        fill: #674443;
      }

      .cls-6 {
        fill: #505251;
      }

      .cls-6, .cls-37, .cls-54 {
        stroke-width: .51px;
      }

      .cls-63 {
        fill: url(#linear-gradient-17);
      }

      .cls-7 {
        fill: #787878;
        stroke-width: .41px;
      }

      .cls-64 {
        fill: #028840;
      }

      .cls-8 {
        stroke-width: .47px;
      }

      .cls-8, .cls-16 {
        fill: #efe994;
      }

      .cls-9, .cls-18, .cls-23, .cls-44, .cls-45 {
        stroke: #e3ccad;
        stroke-width: 6px;
      }

      .cls-10 {
        fill: #757679;
      }

      .cls-10, .cls-13, .cls-41 {
        stroke-width: .25px;
      }

      .cls-65 {
        fill: url(#linear-gradient-15);
      }

      .cls-11 {
        fill: #8c8e90;
      }

      .cls-12 {
        stroke-width: .93px;
      }

      .cls-12, .cls-15 {
        stroke: #331b1a;
        stroke-linecap: round;
      }

      .cls-66 {
        fill: url(#linear-gradient-18);
      }

      .cls-14, .cls-46 {
        fill: #231f20;
      }

      .cls-15 {
        stroke-width: .72px;
      }

      .cls-17 {
        fill: #a41e21;
      }

      .cls-17, .cls-40 {
        stroke-width: .65px;
      }

      .cls-18 {
        stroke-dasharray: 0 0 12.1 12.1;
      }

      .cls-19 {
        fill: #513c3b;
      }

      .cls-67 {
        fill: url(#linear-gradient-14);
      }

      .cls-68 {
        fill: url(#linear-gradient-20);
      }

      .cls-69 {
        fill: url(#linear-gradient-6);
      }

      .cls-70 {
        fill: #5b3b3b;
      }

      .cls-20 {
        fill: #4f3434;
      }

      .cls-21, .cls-48, .cls-53 {
        fill: #7f7f7f;
      }

      .cls-22 {
        fill: #646262;
      }

      .cls-71 {
        letter-spacing: -.07em;
      }

      .cls-23 {
        stroke-dasharray: 0 0 11.37 11.37;
      }

      .cls-72 {
        fill: url(#linear-gradient-11);
      }

      .cls-24, .cls-39 {
        stroke-width: .39px;
      }

      .cls-25 {
        fill: #e74d43;
      }

      .cls-73 {
        fill: #86c0e8;
      }

      .cls-26 {
        fill: #444545;
      }

      .cls-26, .cls-57 {
        stroke-width: .44px;
      }

      .cls-27 {
        stroke-width: .27px;
      }

      .cls-27, .cls-37, .cls-38, .cls-57 {
        fill: #808285;
      }

      .cls-74 {
        fill: url(#linear-gradient-10);
      }

      .cls-28 {
        fill: #97999c;
      }

      .cls-75 {
        letter-spacing: 0em;
      }

      .cls-29 {
        fill: #8a8c8e;
      }

      .cls-76 {
        fill: url(#linear-gradient-16);
      }

      .cls-77 {
        fill: #005fac;
      }

      .cls-30, .cls-54 {
        fill: #353535;
      }

      .cls-31 {
        fill: #b3b3b3;
      }

      .cls-31, .cls-53 {
        stroke-width: .26px;
      }

      .cls-78 {
        font-size: 13px;
      }

      .cls-78, .cls-79, .cls-80 {
        fill: #e3ccad;
        font-family: LEMONMILK-Bold, 'LEMON MILK';
        font-weight: 700;
      }

      .cls-32 {
        fill: #e52625;
      }

      .cls-33 {
        stroke: #020202;
      }

      .cls-33, .cls-55 {
        fill: #a57243;
      }

      .cls-81 {
        fill: url(#linear-gradient-21);
      }

      .cls-34 {
        fill: #454544;
      }

      .cls-35 {
        fill: #996632;
      }

      .cls-36 {
        fill: #666;
      }

      .cls-82 {
        fill: url(#linear-gradient-25);
      }

      .cls-83 {
        fill: url(#linear-gradient-5);
      }

      .cls-84 {
        letter-spacing: -.02em;
      }

      .cls-40 {
        fill: #c82127;
      }

      .cls-85 {
        fill: url(#linear-gradient-7);
      }

      .cls-41 {
        fill: url(#linear-gradient-27);
      }

      .cls-86 {
        letter-spacing: -.01em;
      }

      .cls-79 {
        font-size: 5.53px;
      }

      .cls-87 {
        fill: #243d97;
      }

      .cls-88 {
        fill: url(#linear-gradient-24);
      }

      .cls-89 {
        fill: url(#linear-gradient-9);
      }

      .cls-90 {
        fill: url(#linear-gradient-22);
      }

      .cls-80 {
        font-size: 7px;
      }

      .cls-42 {
        fill: #565656;
      }

      .cls-43 {
        fill: #f7d92a;
      }

      .cls-43, .cls-46 {
        stroke-width: .15px;
      }

      .cls-91 {
        fill: url(#linear-gradient-3);
      }

      .cls-44 {
        stroke-dasharray: 0 0 11.54 11.54;
      }

      .cls-92 {
        letter-spacing: -.1em;
      }

      .cls-45 {
        stroke-dasharray: 0 0 14.24 14.24;
      }

      .cls-93 {
        fill: url(#linear-gradient);
      }

      .cls-47 {
        fill: #070808;
      }

      .cls-48 {
        stroke-width: .26px;
      }

      .cls-49 {
        fill: #ded4a8;
      }

      .cls-50 {
        fill: url(#linear-gradient-29);
      }

      .cls-51 {
        fill: url(#linear-gradient-26);
      }

      .cls-94 {
        fill: url(#linear-gradient-23);
      }

      .cls-95 {
        fill: url(#linear-gradient-19);
      }

      .cls-96 {
        fill: url(#linear-gradient-4);
      }

      .cls-56 {
        fill: #664848;
      }

      .cls-97 {
        fill: url(#linear-gradient-8);
      }

      .cls-58 {
        stroke-width: .54px;
      }

      .cls-59 {
        fill: url(#linear-gradient-28);
      }

      .cls-98 {
        fill: url(#linear-gradient-12);
      }

      .cls-99 {
        fill: url(#linear-gradient-13);
      }
    </style>
    <linearGradient id="linear-gradient" x1="392.09" y1="121.85" x2="402.09" y2="121.85" gradientTransform="translate(7.94 -4.48) rotate(2.32)" gradientUnits="userSpaceOnUse">
      <stop offset=".1" stop-color="#fff200"/>
      <stop offset=".85" stop-color="#e0a233"/>
    </linearGradient>
    <linearGradient id="linear-gradient-2" x1="390.58" y1="123.74" x2="394.47" y2="123.74" gradientTransform="translate(7.94 -4.48) rotate(2.32)" gradientUnits="userSpaceOnUse">
      <stop offset=".1" stop-color="#fff200"/>
      <stop offset=".85" stop-color="#e0a233"/>
    </linearGradient>
    <linearGradient id="linear-gradient-3" x1="398.58" y1="115.64" x2="405.13" y2="115.64" gradientTransform="translate(9.34 -5.15) rotate(3.43) scale(.96 .99) skewX(2.25)" xlink:href="#linear-gradient-2"/>
    <linearGradient id="linear-gradient-4" x1="386.09" y1="123.53" x2="391.51" y2="123.53" xlink:href="#linear-gradient-2"/>
    <linearGradient id="linear-gradient-5" x1="389.02" y1="125.83" x2="391.95" y2="125.83" xlink:href="#linear-gradient-2"/>
    <linearGradient id="linear-gradient-6" x1="384.27" y1="126.74" x2="388.61" y2="126.74" xlink:href="#linear-gradient-2"/>
    <linearGradient id="linear-gradient-7" x1="386.47" y1="127.99" x2="389.4" y2="127.99" xlink:href="#linear-gradient-2"/>
    <linearGradient id="linear-gradient-8" x1="382.75" y1="130.78" x2="385.9" y2="130.78" xlink:href="#linear-gradient-2"/>
    <linearGradient id="linear-gradient-9" x1="384.99" y1="130.63" x2="387.93" y2="130.63" xlink:href="#linear-gradient-2"/>
    <linearGradient id="linear-gradient-10" x1="383.11" y1="133.63" x2="385.95" y2="133.63" xlink:href="#linear-gradient-2"/>
    <linearGradient id="linear-gradient-11" x1="382.47" y1="101.85" x2="395.26" y2="101.85" gradientTransform="translate(20.31 -11.73) rotate(5.31)" xlink:href="#linear-gradient"/>
    <linearGradient id="linear-gradient-12" x1="380.54" y1="104.27" x2="385.52" y2="104.27" gradientTransform="translate(20.31 -11.73) rotate(5.31)" xlink:href="#linear-gradient-2"/>
    <linearGradient id="linear-gradient-13" x1="387.84" y1="95.48" x2="396.22" y2="95.48" gradientTransform="translate(21.75 -12.33) rotate(6.42) scale(.96 .99) skewX(2.25)" xlink:href="#linear-gradient-2"/>
    <linearGradient id="linear-gradient-14" x1="374.8" y1="104.01" x2="381.73" y2="104.01" gradientTransform="translate(20.31 -11.73) rotate(5.31)" xlink:href="#linear-gradient-2"/>
    <linearGradient id="linear-gradient-15" x1="378.55" y1="106.95" x2="382.29" y2="106.95" gradientTransform="translate(20.31 -11.73) rotate(5.31)" xlink:href="#linear-gradient-2"/>
    <linearGradient id="linear-gradient-16" x1="372.47" y1="108.11" x2="378.02" y2="108.11" gradientTransform="translate(20.31 -11.73) rotate(5.31)" xlink:href="#linear-gradient-2"/>
    <linearGradient id="linear-gradient-17" x1="375.29" y1="109.71" x2="379.03" y2="109.71" gradientTransform="translate(20.31 -11.73) rotate(5.31)" xlink:href="#linear-gradient-2"/>
    <linearGradient id="linear-gradient-18" x1="370.53" y1="113.28" x2="374.55" y2="113.28" gradientTransform="translate(20.31 -11.73) rotate(5.31)" xlink:href="#linear-gradient-2"/>
    <linearGradient id="linear-gradient-19" x1="373.39" y1="113.08" x2="377.15" y2="113.08" gradientTransform="translate(20.31 -11.73) rotate(5.31)" xlink:href="#linear-gradient-2"/>
    <linearGradient id="linear-gradient-20" x1="370.99" y1="116.92" x2="374.62" y2="116.92" gradientTransform="translate(20.31 -11.73) rotate(5.31)" xlink:href="#linear-gradient-2"/>
    <linearGradient id="linear-gradient-21" x1="235.89" y1="423.39" x2="226.65" y2="423.28" gradientTransform="translate(-33.8 20.05) rotate(72.99) scale(1 -1)" gradientUnits="userSpaceOnUse">
      <stop offset=".22" stop-color="#85c441"/>
      <stop offset=".71" stop-color="#028840"/>
    </linearGradient>
    <linearGradient id="linear-gradient-22" x1="349.54" y1="398.11" x2="341.88" y2="402.02" gradientTransform="translate(-92.17 151.36) rotate(45.28) scale(1 -1)" gradientUnits="userSpaceOnUse">
      <stop offset="0" stop-color="#85c441"/>
      <stop offset="1" stop-color="#028840"/>
    </linearGradient>
    <linearGradient id="linear-gradient-23" x1="172.48" y1="408.6" x2="162.96" y2="406.24" gradientTransform="translate(13.41 -27.1) rotate(86.26) scale(1 -1)" gradientUnits="userSpaceOnUse">
      <stop offset=".03" stop-color="#85c441"/>
      <stop offset=".67" stop-color="#028840"/>
    </linearGradient>
    <linearGradient id="linear-gradient-24" x1="435.19" y1="104.91" x2="432.23" y2="96.76" gradientTransform="translate(7.94 -4.48) rotate(2.32)" xlink:href="#linear-gradient-22"/>
    <linearGradient id="linear-gradient-25" x1="434.24" y1="101.83" x2="431.01" y2="92.95" gradientTransform="translate(7.94 -4.48) rotate(2.32)" xlink:href="#linear-gradient-22"/>
    <linearGradient id="linear-gradient-26" x1="183.64" y1="497.44" x2="217.64" y2="497.44" gradientUnits="userSpaceOnUse">
      <stop offset=".22" stop-color="#8a8c8e"/>
      <stop offset=".71" stop-color="#464547"/>
    </linearGradient>
    <linearGradient id="linear-gradient-27" x1="180.14" y1="493.04" x2="189.14" y2="493.04" xlink:href="#linear-gradient-26"/>
    <linearGradient id="linear-gradient-28" x1="214.14" y1="461.01" x2="248.64" y2="461.01" xlink:href="#linear-gradient-26"/>
    <linearGradient id="linear-gradient-29" x1="219.89" y1="485.97" x2="230.64" y2="485.97" xlink:href="#linear-gradient-26"/>
    <linearGradient id="linear-gradient-30" x1="232.64" y1="485.01" x2="245.64" y2="485.01" xlink:href="#linear-gradient-26"/>
  </defs>
  <g id="Layer_17" data-name="Layer 17">
    <image width="220" height="420" transform="translate(213 139) scale(.4)" xlink:href="beer_Nobckd.png"/>
  </g>
  <g id="Layer_16" data-name="Layer 16">
    <path class="cls-93" d="m395.76,133.36c7.08-1.71,7.95,1.32,7.95,1.32l1.04-.96c-6.87-3.28-9.99-.41-9.99-.41"/>
    <path class="cls-61" d="m396.35,132.15s1.5,1.83.27,4.07-3.54,1.67-3.54,1.67c0,0-.06-2.43.7-3.64.8-1.27,2.57-2.1,2.57-2.1Z"/>
    <path class="cls-91" d="m397.09,132.87s-1.03-2.14-3.48-2.01-2.85,2.42-2.85,2.42c0,0,2.12,1.11,3.47.96,1.43-.16,2.86-1.37,2.86-1.37Z"/>
    <path class="cls-96" d="m394.12,134.91s-.85-1.77-2.96-1.62-2.49,2.07-2.49,2.07c0,0,1.8.9,2.97.75,1.23-.16,2.47-1.19,2.47-1.19Z"/>
    <path class="cls-83" d="m394.02,134.41s-1.94.3-2.41,2.36,1.26,2.98,1.26,2.98c0,0,1.38-1.47,1.58-2.63.21-1.22-.42-2.71-.42-2.71Z"/>
    <path class="cls-69" d="m391.16,136.26s-1.69-.99-3.36.31-.9,3.11-.9,3.11c0,0,2-.27,2.88-1.04.93-.82,1.38-2.37,1.38-2.37Z"/>
    <path class="cls-85" d="m391.38,136.47s-1.94.3-2.41,2.36,1.26,2.98,1.26,2.98c0,0,1.38-1.47,1.58-2.63.21-1.22-.42-2.71-.42-2.71Z"/>
    <path class="cls-97" d="m388.15,139.28s-1.96-.09-2.83,1.84.65,3.17.65,3.17c0,0,1.64-1.17,2.06-2.27.44-1.16.12-2.74.12-2.74Z"/>
    <path class="cls-89" d="m387.92,138.98s1.92.41,2.28,2.49-1.42,2.9-1.42,2.9c0,0-1.3-1.54-1.43-2.71-.14-1.23.57-2.68.57-2.68Z"/>
    <path class="cls-74" d="m387.27,141.9s-1.85.64-1.96,2.75,1.76,2.71,1.76,2.71c0,0,1.1-1.69,1.09-2.86-.01-1.24-.89-2.6-.89-2.6Z"/>
    <path class="cls-72" d="m392.97,125.39c9.15-1.72,10.07,2.22,10.07,2.22l1.39-1.16c-8.56-4.65-12.73-1.18-12.73-1.18"/>
    <path class="cls-98" d="m393.81,123.89s1.79,2.44.07,5.21-4.63,1.89-4.63,1.89c0,0,.09-3.11,1.14-4.6,1.11-1.56,3.42-2.51,3.42-2.51Z"/>
    <path class="cls-99" d="m394.7,124.86s-1.17-2.8-4.31-2.8c-3.14,0-3.8,2.9-3.8,2.9,0,0,2.63,1.56,4.37,1.46,1.84-.11,3.74-1.56,3.74-1.56Z"/>
    <path class="cls-67" d="m390.77,127.27s-.97-2.31-3.67-2.27-3.32,2.47-3.32,2.47c0,0,2.24,1.26,3.74,1.15,1.58-.12,3.24-1.35,3.24-1.35Z"/>
    <path class="cls-65" d="m390.69,126.62s-2.49.25-3.24,2.85,1.4,3.89,1.4,3.89c0,0,1.86-1.78,2.19-3.25.35-1.55-.36-3.49-.36-3.49Z"/>
    <path class="cls-76" d="m386.9,128.8s-2.1-1.38-4.31.17-1.36,3.91-1.36,3.91c0,0,2.57-.21,3.75-1.14,1.24-.98,1.93-2.94,1.93-2.94Z"/>
    <path class="cls-63" d="m387.18,129.08s-2.49.25-3.24,2.85,1.4,3.89,1.4,3.89c0,0,1.86-1.78,2.19-3.25.35-1.55-.36-3.49-.36-3.49Z"/>
    <path class="cls-66" d="m382.87,132.45s-2.5-.24-3.73,2.16.62,4.09.62,4.09c0,0,2.17-1.38,2.78-2.76.64-1.45.34-3.49.34-3.49Z"/>
    <path class="cls-95" d="m382.59,132.05s2.42.65,2.74,3.33-2.01,3.61-2.01,3.61c0,0-1.55-2.06-1.64-3.56-.09-1.58.91-3.39.91-3.39Z"/>
    <path class="cls-68" d="m381.57,135.74s-2.41.69-2.68,3.38,2.07,3.58,2.07,3.58c0,0,1.52-2.08,1.58-3.58.07-1.58-.97-3.38-.97-3.38Z"/>
  </g>
  <g id="Layer_3" data-name="Layer 3">
    <path class="cls-64" d="m430.91,110.76s-1.81-3.11-6.72-3.31c-.82-.03.08-1.91.08-1.91,0,0,3.99-.6,6.34,2.38s.3,2.84.3,2.84Z"/>
    <path class="cls-81" d="m443.12,120.78s.5-3.91-1.97-6.7-6.79.11-6.79.11c0,0-.99,4.14,2.28,5.35,1.54.58,6.48,1.24,6.48,1.24Z"/>
    <path class="cls-90" d="m431.24,113.6s-2.72,3.03,3.13,5.31c1.7.66,3.21.51,4,.16,1.52-.67,2.25-2.04,2.25-2.04,0,0-2.57-2.21-4.82-4.48-2.64-2.67-4.56,1.06-4.56,1.06Z"/>
    <path class="cls-94" d="m429.29,109.05s-2.25,2.61-1.19,6.55c.38,1.41,1.73,1.98,2.55,2.24,1.59.49,3.47-.05,3.47-.05,0,0-.49-3.35-.7-6.55-.25-3.75-4.14-2.19-4.14-2.19Z"/>
    <path class="cls-88" d="m432.15,111.47s2.93-2.66,7.48-1.55c1.63.39,2.32,1.93,2.64,2.86.61,1.81.04,3.98.04,3.98,0,0-3.86-.47-7.52-.61-4.31-.17-2.63-4.68-2.63-4.68Z"/>
    <path class="cls-82" d="m430.75,107.78s3.19-2.9,8.15-1.69c1.77.43,2.53,2.1,2.88,3.12.66,1.97.04,4.34.04,4.34,0,0-4.2-.51-8.2-.67-4.69-.19-2.87-5.1-2.87-5.1Z"/>
  </g>
  <g id="Layer_4" data-name="Layer 4">
    <path class="cls-87" d="m475.05,81.78l-3.8,12.52s-1.92,6.4,1.23,9.89c1.99,2.21,8.07,2.46,9.89-1.23,2.29-4.65-1.23-9.89-1.23-9.89l-6.09-11.29Z"/>
    <path class="cls-77" d="m475.64,85.61l-2.74,9.04s-1.38,4.62.89,7.14c1.44,1.59,5.82,1.78,7.14-.89,1.66-3.36-.89-7.14-.89-7.14l-4.39-8.15Z"/>
    <path class="cls-73" d="m476.61,88.93l-.85,3.37s-.43,1.72.45,2.61c.56.56,2.17.55,2.61-.45.55-1.26-.45-2.61-.45-2.61l-1.76-2.92Z"/>
  </g>
  <g id="Almonds">
    <path class="cls-70" d="m512.47,80.81s-3.97-.16-4.58-4.96c-.63-4.99,4.46-11.76,4.46-11.76,0,0,1.69-2.32,3.18.13,1.49,2.45,3.62,8.9,2.66,12.84-.96,3.94-5.72,3.75-5.72,3.75Z"/>
    <path class="cls-12" d="m512.1,65.51c-1.12,2.96-3.44,10.87-1.57,13.95"/>
    <path class="cls-12" d="m515.1,65.64c.88,3.04,2.22,11.28.1,14.19"/>
    <path class="cls-62" d="m520.13,80.2s-3.1-.13-3.57-3.87c-.49-3.89,3.48-9.17,3.48-9.17,0,0,1.31-1.81,2.48.1s2.82,6.94,2.08,10.02c-.75,3.07-4.46,2.92-4.46,2.92Z"/>
    <path class="cls-15" d="m519.85,68.28c-.87,2.31-2.68,8.48-1.22,10.88"/>
    <path class="cls-15" d="m522.18,68.37c.68,2.37,1.73,8.79.08,11.07"/>
  </g>
  <g id="aging">
    <path class="cls-20" d="m494.26,501.31s7.36,22.54-1.16,43.15c0,0-1.18,6.97-12.21,7.68-5.19.33-8.81-.5-11.19-1.48-2.25-.93-3.99-2.78-4.82-5.06-9.58-26.29,1.42-46.03,1.42-46.03"/>
    <path class="cls-19" d="m494.24,502.31c-.17,4.97-7.06,7.99-14.24,7.8-7.18-.19-13.89-5.54-13.76-9.37.11-3.17,7.01-5.99,14.18-5.8s13.92,4.2,13.81,7.37Z"/>
    <path class="cls-56" d="m480.89,552.14c-5.19.33-8.81-.5-11.19-1.48-2.25-.93-3.99-2.78-4.82-5.06-9.58-26.29,1.23-45.43,1.23-45.43,0,0,1,6.43,7.94,8.61"/>
    <path class="cls-42" d="m496.57,515.59c-17.74,15.75-34.72-2.31-34.72-2.31l1.21-4.78s16.52,18.44,32.91,1.63l.6,5.46Z"/>
    <path class="cls-42" d="m494.24,540.32c-17.74,15.75-30.99-.82-30.99-.82l-.87-5.02s15.55,17.42,32.99.87l-1.13,4.97Z"/>
    <path class="cls-52" d="m467.97,505.12s-4.51,26.39,1.99,45.57"/>
    <path class="cls-52" d="m474.73,509.4s-1.59,34.37.2,42.42"/>
    <path class="cls-52" d="m482.64,510.09s.36,38.94-1.72,41.89"/>
    <path class="cls-52" d="m491.31,507.06s-.13,35.19-4.36,44.08"/>
    <path class="cls-20" d="m525.08,503.05s7.36,22.54-1.16,43.15c0,0-1.18,6.97-12.21,7.68-5.19.33-8.81-.5-11.19-1.48-2.25-.93-3.99-2.78-4.82-5.06-9.58-26.29,1.42-46.03,1.42-46.03"/>
    <path class="cls-19" d="m525.05,504.05c-.17,4.97-7.06,7.99-14.24,7.8s-13.89-5.54-13.76-9.37c.11-3.17,7.01-5.99,14.18-5.8,7.18.19,13.92,4.2,13.81,7.37Z"/>
    <path class="cls-56" d="m511.71,553.88c-5.19.33-8.81-.5-11.19-1.48-2.25-.93-3.99-2.78-4.82-5.06-9.58-26.29,1.23-45.43,1.23-45.43,0,0,1,6.43,7.94,8.61"/>
    <path class="cls-42" d="m527.38,517.32c-17.74,15.75-34.72-2.31-34.72-2.31l1.21-4.78s16.52,18.44,32.91,1.63l.6,5.46Z"/>
    <path class="cls-42" d="m525.05,542.06c-17.74,15.75-30.99-.82-30.99-.82l-.87-5.02s15.55,17.42,32.99.87l-1.13,4.97Z"/>
    <path class="cls-52" d="m498.78,506.86s-4.51,26.39,1.99,45.57"/>
    <path class="cls-52" d="m505.54,511.14s-1.59,34.37.2,42.42"/>
    <path class="cls-52" d="m513.46,511.83s.36,38.94-1.72,41.89"/>
    <path class="cls-52" d="m522.12,508.79s-.13,35.19-4.36,44.08"/>
  </g>
  <g id="Boiling">
    <path class="cls-16" d="m582.73,309.11v39s1,2,2,0v-5l-.02-1.77-1.98-2.23"/>
    <ellipse class="cls-16" cx="598.73" cy="338.61" rx="16" ry="8.5"/>
    <ellipse class="cls-8" cx="598.73" cy="337.61" rx="16" ry="7.5"/>
    <path class="cls-16" d="m605.73,316.11l1.99-.49v27.15c.01.74-.58,1.34-1.32,1.34h-.66v-28Z"/>
    <ellipse class="cls-16" cx="598.73" cy="308.61" rx="16" ry="8.5"/>
    <path class="cls-16" d="m614.73,309.11v39c-1,2-2,0-2,0v-5l2-3"/>
    <path class="cls-16" d="m599.73,347.61v9.5c-1,2-2,0-2,0v-10l1.94-.07.06.57Z"/>
    <path class="cls-32" d="m582.73,309.11c1,4,6,6,6,6l-.03,28.15s-5.97-2.15-5.97-4.15"/>
    <path class="cls-32" d="m607.73,344.11v-28s6-2,7-6l-.36,28.89s-2.64,4.11-6.64,5.11Z"/>
    <path class="cls-32" d="m605.73,344.11v-28c-7,2-15,0-15,0l-.16,27.97s9.16,2.03,15.16.03Z"/>
    <path class="cls-52" d="m594.73,286.11v13c-1,1-2,4-2,4"/>
    <path class="cls-32" d="m603.73,286.11v12.47s5.4,1.88,7.88,5.69c.93,1.42.78,3.3-.24,4.66l-.14.19c-1.37,1.83-3.29,3.19-5.48,3.86-5.39,1.64-13.67,1.73-19.02-2.86-3.59-3.08-2-6.73,1-9,2.84-2.15,7-3,7-3v-12"/>
    <ellipse class="cls-25" cx="599.23" cy="285.61" rx="4.5" ry="2.5"/>
    <path class="cls-38" d="m603.73,295.11c-4,4-9,0-9,0v-3s4,4,9,0v3Z"/>
    <path class="cls-52" d="m613.73,334.11s-2,0-2-2,2-2,2-2c0,0,1,0,1,2s-1,2-1,2Z"/>
    <polygon class="cls-16" points="588.73 315.11 588.7 343.27 590.35 344.06 590.73 316.11 588.73 315.11"/>
    <path class="cls-16" d="m526.73,332.58v39s1,2,2,0v-5l-.02-1.77-1.98-2.23"/>
    <ellipse class="cls-16" cx="542.73" cy="362.08" rx="16" ry="8.5"/>
    <ellipse class="cls-8" cx="542.73" cy="361.08" rx="16" ry="7.5"/>
    <path class="cls-16" d="m549.73,339.58l1.99-.49v27.15c.01.74-.58,1.34-1.32,1.34h-.66v-28Z"/>
    <ellipse class="cls-16" cx="542.73" cy="332.08" rx="16" ry="8.5"/>
    <polyline class="cls-38" points="592.73 333.58 592.73 316.58 591.73 316.58 591.73 332.58"/>
    <polyline class="cls-36" points="592.78 320.05 613.73 346.58 613.73 344.58 592.73 318.58"/>
    <polyline class="cls-11" points="561.73 351.58 592.73 333.58 591.73 332.58 591.73 332.58 584.73 329.58 558.73 343.58 558.73 352.58 561.73 351.58"/>
    <polyline class="cls-38" points="558.73 354.58 593.73 334.58 592.73 333.58 558.73 352.58 558.73 354.58"/>
    <line class="cls-52" x1="597.73" y1="347.58" x2="597.73" y2="356.58"/>
    <path class="cls-16" d="m558.73,332.58v39c-1,2-2,0-2,0v-5l2-3"/>
    <path class="cls-16" d="m543.73,371.08v9.5c-1,2-2,0-2,0v-10l1.94-.07.06.57Z"/>
    <path class="cls-32" d="m526.73,332.58c1,4,6,6,6,6l-.03,28.15s-5.97-2.15-5.97-4.15"/>
    <path class="cls-32" d="m551.73,367.58v-28s6-2,7-6l-.36,28.89s-2.64,4.11-6.64,5.11Z"/>
    <path class="cls-32" d="m549.73,367.58v-28c-7,2-15,0-15,0l-.16,27.97s9.16,2.03,15.16.03Z"/>
    <path class="cls-52" d="m538.73,309.58v13c-1,1-2,4-2,4"/>
    <path class="cls-32" d="m547.73,309.58v13s5.4,1.35,7.88,5.16c.93,1.42.78,3.3-.24,4.66l-.14.19c-1.37,1.83-3.29,3.19-5.48,3.86-5.39,1.64-13.67,1.73-19.02-2.86-3.59-3.08-2-6.73,1-9,2.84-2.15,7-3,7-3v-12"/>
    <ellipse class="cls-25" cx="543.23" cy="309.08" rx="4.5" ry="2.5"/>
    <path class="cls-38" d="m547.73,318.58c-4,4-9,0-9,0v-3s4,4,9,0v3Z"/>
    <path class="cls-38" d="m553,325.08l29.73-16.5s1,0,1,1l-28.93,16.69"/>
    <path class="cls-38" d="m558.79,335.08l12.94-7.5s2-1,2-5c0,0-1-3,0-4,.84-.84,7.32-4.5,9.38-5.65.39-.22.62-.62.62-1.07v-.38c0-.4-.43-.66-.79-.46l-8.21,4.56s-4,2-3,6-1,5-1,5l-12,7"/>
    <polyline class="cls-38" points="591.73 317.58 558.79 337.11 558.73 338.58 591.73 318.58"/>
    <polygon class="cls-38" points="569.84 331.97 569.73 346.08 568.73 346.58 568.73 332.58 569.84 331.97"/>
    <polygon class="cls-38" points="560.73 351.58 560.43 337.57 559.68 338.01 559.73 352.08 560.73 351.58"/>
    <path class="cls-52" d="m557.73,357.58s-2,0-2-2,2-2,2-2c0,0,1,0,1,2s-1,2-1,2Z"/>
    <path class="cls-52" d="m614.73,318.58s-1,0-1,2,1,2,1,2c0,0,1,0,1-2s-1-2-1-2Z"/>
    <line class="cls-52" x1="614.73" y1="320.58" x2="614.73" y2="319.58"/>
    <path class="cls-52" d="m614.73,323.08s-1,0-1,2,1,2,1,2c0,0,1,0,1-2s-1-2-1-2Z"/>
    <line class="cls-52" x1="614.73" y1="325.08" x2="614.73" y2="324.08"/>
    <line class="cls-52" x1="581.24" y1="311.11" x2="581.24" y2="312.1"/>
    <polyline class="cls-52" points="599.73 345.58 598.73 343.67 599.74 346.04"/>
    <polygon class="cls-16" points="532.73 338.58 532.7 366.74 534.36 367.53 534.73 339.58 532.73 338.58"/>
    <polygon class="cls-36" points="614.51 350.92 610.51 349.92 591.73 332.92 591.73 336.58 610.51 352.92 614.51 353.92 614.51 350.92"/>
    <polygon class="cls-36" points="584.01 341.02 592.01 337.02 596.01 338.02 588.01 342.02 584.01 341.02"/>
    <polygon class="cls-36" points="600.73 354.58 608.73 350.58 612.73 351.58 604.73 355.58 600.73 354.58"/>
    <polygon class="cls-36" points="595.73 351.66 603.73 347.66 607.73 348.66 599.73 352.66 595.73 351.66"/>
    <polygon class="cls-36" points="591.42 348.24 599.42 344.24 603.42 345.24 595.42 349.24 591.42 348.24"/>
    <polygon class="cls-36" points="587.73 344.66 595.73 340.66 599.73 341.66 591.73 345.66 587.73 344.66"/>
    <polygon class="cls-36" points="604.73 355.58 600.73 354.58 582.73 337.58 582.73 340.58 600.73 357.58 604.73 358.58 604.73 355.58"/>
    <polygon class="cls-38" points="582.83 339.01 582.73 324.08 581.73 324.58 581.83 339.51 582.83 339.01"/>
  </g>
  <g id="Fermentation">
    <path class="cls-51" d="m183.64,509.01v-29s21,16,34,0v26c-13,18-34,3-34,3"/>
    <path class="cls-28" d="m217.64,480.01c0,4.69-8.16,8-17,8s-17-4.31-17-9,8.16-8,17-8,17,4.31,17,9Z"/>
    <path class="cls-7" d="m214.14,478.92c0,3.87-6.59,6.59-13.72,6.59s-13.72-3.55-13.72-7.41,6.59-6.59,13.72-6.59,13.72,3.55,13.72,7.41Z"/>
    <path class="cls-47" d="m190.64,508.01c-1,2-2,0-2,0l-10,6h-1c-1-1,0-2,0-2l11-6s0-1,1-1,1,2,1,2v1Z"/>
    <line class="cls-49" x1="183.64" y1="511.01" x2="183.64" y2="516.01"/>
    <path class="cls-3" d="m195.14,474.83v2.46c0,.32.08.63.25.9.53.85,2.04,2.51,5.75,2.51s5.16-1.59,5.72-2.46c.19-.3.28-.65.28-1v-2.04"/>
    <path class="cls-3" d="m207.14,475.19c0,1.69-2.88,2.88-6,2.88s-6-1.55-6-3.24,2.88-2.88,6-2.88,6,1.55,6,3.24Z"/>
    <path class="cls-53" d="m197.97,473.28v1.26c0,.16.04.32.13.46.27.44,1.05,1.29,2.96,1.29s2.66-.82,2.94-1.26c.1-.15.14-.33.14-.51v-1.05"/>
    <path class="cls-31" d="m204.14,473.46c0,.87-1.48,1.48-3.09,1.48s-3.09-.8-3.09-1.67,1.48-1.48,3.09-1.48,3.09.8,3.09,1.67Z"/>
    <line class="cls-49" x1="185.64" y1="510.01" x2="185.64" y2="515.01"/>
    <path class="cls-14" d="m183.64,515.01s-1,0-1,2,3,1,3,1c0,0,1,0,1-2s-1-1-1-1"/>
    <path class="cls-52" d="m183.64,515.7s0,.3,1,.3,1.17-1.04,1.17-1.04"/>
    <line class="cls-49" x1="199.64" y1="514.51" x2="199.64" y2="525.01"/>
    <line class="cls-49" x1="201.64" y1="525.01" x2="201.64" y2="515.01"/>
    <path class="cls-14" d="m199.64,525.01s-.17,0-.37.07c-.28.1-.63.34-.63.93v1s0,1,2,1,2-1,2-1v-1s.05-1.66-.98-1.33"/>
    <path class="cls-52" d="m200.64,526.01s-1,0-1-1"/>
    <path class="cls-52" d="m201.64,525.01s0,1-1,1"/>
    <path class="cls-14" d="m217.64,515.01s1,0,1,1v1s0,1-1,1h-2s-1,0-1-1v-1s0-1,1-1"/>
    <path class="cls-52" d="m215.64,516.01v-8c0,.5,2-1.5,2-1.5v9.5h-2Z"/>
    <path class="cls-41" d="m181.14,510.51v-26.99c0-1.84.66-3.65,1.96-4.97.01-.01.03-.03.04-.04,1-1,5-4,5,0h1c0-1.94-1.26-2.63-2.14-2.87-.48-.13-.98-.07-1.42.15l-2.58,1.29c-.67.33-1.25.83-1.65,1.46-.56.88-1.21,2.26-1.21,3.97v28s1,0,1,0Z"/>
    <path class="cls-48" d="m202.14,473.51v-16c-1.13.58-2.65.32-3,0v16"/>
    <path class="cls-46" d="m180.14,490.51l-1-1s-1,0-1,1l2,2"/>
    <path class="cls-46" d="m180.05,493.31l-1-1s-1,0-1,1l2,2"/>
    <path class="cls-59" d="m248.64,471.51v-27.5c-5,7-15,8-15,8-15,1-19.5-7.5-19.5-7.5v24s3.5,9.5,16.5,9.5c14,0,18-8,18-8"/>
    <polygon class="cls-52" points="248.64 500.01 248.64 471.01 246.64 474.51 246.64 500.51 248.64 500.01"/>
    <line class="cls-52" x1="232.68" y1="501.65" x2="246.64" y2="494.01"/>
    <line class="cls-52" x1="232.64" y1="504.01" x2="246.64" y2="496.01"/>
    <line class="cls-52" x1="220.64" y1="496.01" x2="230.64" y2="502.01"/>
    <line class="cls-52" x1="220.64" y1="498.01" x2="230.64" y2="504.01"/>
    <path class="cls-50" d="m230.64,494.01c-1,0-2-1-2-1l-8.75-15.08s6.75,2.08,10.75,2.08"/>
    <path class="cls-2" d="m232.64,480.01c9,0,13-4,13-4l-7.15,10.98-3.85,6.02s-1,1-2,1"/>
    <polygon class="cls-52" points="230.64 507.01 230.64 479.51 232.64 480.01 232.64 507.01 230.64 507.01"/>
    <line class="cls-52" x1="246.64" y1="492.01" x2="238.41" y2="487.27"/>
    <line class="cls-52" x1="237.64" y1="489.01" x2="245.64" y2="494.01"/>
    <line class="cls-52" x1="225.82" y1="488.12" x2="220.64" y2="490.01"/>
    <ellipse class="cls-28" cx="231.64" cy="443.01" rx="17.5" ry="9.5"/>
    <ellipse class="cls-31" cx="200.64" cy="457.51" rx="1.5" ry="1"/>
    <path class="cls-14" d="m248.64,471.01c-5,14-27,8-27,8-6.75-4.08-7-9-7-9,0,0,3,8,18,8,12.04,0,16.75-9.11,16-7Z"/>
    <path class="cls-29" d="m247.62,465.97c.04,4-2,7.02-3.94,7.04,0,0-3,.03-3.03-2.97-.02-2.49.94-7.01,3.94-7.04,1,0,3.01.97,3.03,2.97Z"/>
    <line class="cls-52" x1="240.65" y1="469.04" x2="247.63" y2="466.97"/>
    <line class="cls-52" x1="243.68" y1="473.01" x2="244.59" y2="463"/>
    <polygon class="cls-52" points="220.64 477.01 220.64 501.01 218.64 499.01 218.64 476.01 220.64 477.01"/>
    <path class="cls-14" d="m248.94,499.24s1,.04.96,1.04l-.04,1s-.04,1-1.04.96l-2-.08s-1-.04-.96-1.04l.04-1s.04-1,1.04-.96"/>
    <path class="cls-14" d="m232.64,507.01s1,0,1,1v1s0,1-1,1h-2s-1,0-1-1v-1s0-1,1-1"/>
    <path class="cls-14" d="m220.64,499.01s1,0,1,1v1s0,1-1,1h-2s-1,0-1-1v-1s0-1,1-1"/>
    <line class="cls-14" x1="220.64" y1="488.01" x2="224.65" y2="486.36"/>
    <path class="cls-7" d="m245.64,441.64c0,3.87-6.59,6.59-13.72,6.59s-13.72-3.55-13.72-7.41,6.59-6.59,13.72-6.59,13.72,3.55,13.72,7.41Z"/>
    <path class="cls-3" d="m226.64,437.55v2.46c0,.32.08.63.25.9.53.85,2.04,2.51,5.75,2.51s5.16-1.59,5.72-2.46c.19-.3.28-.65.28-1v-2.04"/>
    <path class="cls-3" d="m238.64,437.91c0,1.69-2.88,2.88-6,2.88s-6-1.55-6-3.24,2.88-2.88,6-2.88,6,1.55,6,3.24Z"/>
    <path class="cls-53" d="m229.47,436v1.26c0,.16.04.32.13.46.27.44,1.05,1.29,2.96,1.29s2.66-.82,2.94-1.26c.1-.15.14-.33.14-.51v-1.05"/>
    <path class="cls-31" d="m235.64,436.18c0,.87-1.48,1.48-3.09,1.48s-3.09-.8-3.09-1.67,1.48-1.48,3.09-1.48,3.09.8,3.09,1.67Z"/>
    <path class="cls-48" d="m233.64,436.23v-16c-1.13.58-2.65.32-3,0v16"/>
    <ellipse class="cls-31" cx="232.14" cy="420.23" rx="1.5" ry="1"/>
    <path class="cls-29" d="m215.34,502.09c.63,3.95-.94,7.24-2.85,7.54,0,0-2.96.47-3.44-2.49-.39-2.45-.12-7.07,2.85-7.54.99-.16,3.12.51,3.44,2.49Z"/>
    <line class="cls-52" x1="208.9" y1="506.15" x2="215.5" y2="503.07"/>
    <line class="cls-52" x1="212.49" y1="509.63" x2="211.9" y2="499.6"/>
  </g>
  <g id="Mashing">
    <path class="cls-40" d="m184.59,412c-.03,10.47-15.03,19.03-33.44,19.5-18.46.47-33.44-8.73-33.44-19.5s14.97-19.5,33.44-19.5,33.47,8.73,33.44,19.5Z"/>
    <path class="cls-17" d="m185.71,407.11c-.04,11.26-15.3,20.46-34.05,20.96-18.8.5-34.05-9.39-34.05-20.96s15.24-20.96,34.05-20.96,34.08,9.39,34.05,20.96Z"/>
    <path class="cls-10" d="m182.06,399.81s-.35-8.72-.35-13.72c0-3-3.1-4.63-5-4-3,1-7.93,3.46-7.93,3.46l2.77,1.38,3.89-1.88s4.27-2.95,4.27,3.05c0,5-.05,7.07-.05,7.07l2.4,4.66Z"/>
    <path class="cls-10" d="m119.71,399.09v-12c0-4.2,2.72-4.97,4.36-5.05.69-.04,1.37.14,1.99.46l7.65,4.59-2,1-7-4s-3-1.25-3,4.52-.05,7.48-.05,7.48l-1.95,3Z"/>
    <path class="cls-17" d="m185.21,404.09c-.03,10.47-15.05,19.03-33.5,19.5-18.5.47-33.5-8.73-33.5-19.5s15-19.5,33.5-19.5,33.54,8.73,33.5,19.5Z"/>
    <ellipse class="cls-40" cx="152.21" cy="398.09" rx="15.5" ry="28" transform="translate(-250.05 538.92) rotate(-88.37)"/>
    <ellipse class="cls-58" cx="151.8" cy="395.22" rx="12.9" ry="23.31" transform="translate(-247.58 535.73) rotate(-88.37)"/>
    <ellipse class="cls-40" cx="152.04" cy="393.47" rx="11.05" ry="19.96" transform="translate(-245.6 534.27) rotate(-88.37)"/>
    <ellipse class="cls-24" cx="151.75" cy="391.43" rx="9.2" ry="16.62" transform="translate(-243.84 532) rotate(-88.37)"/>
    <path class="cls-40" d="m158.21,367.59s-1-3-7-3c-7,0-6,5-6,5v20c0,5,13,5,13,0v-22"/>
    <path class="cls-52" d="m141.71,384.09s0-1,2-1"/>
    <path class="cls-13" d="m146.71,404.09s-.36,3.21-.91,3.81c-1.09,1.19-1.59,4.74-1.14,5.27"/>
    <path class="cls-13" d="m127.75,405.36s.4-3.17,3.89-4.32,4.07-1.95,4.07-1.95"/>
    <path class="cls-4" d="m158.21,368.3c0,2.05-5,2.79-6,2.79s-7-.73-7-2.79,2.91-3.71,6.5-3.71,6.5,1.66,6.5,3.71Z"/>
    <ellipse class="cls-5" cx="143.71" cy="385.59" rx="2" ry="2.5"/>
    <line class="cls-39" x1="143.71" y1="383.09" x2="143.71" y2="388.09"/>
    <line class="cls-39" x1="141.71" y1="386.09" x2="145.71" y2="386.09"/>
    <path class="cls-10" d="m145.71,385.09s1.71-.52,2-1c0,0,.21-.87,0-1l-2,1v1Z"/>
  </g>
  <g id="Malting">
    <polygon class="cls-37" points="514 249.27 495 260.27 495 241.27 514 230.27 514 249.27"/>
    <polygon class="cls-38" points="514 230.27 495 241.27 476.53 231.82 495.53 223.82 514 230.27"/>
    <polygon class="cls-38" points="495 241.27 495 260.27 477 249.27 477 232.27 495 241.27"/>
    <path class="cls-26" d="m510,245.27c0,2-2.24,7-5,7-2,0-5-2.36-5-6.5s2.24-7.5,5-7.5,5,2.86,5,7Z"/>
    <path class="cls-57" d="m508.5,245.27c0,1.57-1.57,5.5-3.5,5.5-1.4,0-3.5-1.85-3.5-5.11s1.57-5.89,3.5-5.89,3.5,2.25,3.5,5.5Z"/>
    <path class="cls-27" d="m507.5,245.27c0,1-1.12,3.5-2.5,3.5-1,0-2.5-1.18-2.5-3.25s1.12-3.75,2.5-3.75,2.5,1.43,2.5,3.5Z"/>
    <polygon class="cls-6" points="514 252.94 495 263.94 495 259.94 514 248.94 514 252.94"/>
    <path class="cls-26" d="m511.13,250.75l-6.32-3.76c-.18-.11-.32-.28-.37-.48-.02-.05-.03-.11-.04-.16-.35-1.39,1.2-2.49,2.44-1.78l5.36,3.06.33.19s1.81,1.07.44,2.63c-.46.53-1.47.32-1.85.3Z"/>
    <polyline class="cls-30" points="492.53 264.32 493 231.27 480 224.27 472.53 214.82 472.53 227.82 470.53 227.82 470.53 213.82 468 210.27 493.53 224.82 522 209.27 517.53 213.82 517.53 255.32 516.53 254.82 516.53 215.82 508.53 223.82 494.53 231.82 494.53 265.32"/>
    <polygon class="cls-22" points="467.53 209.82 496.53 193.82 522.53 208.82 493.53 224.82 467.53 209.82"/>
    <polygon class="cls-52" points="470.53 209.82 496.53 195.82 518.53 208.82 493.53 222.82 480.35 215.37 470.53 209.82"/>
    <polygon class="cls-1" points="508 224.27 508 230.27 494.58 237.22 494.53 231.82 508 224.27"/>
    <path class="cls-26" d="m513.5,249.27c0,1.5-1.45,1.5-2,1.5s-1-1.17-1-2c0-1,1.45-1,2-1s1,.67,1,1.5Z"/>
    <polygon class="cls-54" points="514 254.44 495 265.44 495 261.44 514 250.44 514 254.44"/>
    <polygon class="cls-6" points="494 263.69 477 253.27 477 249.27 494 259.69 494 263.69"/>
    <polygon class="cls-54" points="494 265.19 477 255.19 477 251.19 494 261.19 494 265.19"/>
    <polygon class="cls-1" points="493 231.27 493 237.27 480 230.27 480 224.27 493 231.27"/>
    <polygon class="cls-34" points="496.53 195.82 496 206.27 480.35 215.37 470.53 209.82 496.53 195.82"/>
    <polygon class="cls-21" points="496 206.27 509 214.27 518.53 208.82 496.53 195.82 496 206.27"/>
    <path class="cls-35" d="m441.53,268.82s-2,5-2,6c0,0-2,3,0,3,0,0,2.85,1.08,4,3,1.47,2.45,16,1,17,0s3-1,3-1c0,0,1,1,1-1s-2.07-8.82-1.53-10.41"/>
    <path class="cls-35" d="m477.53,272.82s6.47-.55,7.47,1.45c.62,1.25,1.64.16,2.31-.84.46-.67.6-1.51.4-2.3l-.72-2.87c1.54-3.85.76-7.81,0-10-.25-.71-1.15-5.27-1-6,.62-2.95.8-10.59,0-13,0,0-.73,2.12-3.87,3.56s-5.96,3.33-13.05,1.38-8.09.06-8.09.06v16l1.98,9.4s8.55,5.15,14.55,3.15"/>
    <path class="cls-33" d="m442,268.27s-3.02,5.33-3.02,6.33c0,0-2,3,0,3,0,0,2.83,1.09,4,3,1.02,1.67,5.02,1.67,8.02,1.67"/>
    <polyline class="cls-55" points="473.49 273.32 469 272.27 461 268.77 461 243.27 467.15 243.75"/>
    <path class="cls-35" d="m458.53,259.82s.21,0,.54.04c1,.11,3.13.53,4.13,2.24.21.35.22.78.06,1.15-.2.47-.35,1.33.27,2.57,1,2-1,3-1,3-6,6-20,1-21,0s0-8,0-8c3-3,10-2,10-2l8.54,1.14"/>
    <path class="cls-52" d="m442.53,261.82s1,4,10,4c0,0,4,0,6-1s3-1,3-1"/>
    <path class="cls-43" d="m447.09,263.16c-.08.24-1.28-.18-1.2-.42m2.43-.1c.03.25,1.29.12,1.27-.13m7.45-3.19,4,4v-.22s-.12-.59-.12-.59l-.88-1.2c0-1-2-1-2-1,.53-1.45-1-1-1-1m3,3c0-1-2-1-2-1m1,1-2-3c-1-1-2.35-.24-2.35-.24-.81-.69-1.4.04-1.4.04,0,0-1.26-.8-2.26.2h-1c-2-1-2,1-2,1-1.47-.45-1.21.6-1.21.6-.99-.14-1.13.85-1.13.85l-.67-.45c-1,0-1,1-1,1,0,0-1.53-1.55-1.32-.11s3.79,2.56,6.79,3.56,12-2,12-2m-8.47-2.45c-1-1-2,0-2,0m4,3c-1-1-3,0-3,0m-3,0c-1-1-2,0-2,0m10-2c-1-1-2,0-2,0m-4,1c-1-1-2,0-2,0"/>
    <path class="cls-35" d="m473.38,228.28s-7.84-.46-11.84,3.54c0,0-1.47.55-1,3,0,0,1,2,0,2s-2,4,0,4,0,2,0,2c0,0-1,2,3,1s5,0,5,0c11,3,16-2,16-2,0,0,2.47-1.03,2.47-2.55,0-3-1.47-5.45-1.47-5.45,1-4-3.47-3.75-3.47-3.75"/>
    <path class="cls-43" d="m481.2,231.44c0-1-2-1-2-1m3,2c0-2-2-1-2-1m-6-1c-1-1-2,0-2,0m4,3c-1-1-3,0-3,0m-3,0c-1-1-2,0-2,0m10-2c-1-1-2,0-2,0m-4,1c-1-1-2,0-2,0m-7.16.89,0,0,2-1c-2,0-2,2-2,2m3-3,0,0,2,0c-2-1-2,1-2,1m0-1,0,0,1.47,2.45c-2-1-2,0-2,0m.53-2.45c-2,0-2,1-2,1-1.47-.45-1,1-1,1-1.47-.45-1.5,1.5-1.5,1.5,0,0-2,2,13,3,0,0,7,0,9-2l-.5-1.5c1.47-1.55-.53-1.55-.53-1.55,1-1,0-1,0-1,0-1-1.3-1.33-1.3-1.33,0-1-2-1-2-1-1.3-3.33-1.7.33-2.7-.67s-2,0-2,0c0,0-1-2-2,0l-2.47.55c-2-1-2,1-2,1-1.47-.45-2,1-2,1m0,4c-3-1-3,1-3,1m5-1c-1-1-2,0-2,0m14-2c-1-1-1,0-1,0m2.47,1.45c-1-2-2,0-2,0m-8.47-.45c-2-1-2,1-2,1m2-1,2,1c-1-1-2,0-2,0m5,0c0-2-3-1-3-1m6,2c-1-1-2,0-2,0m-4-2c-1-1-2,0-2,0m-2,1c0-1-1.56-.38-1.56-.38"/>
  </g>
  <g id="Lines">
    <g>
      <line class="cls-9" x1="300.52" y1="301.1" x2="304.36" y2="305.71"/>
      <line class="cls-18" x1="312.11" y1="315" x2="447.76" y2="477.64"/>
      <line class="cls-9" x1="451.64" y1="482.29" x2="455.48" y2="486.9"/>
    </g>
    <g>
      <line class="cls-9" x1="509.89" y1="371.98" x2="504.55" y2="374.73"/>
      <line class="cls-44" x1="494.29" y1="380.01" x2="294.14" y2="482.99"/>
      <line class="cls-9" x1="289.01" y1="485.63" x2="283.67" y2="488.37"/>
    </g>
    <g>
      <line class="cls-9" x1="222.76" y1="394.58" x2="228.15" y2="391.95"/>
      <line class="cls-23" x1="238.37" y1="386.96" x2="417.2" y2="299.59"/>
      <line class="cls-9" x1="422.31" y1="297.1" x2="427.7" y2="294.47"/>
    </g>
    <g>
      <line class="cls-9" x1="297.2" y1="188.11" x2="302.61" y2="185.51"/>
      <line class="cls-45" x1="315.44" y1="179.35" x2="334.7" y2="170.11"/>
      <line class="cls-9" x1="341.12" y1="167.03" x2="346.53" y2="164.44"/>
    </g>
  </g>
  <g id="Labels">
    <text class="cls-78" transform="translate(381.65 95.45) rotate(-25.41)"><tspan x="0" y="0">R</tspan><tspan class="cls-60" x="9.62" y="0">A</tspan><tspan x="18.79" y="0">W M</tspan><tspan class="cls-92" x="48.86" y="0">A</tspan><tspan x="58.67" y="0">TERIALS</tspan></text>
    <text class="cls-78" transform="translate(211.53 377.09) rotate(-25.95)"><tspan x="0" y="0">M</tspan><tspan class="cls-84" x="12.75" y="0">A</tspan><tspan x="23.5" y="0">SHING</tspan></text>
    <text class="cls-78" transform="translate(266.39 470.51) rotate(-25.25)"><tspan x="0" y="0">FERMEN</tspan><tspan class="cls-92" x="57.07" y="0">TA</tspan><tspan x="73.76" y="0">TION</tspan></text>
    <text class="cls-78" transform="translate(335.96 314.79) rotate(-28.23)"><tspan x="0" y="0">MA</tspan><tspan class="cls-60" x="23.82" y="0">L</tspan><tspan class="cls-75" x="29.7" y="0">TING</tspan></text>
    <text class="cls-78" transform="translate(429.55 395.75) rotate(-25.35)"><tspan x="0" y="0">BOILING</tspan></text>
    <text class="cls-78" transform="translate(435.83 432.11) rotate(48.48)"><tspan class="cls-71" x="0" y="0">A</tspan><tspan class="cls-75" x="10.12" y="0">GING</tspan></text>
  </g>
  <g id="RM_Labels" data-name="RM Labels">
    <text class="cls-80" transform="translate(512.54 101.25) rotate(-25.41)"><tspan x="0" y="0">ALMONDS</tspan></text>
    <text class="cls-80" transform="translate(474.68 121.73) rotate(-25.41)"><tspan class="cls-60" x="0" y="0">W</tspan><tspan class="cls-92" x="6.17" y="0">A</tspan><tspan x="11.45" y="0">TER</tspan></text>
    <text class="cls-80" transform="translate(434.86 141.13) rotate(-25.41)"><tspan x="0" y="0">HOPS</tspan></text>
    <text class="cls-79" transform="translate(382.93 167.4) rotate(-25.41) scale(1.27 1)"><tspan class="cls-86" x="0" y="0">B</tspan><tspan x="3.72" y="0">ARLEY</tspan></text>
  </g>
</svg>